{
.appVersion = "1330";
classes = (
{
automatic = 1;

glyphs = (
{
glyphname = A;
lastChange = "2020-06-29 12:01:23 +0000";
layers = (
{
anchors = (
{
name = bottom;
position = "{342, 0}";
},
{
name = ogonek;
position = "{648, 0}";
},
{
name = top;
position = "{342, 720}";
}
);
guideLines = (
{
angle = 67.5;
position = "{-72, -200}";
}
);
layerId = "AB099EFE-E788-4EFC-8633-CF147CB782A6";
paths = (
{
closed = 1;
nodes = (
"32 0 LINE",
"66 0 LINE",
"162 242 LINE",
"168 254 LINE",
"338 676 LINE",
"342 676 LINE",
"512 252 LINE",
"518 240 LINE",
"614 0 LINE",
"648 0 LINE",
"354 720 LINE",
"326 720 LINE"
);
},
{
closed = 1;
nodes = (
"148 232 LINE",
"534 232 LINE",
"534 262 LINE",
"148 262 LINE"
);
}
);
width = 680;
},
{
anchors = (
{
name = bottom;
position = "{350, 0}";
},
{
name = ogonek;
position = "{682, 0}";
},
{
name = top;
position = "{350, 720}";
}
);
associatedMasterId = "AB099EFE-E788-4EFC-8633-CF147CB782A6";
guideLines = (
{
angle = 67.5;
position = "{-72, -200}";
}
);
layerId = "BFE82E42-5985-4933-9EFC-E234A0040BAA";
name = "{88}";
paths = (
{
closed = 1;
nodes = (
"16 0 LINE",
"108 0 LINE",
"196 216 LINE",
"208 246 LINE",
"348 600 LINE",
"352 600 LINE",
"492 246 LINE",
"504 214 LINE",
"592 0 LINE",
"684 0 LINE",
"386 720 LINE",
"314 720 LINE"
);
},
{
closed = 1;
nodes = (
"154 190 LINE",
"546 190 LINE",
"546 270 LINE",
"154 270 LINE"
);
}
);
width = 700;
},
{
anchors = (
{
name = bottom;
position = "{378, 0}";
},
{
name = ogonek;
position = "{752, 0}";
},
{
name = top;
position = "{378, 720}";
}
);
guideLines = (
{
angle = 67.5;
position = "{-94, -200}";
}
);
layerId = "2D8F7115-C311-411E-929D-56333CF7FFB2";
paths = (
{
closed = 1;
nodes = (
"4 0 LINE",
"196 0 LINE",
"262 176 LINE",
"276 246 LINE",
"376 514 LINE",
"380 514 LINE",
"480 246 LINE",
"494 176 LINE",
"560 0 LINE",
"752 0 LINE",
"454 720 LINE",
"302 720 LINE"
);
},
{
closed = 1;
nodes = (
"180 132 LINE",
"576 132 LINE",
"576 278 LINE",
"180 278 LINE"
);
}
);
width = 756;
}
);
leftKerningGroup = LAT_A_UC;
rightKerningGroup = LAT_A_UC;
unicode = 0041;
},
{
glyphname = AE;
lastChange = "2020-06-28 10:38:27 +0000";
layers = (
{
anchors = (
{
name = bottom;
position = "{544, 0}";
},
{
name = top;
position = "{562, 720}";
}
);
layerId = "AB099EFE-E788-4EFC-8633-CF147CB782A6";
paths = (
{
closed = 1;
nodes = (
"10 0 LINE",
"44 0 LINE",
"182 242 LINE",
"426 678 LINE",
"452 678 LINE",
"446 720 LINE",
"418 720 LINE"
);
},
{
closed = 1;
nodes = (
"168 232 LINE",
"478 232 LINE",
"478 262 LINE",
"168 262 LINE"
);
},
{
closed = 1;
nodes = (
"456 690 LINE",
"838 690 LINE",
"838 720 LINE",
"424 720 LINE",
"466 244 LINE",
"488 0 LINE",
"838 0 LINE",
"838 30 LINE",
"516 30 LINE"
);
},
{
closed = 1;
nodes = (
"790 354 LINE",
"790 384 LINE",
"476 384 LINE",
"480 354 LINE"
);
}
);
width = 906;
},
{
anchors = (
{
name = bottom;
position = "{549, 0}";
},
{
name = top;
position = "{560, 720}";
}
);
associatedMasterId = "AB099EFE-E788-4EFC-8633-CF147CB782A6";
layerId = "7149F11A-89A7-4316-9A40-A0C5F52F514C";
name = "{88}";
paths = (
{
closed = 1;
nodes = (
"8 0 LINE",
"100 0 LINE",
"224 240 LINE",
"430 636 LINE",
"450 636 LINE",
"444 720 LINE",
"388 720 LINE"
);
},
{
closed = 1;
nodes = (
"182 192 LINE",
"512 192 LINE",
"512 268 LINE",
"182 268 LINE"
);
},
{
closed = 1;
nodes = (
"510 640 LINE",
"846 640 LINE",
"846 720 LINE",
"428 720 LINE",
"462 236 LINE",
"478 0 LINE",
"846 0 LINE",
"846 80 LINE",
"554 80 LINE"
);
},
{
closed = 1;
nodes = (
"802 328 LINE",
"802 404 LINE",
"520 404 LINE",
"526 328 LINE"
);
}
);
width = 908;
},
{
anchors = (
{
name = bottom;
position = "{558, 0}";
},
{
name = top;
position = "{558, 720}";
}
);
background = {
components = (
{
name = A;
transform = "{1, 0, 0.03492, 1, -8, 0}";
}
);
};
layerId = "2D8F7115-C311-411E-929D-56333CF7FFB2";
paths = (
{
closed = 1;
nodes = (
"4 0 LINE",
"192 0 LINE",
"292 234 LINE",
"428 564 LINE",
"448 564 LINE",
"440 720 LINE",
"336 720 LINE"
);
},
{
closed = 1;
nodes = (
"204 132 LINE",
"548 132 LINE",
"548 278 LINE",
"204 278 LINE"
);
},
{
closed = 1;
nodes = (
"596 560 LINE",
"860 560 LINE",
"860 720 LINE",
"432 720 LINE",
"454 220 LINE",
"466 0 LINE",
"860 0 LINE",
"860 160 LINE",
"620 160 LINE"
);
},
{
closed = 1;
nodes = (
"818 286 LINE",
"818 438 LINE",
"590 438 LINE",
"600 286 LINE"
);
}
);
width = 912;
}
);
leftKerningGroup = LAT_AE_UC;
rightKerningGroup = LAT_E_UC;
rightMetricsKey = E;
unicode = 00C6;
},
{
glyphname = B;
lastChange = "2020-06-28 03:05:22 +0000";
layers = (
{
anchors = (
{
name = bottom;
position = "{290, 0}";
},
{
name = center;
position = "{120, 206}";
},
{
name = top;
position = "{286, 720}";
}
);
layerId = "AB099EFE-E788-4EFC-8633-CF147CB782A6";
paths = (
{
closed = 1;
nodes = (
"302 0 LINE SMOOTH",
"440 0 OFFCURVE",
"528 76 OFFCURVE",
"528 192 CURVE SMOOTH",
"528 292 OFFCURVE",
"466 360 OFFCURVE",
"364 378 CURVE",
"364 372 LINE",
"428 400 OFFCURVE",
"470 460 OFFCURVE",
"470 536 CURVE SMOOTH",
"470 646 OFFCURVE",
"392 720 OFFCURVE",
"280 720 CURVE SMOOTH",
"110 720 LINE",
"110 690 LINE",
"280 690 LINE SMOOTH",
"372 690 OFFCURVE",
"438 630 OFFCURVE",
"438 536 CURVE SMOOTH",
"438 446 OFFCURVE",
"372 386 OFFCURVE",
"280 386 CURVE SMOOTH",
"110 386 LINE",
"110 356 LINE",
"302 356 LINE SMOOTH",
"422 356 OFFCURVE",
"496 292 OFFCURVE",
"496 192 CURVE SMOOTH",
"496 92 OFFCURVE",
"422 30 OFFCURVE",
"302 30 CURVE SMOOTH",
"128 30 LINE",
"128 0 LINE"
);
},
{
closed = 1;
nodes = (
"132 0 LINE",
"132 720 LINE",
"100 720 LINE",
"100 0 LINE"
);
}
);
width = 594;
},
{
anchors = (
{
name = bottom;
position = "{348, 0}";
},
{
name = center;
position = "{162, 226}";
},
{
name = top;
position = "{312, 720}";
}
);
layerId = "2D8F7115-C311-411E-929D-56333CF7FFB2";
paths = (
{
closed = 1;
nodes = (
"396 0 LINE SMOOTH",
"534 0 OFFCURVE",
"636 86 OFFCURVE",
"636 212 CURVE SMOOTH",
"636 330 OFFCURVE",
"546 380 OFFCURVE",
"452 394 CURVE",
"448 350 LINE",
"518 374 OFFCURVE",
"578 450 OFFCURVE",
"578 536 CURVE SMOOTH",
"578 640 OFFCURVE",
"488 720 OFFCURVE",
"328 720 CURVE SMOOTH",
"238 720 LINE",
"238 564 LINE",
"328 564 LINE SMOOTH",
"374 564 OFFCURVE",
"406 544 OFFCURVE",
"406 498 CURVE SMOOTH",
"406 460 OFFCURVE",
"382 430 OFFCURVE",
"340 430 CURVE SMOOTH",
"238 430 LINE",
"238 298 LINE",
"378 298 LINE SMOOTH",
"424 298 OFFCURVE",
"458 272 OFFCURVE",
"458 230 CURVE SMOOTH",
"458 184 OFFCURVE",
"426 156 OFFCURVE",
"384 156 CURVE SMOOTH",
"238 156 LINE",
"238 0 LINE"
);
},
{
closed = 1;
nodes = (
"252 0 LINE",
"252 720 LINE",
"72 720 LINE",
"72 0 LINE"
);
}
);
width = 668;
},
{
anchors = (
{
name = bottom;
position = "{314, 0}";
},
{
name = center;
position = "{140, 208}";
},
{
name = top;
position = "{312, 720}";
}
);
associatedMasterId = "AB099EFE-E788-4EFC-8633-CF147CB782A6";
hints = (
{
horizontal = 1;
origin = "{0, 22}";
type = Delta;
settings = {
deltaV = {
"{100, 370, 0, 0, 0, 0}" = {
"12" = -1;
};
};
};
},
{
horizontal = 1;
origin = "{0, 23}";
type = Delta;
settings = {
deltaV = {
"{100, 370, 0, 0, 0, 0}" = {
"12" = -1;
};
};
};
},
{
horizontal = 1;
origin = "{0, 24}";
type = Delta;
settings = {
deltaV = {
"{100, 370, 0, 0, 0, 0}" = {
"12" = -1;
};
};
};
},
{
horizontal = 1;
origin = "{0, 25}";
type = Delta;
settings = {
deltaV = {
"{100, 370, 0, 0, 0, 0}" = {
"12" = -1;
};
};
};
},
{
horizontal = 1;
origin = "{0, 23, 1, 1}";
type = Delta;
settings = {
deltaV = {
"{100, 370, 0, 0, 0, 0}" = {
"12" = -1;
};
};
};
},
{
horizontal = 1;
origin = "{0, 25, 1, 1}";
type = Delta;
settings = {
deltaV = {
"{100, 370, 0, 0, 0, 0}" = {
"12" = -1;
};
};
};
}
);
layerId = "5AD6DEE3-C1BF-45C1-B31B-12614FF61D47";
name = "{106}";
paths = (
{
closed = 1;
nodes = (
"326 0 LINE SMOOTH",
"474 0 OFFCURVE",
"566 82 OFFCURVE",
"566 200 CURVE SMOOTH",
"566 298 OFFCURVE",
"504 364 OFFCURVE",
"404 390 CURVE",
"404 364 LINE",
"464 384 OFFCURVE",
"516 460 OFFCURVE",
"516 538 CURVE SMOOTH",
"516 644 OFFCURVE",
"422 720 OFFCURVE",
"274 720 CURVE SMOOTH",
"170 720 LINE",
"170 628 LINE",
"280 628 LINE SMOOTH",
"360 628 OFFCURVE",
"412 590 OFFCURVE",
"412 522 CURVE SMOOTH",
"412 458 OFFCURVE",
"364 412 OFFCURVE",
"288 412 CURVE SMOOTH",
"170 412 LINE",
"170 320 LINE",
"318 320 LINE SMOOTH",
"406 320 OFFCURVE",
"462 278 OFFCURVE",
"462 206 CURVE SMOOTH",
"462 136 OFFCURVE",
"412 92 OFFCURVE",
"332 92 CURVE SMOOTH",
"180 92 LINE",
"180 0 LINE"
);
},
{
closed = 1;
nodes = (
"190 0 LINE",
"190 720 LINE",
"86 720 LINE",
"86 0 LINE"
);
}
);
width = 618;
},
{
anchors = (
{
name = bottom;
position = "{308, 0}";
},
{
name = center;
position = "{135, 208}";
},
{
name = top;
position = "{306, 720}";
}
);
associatedMasterId = "AB099EFE-E788-4EFC-8633-CF147CB782A6";
hints = (
{
horizontal = 1;
origin = "{0, 22}";
type = Delta;
settings = {
deltaV = {
"{100, 370, 0, 0, 0, 0}" = {
"12" = -1;
};
};
};
},
{
horizontal = 1;
origin = "{0, 23}";
type = Delta;
settings = {
deltaV = {
"{100, 370, 0, 0, 0, 0}" = {
"12" = -1;
};
};
};
},
{
horizontal = 1;
origin = "{0, 24}";
type = Delta;
settings = {
deltaV = {
"{100, 370, 0, 0, 0, 0}" = {
"12" = -1;
};
};
};
},
{
horizontal = 1;
origin = "{0, 25}";
type = Delta;
settings = {
deltaV = {
"{100, 370, 0, 0, 0, 0}" = {
"12" = -1;
};
};
};
},
{
horizontal = 1;
origin = "{0, 23, 1, 1}";
type = Delta;
settings = {
deltaV = {
"{100, 370, 0, 0, 0, 0}" = {
"12" = -1;
};
};
};
},
{
horizontal = 1;
origin = "{0, 25, 1, 1}";
type = Delta;
settings = {
deltaV = {
"{100, 370, 0, 0, 0, 0}" = {
"12" = -1;
};
};
};
}
);
layerId = "46AE161E-E7E4-4A76-8372-28D8648BDE50";
name = "{88}";
paths = (
{
closed = 1;
nodes = (
"320 0 LINE SMOOTH",
"466 0 OFFCURVE",
"557 81 OFFCURVE",
"558 198 CURVE SMOOTH",
"557 297 OFFCURVE",
"495 363 OFFCURVE",
"394 388 CURVE",
"394 366 LINE",
"455 388 OFFCURVE",
"505 460 OFFCURVE",
"506 538 CURVE SMOOTH",
"505 644 OFFCURVE",
"415 720 OFFCURVE",
"276 720 CURVE SMOOTH",
"156 720 LINE",
"156 644 LINE",
"280 644 LINE SMOOTH",
"363 644 OFFCURVE",
"418 600 OFFCURVE",
"418 526 CURVE SMOOTH",
"418 455 OFFCURVE",
"366 406 OFFCURVE",
"286 406 CURVE SMOOTH",
"156 406 LINE",
"156 330 LINE",
"314 330 LINE SMOOTH",
"410 330 OFFCURVE",
"470 281 OFFCURVE",
"470 204 CURVE SMOOTH",
"470 125 OFFCURVE",
"414 75 OFFCURVE",
"326 76 CURVE SMOOTH",
"168 76 LINE",
"168 0 LINE"
);
},
{
closed = 1;
nodes = (
"176 0 LINE",
"176 720 LINE",
"90 720 LINE",
"90 0 LINE"
);
}
);
width = 612;
}
);
leftKerningGroup = LAT_H_UC;
leftMetricsKey = H;
rightKerningGroup = LAT_B_UC;
unicode = 0042;
},
{
glyphname = C;
lastChange = "2020-06-28 10:38:31 +0000";
layers = (
{
anchors = (
{
name = base;
position = "{424, 0}";
},
{
name = bottom;
position = "{404, 0}";
},
{
name = cedilla;
position = "{404, 0}";
},
{
name = top;
position = "{404, 720}";
}
);
guideLines = (
{
angle = 67.5;
position = "{508, 360}";
},
{
angle = 112.5;
position = "{512, 360}";
}
);
layerId = "AB099EFE-E788-4EFC-8633-CF147CB782A6";
paths = (
{
closed = 1;
nodes = (
"488 -8 OFFCURVE",
"575 24 OFFCURVE",
"630 76 CURVE",
"616 108 LINE",
"572 58 OFFCURVE",
"492 24 OFFCURVE",
"404 22 CURVE SMOOTH",
"236 24 OFFCURVE",
"92 164 OFFCURVE",
"92 360 CURVE SMOOTH",
"92 560 OFFCURVE",
"246 700 OFFCURVE",
"406 698 CURVE SMOOTH",
"484 700 OFFCURVE",
"564 670 OFFCURVE",
"614 620 CURVE",
"628 652 LINE",
"575 696 OFFCURVE",
"494 728 OFFCURVE",
"406 728 CURVE SMOOTH",
"224 728 OFFCURVE",
"60 576 OFFCURVE",
"60 360 CURVE SMOOTH",
"60 148 OFFCURVE",
"218 -8 OFFCURVE",
"402 -8 CURVE SMOOTH"
);
}
);
width = 674;
},
{
anchors = (
{
name = base;
position = "{416, 0}";
},
{
name = bottom;
position = "{410, 0}";
},
{
name = cedilla;
position = "{422, 0}";
},
{
name = top;
position = "{406, 720}";
}
);
layerId = "2D8F7115-C311-411E-929D-56333CF7FFB2";
paths = (
{
closed = 1;
nodes = (
"496 -8 OFFCURVE",
"574 8 OFFCURVE",
"640 46 CURVE",
"572 206 LINE",
"538 170 OFFCURVE",
"476 156 OFFCURVE",
"428 156 CURVE SMOOTH",
"308 156 OFFCURVE",
"210 240 OFFCURVE",
"210 362 CURVE SMOOTH",
"210 482 OFFCURVE",
"308 564 OFFCURVE",
"420 564 CURVE SMOOTH",
"484 564 OFFCURVE",
"538 540 OFFCURVE",
"570 510 CURVE",
"638 670 LINE",
"570 710 OFFCURVE",
"492 728 OFFCURVE",
"420 728 CURVE SMOOTH",
"206 728 OFFCURVE",
"28 572 OFFCURVE",
"28 360 CURVE SMOOTH",
"28 148 OFFCURVE",
"208 -8 OFFCURVE",
"426 -8 CURVE SMOOTH"
);
}
);
width = 672;
},
{
anchors = (
{
name = base;
position = "{420, 0}";
},
{
name = bottom;
position = "{404, 0}";
},
{
name = cedilla;
position = "{410, 0}";
},
{
name = top;
position = "{404, 720}";
}
);
associatedMasterId = "AB099EFE-E788-4EFC-8633-CF147CB782A6";
guideLines = (
{
angle = 67.5;
position = "{510, 360}";
},
{
angle = 112.5;
position = "{514, 360}";
}
);
layerId = "902DFDB2-63EE-445A-9A4F-8706B9CE2395";
name = "{88}";
paths = (
{
closed = 1;
nodes = (
"492 -8 OFFCURVE",
"576 19 OFFCURVE",
"634 66 CURVE",
"602 144 LINE",
"559 100 OFFCURVE",
"486 72 OFFCURVE",
"414 72 CURVE SMOOTH",
"261 72 OFFCURVE",
"135 197 OFFCURVE",
"136 362 CURVE SMOOTH",
"135 531 OFFCURVE",
"271 649 OFFCURVE",
"414 648 CURVE SMOOTH",
"483 649 OFFCURVE",
"556 623 OFFCURVE",
"600 582 CURVE",
"632 660 LINE",
"573 701 OFFCURVE",
"494 728 OFFCURVE",
"412 728 CURVE SMOOTH",
"218 728 OFFCURVE",
"47 576 OFFCURVE",
"48 360 CURVE SMOOTH",
"48 148 OFFCURVE",
"214 -8 OFFCURVE",
"410 -8 CURVE SMOOTH"
);
}
);
width = 672;
}
);
leftKerningGroup = LAT_O_UC;
leftMetricsKey = O;
rightKerningGroup = LAT_C_UC;
unicode = 0043;
},
{
glyphname = D;
lastChange = "2020-06-28 03:07:03 +0000";
layers = (
{
anchors = (
{
name = bottom;
position = "{344, 0}";
},
{
name = center;
position = "{114, 370}";
},
{
name = top;
position = "{342, 720}";
}
);
layerId = "AB099EFE-E788-4EFC-8633-CF147CB782A6";
paths = (
{
closed = 1;
nodes = (
"100 0 LINE",
"322 0 LINE SMOOTH",
"520 0 OFFCURVE",
"636 154 OFFCURVE",
"634 368 CURVE SMOOTH",
"636 570 OFFCURVE",
"520 720 OFFCURVE",
"322 720 CURVE SMOOTH",
"100 720 LINE"
);
},
{
closed = 1;
nodes = (
"132 30 LINE",
"132 690 LINE",
"318 690 LINE SMOOTH",
"500 690 OFFCURVE",
"602 548 OFFCURVE",
"602 368 CURVE SMOOTH",
"602 178 OFFCURVE",
"500 30 OFFCURVE",
"318 30 CURVE SMOOTH"
);
}
);
width = 694;
},
{
anchors = (
{
name = bottom;
position = "{344, 0}";
},
{
name = center;
position = "{168, 360}";
},
{
name = top;
position = "{346, 720}";
}
);
layerId = "2D8F7115-C311-411E-929D-56333CF7FFB2";
paths = (
{
closed = 1;
nodes = (
"72 0 LINE",
"336 0 LINE SMOOTH",
"506 0 OFFCURVE",
"694 116 OFFCURVE",
"694 364 CURVE SMOOTH",
"694 610 OFFCURVE",
"506 720 OFFCURVE",
"322 720 CURVE SMOOTH",
"72 720 LINE"
);
},
{
closed = 1;
nodes = (
"252 160 LINE",
"252 560 LINE",
"342 560 LINE SMOOTH",
"402 560 OFFCURVE",
"514 518 OFFCURVE",
"514 364 CURVE SMOOTH",
"514 208 OFFCURVE",
"402 160 OFFCURVE",
"342 160 CURVE SMOOTH"
);
}
);
width = 722;
},
{
anchors = (
{
name = bottom;
position = "{344, 0}";
},
{
name = center;
position = "{134, 366}";
},
{
name = top;
position = "{344, 720}";
}
);
associatedMasterId = "AB099EFE-E788-4EFC-8633-CF147CB782A6";
layerId = "69F3414A-C527-4678-8850-EC48B63F9165";
name = "{88}";
paths = (
{
closed = 1;
nodes = (
"90 0 LINE",
"328 0 LINE SMOOTH",
"515 0 OFFCURVE",
"658 140 OFFCURVE",
"658 366 CURVE SMOOTH",
"658 585 OFFCURVE",
"515 720 OFFCURVE",
"322 720 CURVE SMOOTH",
"90 720 LINE"
);
},
{
closed = 1;
nodes = (
"178 80 LINE",
"178 640 LINE",
"328 640 LINE SMOOTH",
"463 639 OFFCURVE",
"569 537 OFFCURVE",
"570 366 CURVE SMOOTH",
"569 189 OFFCURVE",
"463 80 OFFCURVE",
"328 80 CURVE SMOOTH"
);
}
);
width = 706;
}
);
leftKerningGroup = LAT_H_UC;
leftMetricsKey = H;
rightKerningGroup = LAT_O_UC;
rightMetricsKey = O;
unicode = 0044;
},
{
glyphname = E;
lastChange = "2020-06-28 13:14:37 +0000";
layers = (
{
anchors = (
{
name = bottom;
position = "{292, 0}";
},
{
name = cedilla;
position = "{286, 0}";
},
{
name = ogonek;
position = "{472, 0}";
},
{
name = top;
position = "{286, 720}";
},
{
name = topleft;
position = "{20, 720}";
}
);
hints = (
{
horizontal = 1;
origin = "{0, 0}";
target = "{0, 3}";
type = TTStem;
options = 4;
},
{
horizontal = 1;
origin = "{0, 4}";
target = "{0, 7}";
type = TTStem;
options = 1;
},
{
horizontal = 1;
origin = "{0, 11}";
target = "{0, 8}";
type = TTStem;
options = 4;
},
{
horizontal = 1;
origin = "{0, 5}";
type = Anchor;
options = 1;
},
{
horizontal = 1;
origin = "{0, 4}";
type = Anchor;
options = 1;
},
{
horizontal = 1;
origin = "{0, 5}";
type = Anchor;
options = 1;
},
{
horizontal = 1;
origin = "{0, 6}";
type = Anchor;
options = 1;
},
{
horizontal = 1;
origin = "{0, 7}";
type = Anchor;
options = 1;
}
);
layerId = "AB099EFE-E788-4EFC-8633-CF147CB782A6";
paths = (
{
closed = 1;
nodes = (
"100 0 LINE",
"472 0 LINE",
"472 30 LINE",
"132 30 LINE",
"132 354 LINE",
"424 354 LINE",
"424 384 LINE",
"132 384 LINE",
"132 690 LINE",
"472 690 LINE",
"472 720 LINE",
"100 720 LINE"
);
}
);
width = 540;
},
{
anchors = (
{
name = bottom;
position = "{294, 0}";
},
{
name = cedilla;
position = "{292, 0}";
},
{
name = ogonek;
position = "{498, 0}";
},
{
name = top;
position = "{292, 720}";
},
{
name = topleft;
position = "{20, 720}";
}
);
hints = (
{
horizontal = 1;
origin = "{0, 0}";
target = "{0, 3}";
type = TTStem;
options = 4;
},
{
horizontal = 1;
origin = "{0, 4}";
target = "{0, 7}";
type = TTStem;
options = 1;
},
{
horizontal = 1;
origin = "{0, 11}";
target = "{0, 8}";
type = TTStem;
options = 4;
},
{
horizontal = 1;
origin = "{0, 5}";
type = Anchor;
options = 1;
},
{
horizontal = 1;
origin = "{0, 4}";
type = Anchor;
options = 1;
},
{
horizontal = 1;
origin = "{0, 5}";
type = Anchor;
options = 1;
},
{
horizontal = 1;
origin = "{0, 6}";
type = Anchor;
options = 1;
},
{
horizontal = 1;
origin = "{0, 7}";
type = Anchor;
options = 1;
}
);
layerId = "2D8F7115-C311-411E-929D-56333CF7FFB2";
paths = (
{
closed = 1;
nodes = (
"72 0 LINE",
"500 0 LINE",
"500 160 LINE",
"252 160 LINE",
"252 286 LINE",
"456 286 LINE",
"456 440 LINE",
"252 440 LINE",
"252 560 LINE",
"500 560 LINE",
"500 720 LINE",
"72 720 LINE"
);
}
);
width = 552;
},
{
anchors = (
{
name = bottom;
position = "{293, 0}";
},
{
name = cedilla;
position = "{288, 0}";
},
{
name = ogonek;
position = "{482, 0}";
},
{
name = top;
position = "{288, 720}";
},
{
name = topleft;
position = "{20, 720}";
}
);
associatedMasterId = "AB099EFE-E788-4EFC-8633-CF147CB782A6";
hints = (
{
horizontal = 1;
origin = "{0, 0}";
target = "{0, 3}";
type = TTStem;
options = 4;
},
{
horizontal = 1;
origin = "{0, 4}";
target = "{0, 7}";
type = TTStem;
options = 1;
},
{
horizontal = 1;
origin = "{0, 11}";
target = "{0, 8}";
type = TTStem;
options = 4;
},
{
horizontal = 1;
origin = "{0, 5}";
type = Anchor;
options = 1;
},
{
horizontal = 1;
origin = "{0, 4}";
type = Anchor;
options = 1;
},
{
horizontal = 1;
origin = "{0, 5}";
type = Anchor;
options = 1;
},
{
horizontal = 1;
origin = "{0, 6}";
type = Anchor;
options = 1;
},
{
horizontal = 1;
origin = "{0, 7}";
type = Anchor;
options = 1;
}
);
layerId = "BC87528E-7981-4E13-BBAC-5EDCF2AA5125";
name = "{88}";
paths = (
{
closed = 1;
nodes = (
"90 0 LINE",
"484 0 LINE",
"484 80 LINE",
"178 80 LINE",
"178 326 LINE",
"436 326 LINE",
"436 406 LINE",
"178 406 LINE",
"178 640 LINE",
"484 640 LINE",
"484 720 LINE",
"90 720 LINE"
);
}
);
width = 546;
}
);
leftKerningGroup = LAT_H_UC;
leftMetricsKey = H;
rightKerningGroup = LAT_E_UC;
unicode = 0045;
},
{
glyphname = F;
lastChange = "2020-06-28 13:14:23 +0000";
layers = (
{
anchors = (
{
name = bottom;
position = "{116, 0}";
},
{
name = center;
position = "{116, 184}";
},
{
name = top;
position = "{296, 720}";
}
);
layerId = "AB099EFE-E788-4EFC-8633-CF147CB782A6";
paths = (
{
closed = 1;
nodes = (
"100 0 LINE",
"132 0 LINE",
"132 354 LINE",
"420 354 LINE",
"420 384 LINE",
"132 384 LINE",
"132 690 LINE",
"460 690 LINE",
"460 720 LINE",
"100 720 LINE"
);
}
);
width = 500;
},
{
anchors = (
{
name = bottom;
position = "{162, 0}";
},
{
name = center;
position = "{162, 142}";
},
{
name = top;
position = "{316, 720}";
}
);
layerId = "2D8F7115-C311-411E-929D-56333CF7FFB2";
paths = (
{
closed = 1;
nodes = (
"72 0 LINE",
"252 0 LINE",
"252 256 LINE",
"456 256 LINE",
"456 416 LINE",
"252 416 LINE",
"252 560 LINE",
"500 560 LINE",
"500 720 LINE",
"72 720 LINE"
);
}
);
width = 532;
},
{
anchors = (
{
name = bottom;
position = "{133, 0}";
},
{
name = center;
position = "{133, 168}";
},
{
name = top;
position = "{304, 720}";
}
);
associatedMasterId = "AB099EFE-E788-4EFC-8633-CF147CB782A6";
layerId = "B7438167-CA9F-4AD9-8BE6-EC339DB37552";
name = "{88}";
paths = (
{
closed = 1;
nodes = (
"90 0 LINE",
"178 0 LINE",
"178 316 LINE",
"434 316 LINE",
"434 396 LINE",
"178 396 LINE",
"178 640 LINE",
"476 640 LINE",
"476 720 LINE",
"90 720 LINE"
);
}
);
width = 512;
}
);
leftKerningGroup = LAT_H_UC;
leftMetricsKey = H;
rightKerningGroup = LAT_F_UC;
unicode = 0046;
},
{
glyphname = G;
lastChange = "2020-06-29 04:43:25 +0000";
layers = (
{
anchors = (
{
name = bottom;
position = "{386, 0}";
},
{
name = hook;
position = "{628, 652}";
},
{
name = top;
position = "{386, 720}";
}
);
layerId = "AB099EFE-E788-4EFC-8633-CF147CB782A6";
paths = (
{
closed = 1;
nodes = (
"582 -8 OFFCURVE",
"696 132 OFFCURVE",
"696 344 CURVE SMOOTH",
"696 370 LINE",
"376 370 LINE",
"376 340 LINE",
"664 340 LINE",
"664 166 OFFCURVE",
"574 20 OFFCURVE",
"400 20 CURVE SMOOTH",
"230 20 OFFCURVE",
"92 160 OFFCURVE",
"92 360 CURVE SMOOTH",
"92 552 OFFCURVE",
"222 698 OFFCURVE",
"404 698 CURVE SMOOTH",
"486 698 OFFCURVE",
"564 670 OFFCURVE",
"614 620 CURVE",
"628 652 LINE",
"580 692 OFFCURVE",
"500 728 OFFCURVE",
"402 728 CURVE SMOOTH",
"200 728 OFFCURVE",
"60 570 OFFCURVE",
"60 360 CURVE SMOOTH",
"60 142 OFFCURVE",
"212 -8 OFFCURVE",
"400 -8 CURVE SMOOTH"
);
}
);
width = 756;
},
{
anchors = (
{
name = bottom;
position = "{398, 0}";
},
{
name = hook;
position = "{640, 670}";
},
{
name = top;
position = "{398, 720}";
}
);
layerId = "2D8F7115-C311-411E-929D-56333CF7FFB2";
paths = (
{
closed = 1;
nodes = (
"608 -8 OFFCURVE",
"740 120 OFFCURVE",
"740 292 CURVE SMOOTH",
"740 424 LINE",
"388 422 LINE",
"388 274 LINE",
"572 274 LINE",
"572 202 OFFCURVE",
"500 152 OFFCURVE",
"412 152 CURVE SMOOTH",
"290 152 OFFCURVE",
"212 242 OFFCURVE",
"212 360 CURVE SMOOTH",
"212 486 OFFCURVE",
"300 564 OFFCURVE",
"420 564 CURVE SMOOTH",
"484 564 OFFCURVE",
"538 540 OFFCURVE",
"570 510 CURVE",
"638 670 LINE",
"570 710 OFFCURVE",
"492 728 OFFCURVE",
"418 728 CURVE SMOOTH",
"208 728 OFFCURVE",
"28 580 OFFCURVE",
"28 356 CURVE SMOOTH",
"28 148 OFFCURVE",
"186 -8 OFFCURVE",
"408 -8 CURVE SMOOTH"
);
}
);
width = 772;
},
{
anchors = (
{
name = bottom;
position = "{394, 0}";
},
{
name = hook;
position = "{632, 660}";
},
{
name = top;
position = "{386, 720}";
}
);
associatedMasterId = "AB099EFE-E788-4EFC-8633-CF147CB782A6";
layerId = "CAE06344-F22A-4531-9FD8-C303921C266F";
name = "{88}";
paths = (
{
closed = 1;
nodes = (
"587 -8 OFFCURVE",
"707 133 OFFCURVE",
"708 328 CURVE SMOOTH",
"708 392 LINE",
"376 392 LINE",
"376 312 LINE",
"620 312 LINE",
"619 179 OFFCURVE",
"538 71 OFFCURVE",
"398 72 CURVE SMOOTH",
"249 71 OFFCURVE",
"135 189 OFFCURVE",
"136 362 CURVE SMOOTH",
"135 528 OFFCURVE",
"245 648 OFFCURVE",
"404 648 CURVE SMOOTH",
"483 648 OFFCURVE",
"555 620 OFFCURVE",
"598 578 CURVE",
"632 660 LINE",
"574 700 OFFCURVE",
"496 728 OFFCURVE",
"404 728 CURVE SMOOTH",
"193 728 OFFCURVE",
"47 572 OFFCURVE",
"48 360 CURVE SMOOTH",
"47 142 OFFCURVE",
"200 -8 OFFCURVE",
"398 -8 CURVE SMOOTH"
);
}
);
width = 752;
}
);
leftKerningGroup = LAT_O_UC;
leftMetricsKey = O;
rightKerningGroup = LAT_G_UC;
unicode = 0047;
},
{
glyphname = H;
lastChange = "2020-06-30 03:40:47 +0000";
layers = (
{
anchors = (
{
name = bottom;
position = "{350, 0}";
},
{
name = center;
position = "{350, 530}";
},
{
name = top;
position = "{350, 720}";
}
);
layerId = "AB099EFE-E788-4EFC-8633-CF147CB782A6";
paths = (
{
closed = 1;
nodes = (
"100 0 LINE",
"132 0 LINE",
"132 354 LINE",
"566 354 LINE",
"566 0 LINE",
"598 0 LINE",
"598 720 LINE",
"566 720 LINE",
"566 384 LINE",
"132 384 LINE",
"132 720 LINE",
"100 720 LINE"
);
}
);
width = 698;
},
{
anchors = (
{
name = bottom;
position = "{363, 0}";
},
{
name = center;
position = "{363, 548}";
},
{
name = top;
position = "{363, 720}";
}
);
associatedMasterId = "AB099EFE-E788-4EFC-8633-CF147CB782A6";
layerId = "8BF37DDA-56C3-4E70-8EA0-0B42FD4B4662";
name = "{88}";
paths = (
{
closed = 1;
nodes = (
"90 0 LINE",
"178 0 LINE",
"178 328 LINE",
"548 328 LINE",
"548 0 LINE",
"636 0 LINE",
"636 720 LINE",
"548 720 LINE",
"548 408 LINE",
"178 408 LINE",
"178 720 LINE",
"90 720 LINE"
);
}
);
width = 726;
},
{
anchors = (
{
name = bottom;
position = "{384, 0}";
},
{
name = center;
position = "{384, 578}";
},
{
name = top;
position = "{384, 720}";
}
);
layerId = "2D8F7115-C311-411E-929D-56333CF7FFB2";
paths = (
{
closed = 1;
nodes = (
"72 0 LINE",
"252 0 LINE",
"252 282 LINE",
"516 282 LINE",
"516 0 LINE",
"696 0 LINE",
"696 720 LINE",
"516 720 LINE",
"516 442 LINE",
"252 442 LINE",
"252 720 LINE",
"72 720 LINE"
);
}
);
width = 768;
}
);
leftKerningGroup = LAT_H_UC;
rightKerningGroup = LAT_H_UC;
unicode = 0048;
},
{
glyphname = I;
lastChange = "2020-06-28 03:09:07 +0000";
layers = (
{
anchors = (
{
name = bottom;
position = "{120, 0}";
},
{
name = ogonek;
position = "{136, 0}";
},
{
name = top;
position = "{120, 720}";
}
);
layerId = "AB099EFE-E788-4EFC-8633-CF147CB782A6";
paths = (
{
closed = 1;
nodes = (
"104 0 LINE",
"136 0 LINE",
"136 720 LINE",
"104 720 LINE"
);
}
);
width = 240;
},
{
anchors = (
{
name = bottom;
position = "{174, 0}";
},
{
name = ogonek;
position = "{264, 0}";
},
{
name = top;
position = "{174, 720}";
}
);
layerId = "2D8F7115-C311-411E-929D-56333CF7FFB2";
paths = (
{
closed = 1;
nodes = (
"84 0 LINE",
"264 0 LINE",
"264 720 LINE",
"84 720 LINE"
);
}
);
width = 348;
},
{
anchors = (
{
name = bottom;
position = "{140, 0}";
},
{
name = ogonek;
position = "{184, 0}";
},
{
name = top;
position = "{140, 720}";
}
);
associatedMasterId = "AB099EFE-E788-4EFC-8633-CF147CB782A6";
layerId = "787C6819-84DE-4901-BB7C-BD7BC4C39BB5";
name = "{88}";
paths = (
{
closed = 1;
nodes = (
"96 0 LINE",
"184 0 LINE",
"184 720 LINE",
"96 720 LINE"
);
}
);
width = 280;
}
);
leftKerningGroup = LAT_H_UC;
rightKerningGroup = LAT_H_UC;
unicode = 0049;
},
{
color = 10;
glyphname = I.ss04;
lastChange = "2020-06-28 03:09:56 +0000";
layers = (
{
anchors = (
{
name = bottom;
position = "{184, 0}";
},
{
name = ogonek;
position = "{288, 0}";
},
{
name = top;
position = "{184, 720}";
}
);
layerId = "AB099EFE-E788-4EFC-8633-CF147CB782A6";
paths = (
{
closed = 1;
nodes = (
"168 0 LINE",
"200 0 LINE",
"200 720 LINE",
"168 720 LINE"
);
},
{
closed = 1;
nodes = (
"80 690 LINE",
"288 690 LINE",
"288 720 LINE",
"80 720 LINE"
);
},
{
closed = 1;
nodes = (
"80 0 LINE",
"288 0 LINE",
"288 30 LINE",
"80 30 LINE"
);
}
);
width = 368;
},
{
anchors = (
{
name = bottom;
position = "{244, 0}";
},
{
name = ogonek;
position = "{428, 0}";
},
{
name = top;
position = "{244, 720}";
}
);
layerId = "2D8F7115-C311-411E-929D-56333CF7FFB2";
paths = (
{
closed = 1;
nodes = (
"154 0 LINE",
"334 0 LINE",
"334 720 LINE",
"154 720 LINE"
);
},
{
closed = 1;
nodes = (
"60 564 LINE",
"428 564 LINE",
"428 720 LINE",
"60 720 LINE"
);
},
{
closed = 1;
nodes = (
"60 0 LINE",
"428 0 LINE",
"428 156 LINE",
"60 156 LINE"
);
}
);
width = 488;
},
{
anchors = (
{
name = bottom;
position = "{208, 0}";
},
{
name = ogonek;
position = "{344, 0}";
},
{
name = top;
position = "{208, 720}";
}
);
associatedMasterId = "AB099EFE-E788-4EFC-8633-CF147CB782A6";
layerId = "FEF13201-9ED5-42CC-B3FA-7E72E5D546A3";
name = "{88}";
paths = (
{
closed = 1;
nodes = (
"164 0 LINE",
"252 0 LINE",
"252 720 LINE",
"164 720 LINE"
);
},
{
closed = 1;
nodes = (
"72 642 LINE",
"344 642 LINE",
"344 720 LINE",
"72 720 LINE"
);
},
{
closed = 1;
nodes = (
"72 0 LINE",
"344 0 LINE",
"344 78 LINE",
"72 78 LINE"
);
}
);
width = 416;
}
);
leftKerningGroup = LAT_ISS03_UC;
rightKerningGroup = LAT_ISS03_UC;
},
{
glyphname = J;
lastChange = "2020-06-30 03:51:11 +0000";
layers = (
{
anchors = (
{
name = bottom;
position = "{212, 0}";
},
{
name = top;
position = "{336, 720}";
}
);
layerId = "AB099EFE-E788-4EFC-8633-CF147CB782A6";
paths = (
{
closed = 1;
nodes = (
"326 76 OFFCURVE",
"264 24 OFFCURVE",
"186 22 CURVE SMOOTH",
"108 24 OFFCURVE",
"56 82 OFFCURVE",
"56 170 CURVE",
"24 170 LINE",
"26 66 OFFCURVE",
"90 -8 OFFCURVE",
"188 -8 CURVE SMOOTH",
"284 -8 OFFCURVE",
"358 60 OFFCURVE",
"358 212 CURVE SMOOTH",
"358 720 LINE",
"326 720 LINE",
"326 210 LINE SMOOTH"
);
}
);
width = 458;
},
{
anchors = (
{
name = bottom;
position = "{280, 0}";
},
{
name = top;
position = "{396, 720}";
}
);
layerId = "2D8F7115-C311-411E-929D-56333CF7FFB2";
paths = (
{
closed = 1;
nodes = (
"310 182 OFFCURVE",
"284 152 OFFCURVE",
"246 152 CURVE SMOOTH",
"206 152 OFFCURVE",
"180 186 OFFCURVE",
"180 242 CURVE",
"12 242 LINE",
"12 90 OFFCURVE",
"104 -8 OFFCURVE",
"250 -8 CURVE SMOOTH",
"396 -8 OFFCURVE",
"490 84 OFFCURVE",
"490 228 CURVE SMOOTH",
"490 720 LINE",
"310 720 LINE",
"310 226 LINE SMOOTH"
);
}
);
width = 562;
},
{
anchors = (
{
name = bottom;
position = "{228, 0}";
},
{
name = top;
position = "{359, 720}";
}
);
associatedMasterId = "AB099EFE-E788-4EFC-8633-CF147CB782A6";
layerId = "AFF542C5-1D80-4C96-ADAF-4F1285FD1578";
name = "{88}";
paths = (
{
closed = 1;
nodes = (
"320 116 OFFCURVE",
"272 72 OFFCURVE",
"210 72 CURVE SMOOTH",
"145 72 OFFCURVE",
"103 121 OFFCURVE",
"104 198 CURVE",
"20 198 LINE",
"21 75 OFFCURVE",
"95 -8 OFFCURVE",
"212 -8 CURVE SMOOTH",
"326 -8 OFFCURVE",
"408 69 OFFCURVE",
"408 218 CURVE SMOOTH",
"408 720 LINE",
"320 720 LINE",
"320 216 LINE SMOOTH"
);
}
);
width = 498;
}
);
leftKerningGroup = LAT_J_UC;
rightKerningGroup = LAT_U_UC;
rightMetricsKey = H;
unicode = 004A;
},
{
glyphname = K;
lastChange = "2020-06-28 03:11:26 +0000";
layers = (
{
anchors = (
{
name = bottom;
position = "{308, 0}";
},
{
name = top;
position = "{308, 720}";
}
);
layerId = "AB099EFE-E788-4EFC-8633-CF147CB782A6";
paths = (
{
closed = 1;
nodes = (
"132 0 LINE",
"132 346 LINE",
"148 346 LINE",
"130 358 LINE",
"512 0 LINE",
"556 0 LINE",
"160 372 LINE",
"160 350 LINE",
"530 720 LINE",
"486 720 LINE",
"130 362 LINE",
"148 374 LINE",
"132 374 LINE",
"132 720 LINE",
"100 720 LINE",
"100 0 LINE"
);
}
);
width = 592;
},
{
anchors = (
{
name = bottom;
position = "{364, 0}";
},
{
name = top;
position = "{346, 720}";
}
);
guideLines = (
{
angle = 120;
position = "{644, 0}";
}
);
layerId = "2D8F7115-C311-411E-929D-56333CF7FFB2";
paths = (
{
closed = 1;
nodes = (
"252 0 LINE",
"252 312 LINE",
"294 312 LINE",
"236 338 LINE",
"488 0 LINE",
"702 0 LINE",
"390 414 LINE",
"390 316 LINE",
"694 720 LINE",
"478 720 LINE",
"236 378 LINE",
"294 404 LINE",
"252 404 LINE",
"252 720 LINE",
"72 720 LINE",
"72 0 LINE"
);
}
);
width = 710;
},
{
anchors = (
{
name = bottom;
position = "{330, 0}";
},
{
name = top;
position = "{322, 720}";
}
);
associatedMasterId = "AB099EFE-E788-4EFC-8633-CF147CB782A6";
layerId = "A0D9A2DE-A6AD-4B49-A9A4-BFE069F1957D";
name = "{88}";
paths = (
{
closed = 1;
nodes = (
"178 0 LINE",
"178 334 LINE",
"204 334 LINE",
"168 350 LINE",
"502 0 LINE",
"612 0 LINE",
"248 382 LINE",
"248 338 LINE",
"592 720 LINE",
"484 720 LINE",
"168 368 LINE",
"204 386 LINE",
"178 386 LINE",
"178 720 LINE",
"90 720 LINE",
"90 0 LINE"
);
}
);
width = 638;
}
);
leftKerningGroup = LAT_H_UC;
leftMetricsKey = H;
rightKerningGroup = LAT_K_UC;
unicode = 004B;
},
{
glyphname = L;
lastChange = "2020-06-28 03:12:04 +0000";
layers = (
{
anchors = (
{
name = bottom;
position = "{292, 0}";
},
{
name = center;
position = "{116, 360}";
},
{
name = dot;
position = "{374, 360}";
},
{
name = top;
position = "{116, 720}";
},
{
name = topright;
position = "{376, 720}";
}
);
layerId = "AB099EFE-E788-4EFC-8633-CF147CB782A6";
paths = (
{
closed = 1;
nodes = (
"100 0 LINE",
"470 0 LINE",
"470 30 LINE",
"132 30 LINE",
"132 720 LINE",
"100 720 LINE"
);
}
);
width = 496;
},
{
anchors = (
{
name = bottom;
position = "{290, 0}";
},
{
name = center;
position = "{160, 370}";
},
{
name = dot;
position = "{428, 370}";
},
{
name = top;
position = "{166, 720}";
},
{
name = topright;
position = "{318, 720}";
}
);
layerId = "2D8F7115-C311-411E-929D-56333CF7FFB2";
paths = (
{
closed = 1;
nodes = (
"72 0 LINE",
"498 0 LINE",
"498 160 LINE",
"252 160 LINE",
"252 720 LINE",
"72 720 LINE"
);
}
);
width = 514;
},
{
anchors = (
{
name = bottom;
position = "{291, 0}";
},
{
name = center;
position = "{134, 364}";
},
{
name = dot;
position = "{394, 364}";
},
{
name = top;
position = "{134, 720}";
},
{
name = topright;
position = "{354, 720}";
}
);
associatedMasterId = "AB099EFE-E788-4EFC-8633-CF147CB782A6";
layerId = "71172311-3D93-4B68-A2BD-CBF00078A740";
name = "{88}";
paths = (
{
closed = 1;
nodes = (
"90 0 LINE",
"482 0 LINE",
"482 80 LINE",
"178 80 LINE",
"178 720 LINE",
"90 720 LINE"
);
}
);
width = 504;
}
);
leftKerningGroup = LAT_H_UC;
leftMetricsKey = H;
rightKerningGroup = LAT_L_UC;
unicode = 004C;
},
{
glyphname = M;
lastChange = "2020-06-28 03:13:02 +0000";
layers = (
{
anchors = (
{
name = bottom;
position = "{392, 0}";
},
{
name = top;
position = "{392, 720}";
}
);
layerId = "AB099EFE-E788-4EFC-8633-CF147CB782A6";
paths = (
{
closed = 1;
nodes = (
"100 0 LINE",
"132 0 LINE",
"132 522 LINE",
"132 658 LINE",
"136 658 LINE",
"382 134 LINE",
"402 134 LINE",
"648 658 LINE",
"652 658 LINE",
"652 522 LINE",
"652 0 LINE",
"684 0 LINE",
"684 720 LINE",
"644 720 LINE",
"396 188 LINE",
"390 188 LINE",
"140 720 LINE",
"100 720 LINE"
);
}
);
width = 784;
},
{
anchors = (
{
name = bottom;
position = "{452, 0}";
},
{
name = top;
position = "{452, 720}";
}
);
layerId = "2D8F7115-C311-411E-929D-56333CF7FFB2";
paths = (
{
closed = 1;
nodes = (
"72 0 LINE",
"252 0 LINE",
"252 196 LINE",
"248 398 LINE",
"252 398 LINE",
"436 150 LINE",
"468 150 LINE",
"654 398 LINE",
"658 398 LINE",
"652 196 LINE",
"652 0 LINE",
"834 0 LINE",
"834 720 LINE",
"702 720 LINE",
"454 400 LINE",
"450 400 LINE",
"202 720 LINE",
"72 720 LINE"
);
}
);
width = 906;
},
{
anchors = (
{
name = bottom;
position = "{414, 0}";
},
{
name = top;
position = "{414, 720}";
}
);
associatedMasterId = "AB099EFE-E788-4EFC-8633-CF147CB782A6";
layerId = "86B9C816-2A2A-4777-96B5-5E7AB1C7640E";
name = "{88}";
paths = (
{
closed = 1;
nodes = (
"90 0 LINE",
"176 0 LINE",
"176 394 LINE",
"174 536 LINE",
"178 536 LINE",
"398 140 LINE",
"430 140 LINE",
"650 536 LINE",
"654 536 LINE",
"652 394 LINE",
"652 0 LINE",
"738 0 LINE",
"738 720 LINE",
"666 720 LINE",
"416 272 LINE",
"412 272 LINE",
"162 720 LINE",
"90 720 LINE"
);
}
);
width = 828;
}
);
leftKerningGroup = LAT_H_UC;
leftMetricsKey = H;
rightKerningGroup = LAT_H_UC;
rightMetricsKey = H;
unicode = 004D;
},
{
glyphname = N;
lastChange = "2020-06-28 03:14:19 +0000";
layers = (
{
anchors = (
{
name = bottom;
position = "{344, 0}";
},
{
name = leghookright;
position = "{586, 0}";
},
{
name = top;
position = "{352, 720}";
}
);
layerId = "AB099EFE-E788-4EFC-8633-CF147CB782A6";
paths = (
{
closed = 1;
nodes = (
"100 0 LINE",
"132 0 LINE",
"132 472 LINE",
"132 660 LINE",
"136 660 LINE",
"224 528 LINE",
"572 0 LINE",
"602 0 LINE",
"602 720 LINE",
"570 720 LINE",
"570 252 LINE",
"570 58 LINE",
"566 58 LINE",
"480 190 LINE",
"130 720 LINE",
"100 720 LINE"
);
}
);
width = 702;
},
{
anchors = (
{
name = bottom;
position = "{390, 0}";
},
{
name = leghookright;
position = "{626, 0}";
},
{
name = top;
position = "{392, 720}";
}
);
layerId = "2D8F7115-C311-411E-929D-56333CF7FFB2";
paths = (
{
closed = 1;
nodes = (
"72 0 LINE",
"252 0 LINE",
"252 254 LINE",
"248 414 LINE",
"252 414 LINE",
"298 348 LINE",
"580 0 LINE",
"712 0 LINE",
"712 720 LINE",
"530 720 LINE",
"530 466 LINE",
"534 316 LINE",
"530 316 LINE",
"484 380 LINE",
"202 720 LINE",
"72 720 LINE"
);
}
);
width = 784;
},
{
anchors = (
{
name = bottom;
position = "{368, 0}";
},
{
name = leghookright;
position = "{606, 0}";
},
{
name = top;
position = "{372, 720}";
}
);
associatedMasterId = "AB099EFE-E788-4EFC-8633-CF147CB782A6";
background = {
paths = (
{
closed = 1;
nodes = (
"548 190 LINE",
"64 874 LINE",
"86 720 LINE",
"86 0 LINE",
"190 0 LINE",
"190 536 LINE",
"676 -146 LINE",
"652 -2 LINE",
"652 720 LINE",
"548 720 LINE"
);
}
);
};
layerId = "94E0382F-BC24-4C69-AAF8-052F59CB1787";
name = "{106}";
paths = (
{
closed = 1;
nodes = (
"86 0 LINE",
"190 0 LINE",
"190 352 LINE",
"190 524 LINE",
"194 524 LINE",
"258 438 LINE",
"582 0 LINE",
"658 0 LINE",
"658 720 LINE",
"554 720 LINE",
"554 372 LINE",
"554 196 LINE",
"550 196 LINE",
"486 284 LINE",
"162 720 LINE",
"86 720 LINE"
);
}
);
width = 744;
},
{
anchors = (
{
name = bottom;
position = "{368, 0}";
},
{
name = leghookright;
position = "{604, 0}";
},
{
name = top;
position = "{368, 720}";
}
);
associatedMasterId = "AB099EFE-E788-4EFC-8633-CF147CB782A6";
layerId = "83D44B34-9626-46EA-B10D-BE62614EBD02";
name = "{88}";
paths = (
{
closed = 1;
nodes = (
"90 0 LINE",
"178 0 LINE",
"178 382 LINE",
"176 556 LINE",
"180 556 LINE",
"250 460 LINE",
"582 0 LINE",
"646 0 LINE",
"646 720 LINE",
"558 720 LINE",
"558 344 LINE",
"560 164 LINE",
"556 164 LINE",
"488 262 LINE",
"154 720 LINE",
"90 720 LINE"
);
}
);
width = 736;
}
);
leftKerningGroup = LAT_H_UC;
leftMetricsKey = H;
rightKerningGroup = LAT_H_UC;
rightMetricsKey = H;
unicode = 004E;
},
{
glyphname = O;
lastChange = "2020-06-29 12:07:22 +0000";
layers = (
{
anchors = (
{
name = bottom;
position = "{400, 0}";
},
{
name = center;
position = "{402, 360}";
},
{
name = horn;
position = "{560, 688}";
},
{
name = ogonek;
position = "{466, 0}";
},
{
name = top;
position = "{400, 720}";
},
{
name = topleft;
position = "{38, 720}";
},
{
name = topright;
position = "{766, 720}";
}
);
layerId = "AB099EFE-E788-4EFC-8633-CF147CB782A6";
paths = (
{
closed = 1;
nodes = (
"596 -8 OFFCURVE",
"744 150 OFFCURVE",
"744 360 CURVE SMOOTH",
"744 570 OFFCURVE",
"596 728 OFFCURVE",
"400 728 CURVE SMOOTH",
"208 728 OFFCURVE",
"60 570 OFFCURVE",
"60 360 CURVE SMOOTH",
"60 150 OFFCURVE",
"208 -8 OFFCURVE",
"400 -8 CURVE SMOOTH"
);
},
{
closed = 1;
nodes = (
"228 22 OFFCURVE",
"92 164 OFFCURVE",
"92 360 CURVE SMOOTH",
"92 554 OFFCURVE",
"228 698 OFFCURVE",
"400 698 CURVE SMOOTH",
"576 698 OFFCURVE",
"712 554 OFFCURVE",
"712 360 CURVE SMOOTH",
"712 164 OFFCURVE",
"576 22 OFFCURVE",
"400 22 CURVE SMOOTH"
);
}
);
width = 804;
},
{
anchors = (
{
name = bottom;
position = "{404, 0}";
},
{
name = center;
position = "{404, 360}";
},
{
name = horn;
position = "{558, 696}";
},
{
name = ogonek;
position = "{480, 0}";
},
{
name = top;
position = "{404, 720}";
},
{
name = topleft;
position = "{6, 720}";
},
{
name = topright;
position = "{802, 720}";
}
);
layerId = "2D8F7115-C311-411E-929D-56333CF7FFB2";
paths = (
{
closed = 1;
nodes = (
"610 -8 OFFCURVE",
"780 156 OFFCURVE",
"780 360 CURVE SMOOTH",
"780 564 OFFCURVE",
"612 728 OFFCURVE",
"404 728 CURVE SMOOTH",
"196 728 OFFCURVE",
"28 564 OFFCURVE",
"28 360 CURVE SMOOTH",
"28 156 OFFCURVE",
"196 -8 OFFCURVE",
"404 -8 CURVE SMOOTH"
);
},
{
closed = 1;
nodes = (
"298 156 OFFCURVE",
"208 246 OFFCURVE",
"208 360 CURVE SMOOTH",
"208 474 OFFCURVE",
"298 564 OFFCURVE",
"404 564 CURVE SMOOTH",
"510 564 OFFCURVE",
"600 474 OFFCURVE",
"600 360 CURVE SMOOTH",
"600 246 OFFCURVE",
"510 156 OFFCURVE",
"404 156 CURVE SMOOTH"
);
}
);
width = 808;
},
{
anchors = (
{
name = bottom;
position = "{400, 0}";
},
{
name = center;
position = "{402, 360}";
},
{
name = horn;
position = "{554, 694}";
},
{
name = ogonek;
position = "{468, 0}";
},
{
name = top;
position = "{400, 720}";
},
{
name = topleft;
position = "{26, 718}";
},
{
name = topright;
position = "{774, 718}";
}
);
associatedMasterId = "AB099EFE-E788-4EFC-8633-CF147CB782A6";
layerId = "B51E8ABC-071E-4402-B051-E2039DE042B2";
name = "{88}";
paths = (
{
closed = 1;
nodes = (
"603 -8 OFFCURVE",
"755 148 OFFCURVE",
"756 360 CURVE SMOOTH",
"755 570 OFFCURVE",
"603 728 OFFCURVE",
"400 728 CURVE SMOOTH",
"198 728 OFFCURVE",
"47 570 OFFCURVE",
"48 360 CURVE SMOOTH",
"47 148 OFFCURVE",
"199 -8 OFFCURVE",
"400 -8 CURVE SMOOTH"
);
},
{
closed = 1;
nodes = (
"248 72 OFFCURVE",
"135 193 OFFCURVE",
"136 360 CURVE SMOOTH",
"135 527 OFFCURVE",
"251 648 OFFCURVE",
"400 648 CURVE SMOOTH",
"551 648 OFFCURVE",
"666 527 OFFCURVE",
"668 360 CURVE SMOOTH",
"669 196 OFFCURVE",
"555 72 OFFCURVE",
"400 72 CURVE SMOOTH"
);
}
);
width = 804;
}
);
leftKerningGroup = LAT_O_UC;
rightKerningGroup = LAT_O_UC;
unicode = 004F;
},
{
glyphname = OE;
lastChange = "2020-06-28 03:17:34 +0000";
layers = (
{
anchors = (
{
name = bottom;
position = "{582, 0}";
},
{
name = top;
position = "{582, 720}";
}
);
layerId = "AB099EFE-E788-4EFC-8633-CF147CB782A6";
paths = (
{
closed = 1;
nodes = (
"538 -8 OFFCURVE",
"658 78 OFFCURVE",
"700 222 CURVE",
"686 222 LINE",
"686 0 LINE",
"1058 0 LINE",
"1058 30 LINE",
"718 30 LINE",
"718 354 LINE",
"1010 354 LINE",
"1010 384 LINE",
"718 384 LINE",
"718 690 LINE",
"1058 690 LINE",
"1058 720 LINE",
"686 720 LINE",
"686 498 LINE",
"700 498 LINE",
"658 642 OFFCURVE",
"538 728 OFFCURVE",
"396 728 CURVE SMOOTH",
"206 728 OFFCURVE",
"60 572 OFFCURVE",
"60 360 CURVE SMOOTH",
"60 150 OFFCURVE",
"206 -8 OFFCURVE",
"396 -8 CURVE SMOOTH"
);
},
{
closed = 1;
nodes = (
"224 22 OFFCURVE",
"92 166 OFFCURVE",
"92 360 CURVE SMOOTH",
"92 556 OFFCURVE",
"224 700 OFFCURVE",
"398 698 CURVE SMOOTH",
"574 700 OFFCURVE",
"690 556 OFFCURVE",
"690 360 CURVE SMOOTH",
"690 164 OFFCURVE",
"574 22 OFFCURVE",
"398 20 CURVE SMOOTH"
);
}
);
width = 1126;
},
{
anchors = (
{
name = bottom;
position = "{526, 0}";
},
{
name = top;
position = "{526, 720}";
}
);
layerId = "2D8F7115-C311-411E-929D-56333CF7FFB2";
paths = (
{
closed = 1;
nodes = (
"510 -8 OFFCURVE",
"594 50 OFFCURVE",
"644 150 CURVE",
"578 150 LINE",
"578 0 LINE",
"984 0 LINE",
"984 160 LINE",
"738 160 LINE",
"738 286 LINE",
"942 286 LINE",
"942 438 LINE",
"738 438 LINE",
"738 560 LINE",
"984 560 LINE",
"984 720 LINE",
"578 720 LINE",
"578 570 LINE",
"644 570 LINE",
"594 672 OFFCURVE",
"526 732 OFFCURVE",
"388 732 CURVE SMOOTH",
"198 732 OFFCURVE",
"30 574 OFFCURVE",
"28 360 CURVE SMOOTH",
"30 146 OFFCURVE",
"198 -8 OFFCURVE",
"388 -8 CURVE SMOOTH"
);
},
{
closed = 1;
nodes = (
"292 144 OFFCURVE",
"208 236 OFFCURVE",
"208 360 CURVE SMOOTH",
"208 484 OFFCURVE",
"292 576 OFFCURVE",
"400 576 CURVE SMOOTH",
"512 576 OFFCURVE",
"594 484 OFFCURVE",
"594 360 CURVE SMOOTH",
"594 236 OFFCURVE",
"512 144 OFFCURVE",
"400 144 CURVE SMOOTH"
);
}
);
width = 1036;
},
{
anchors = (
{
name = bottom;
position = "{562, 0}";
},
{
name = top;
position = "{562, 720}";
}
);
associatedMasterId = "AB099EFE-E788-4EFC-8633-CF147CB782A6";
layerId = "8F70DAA8-0AA5-44FD-A186-9E3DE6767B52";
name = "{88}";
paths = (
{
closed = 1;
nodes = (
"527 -8 OFFCURVE",
"634 67 OFFCURVE",
"680 196 CURVE",
"646 196 LINE",
"646 0 LINE",
"1030 0 LINE",
"1030 80 LINE",
"726 80 LINE",
"726 326 LINE",
"984 326 LINE",
"984 406 LINE",
"726 406 LINE",
"726 640 LINE",
"1030 640 LINE",
"1030 720 LINE",
"646 720 LINE",
"646 526 LINE",
"680 526 LINE",
"634 653 OFFCURVE",
"533 730 OFFCURVE",
"394 730 CURVE SMOOTH",
"203 730 OFFCURVE",
"49 573 OFFCURVE",
"48 360 CURVE SMOOTH",
"49 148 OFFCURVE",
"203 -8 OFFCURVE",
"394 -8 CURVE SMOOTH"
);
},
{
closed = 1;
nodes = (
"250 68 OFFCURVE",
"136 192 OFFCURVE",
"136 360 CURVE SMOOTH",
"136 529 OFFCURVE",
"250 653 OFFCURVE",
"400 652 CURVE SMOOTH",
"551 653 OFFCURVE",
"654 529 OFFCURVE",
"654 360 CURVE SMOOTH",
"654 191 OFFCURVE",
"551 68 OFFCURVE",
"400 68 CURVE SMOOTH"
);
}
);
width = 1092;
}
);
leftKerningGroup = LAT_O_UC;
leftMetricsKey = O;
rightKerningGroup = LAT_E_UC;
rightMetricsKey = E;
unicode = 0152;
},
{
glyphname = P;
lastChange = "2020-06-28 03:18:24 +0000";
layers = (
{
anchors = (
{
name = bottom;
position = "{116, 0}";
},
{
name = top;
position = "{310, 720}";
}
);
layerId = "AB099EFE-E788-4EFC-8633-CF147CB782A6";
paths = (
{
closed = 1;
nodes = (
"284 324 LINE SMOOTH",
"408 324 OFFCURVE",
"488 416 OFFCURVE",
"488 526 CURVE SMOOTH",
"488 644 OFFCURVE",
"398 720 OFFCURVE",
"278 720 CURVE SMOOTH",
"116 720 LINE",
"116 690 LINE",
"274 690 LINE SMOOTH",
"382 690 OFFCURVE",
"456 628 OFFCURVE",
"456 526 CURVE SMOOTH",
"456 424 OFFCURVE",
"384 354 OFFCURVE",
"278 354 CURVE SMOOTH",
"116 354 LINE",
"116 324 LINE"
);
},
{
closed = 1;
nodes = (
"132 0 LINE",
"132 720 LINE",
"100 720 LINE",
"100 0 LINE"
);
}
);
width = 542;
},
{
anchors = (
{
name = bottom;
position = "{162, 0}";
},
{
name = top;
position = "{336, 720}";
}
);
layerId = "2D8F7115-C311-411E-929D-56333CF7FFB2";
paths = (
{
closed = 1;
nodes = (
"330 220 LINE SMOOTH",
"490 220 OFFCURVE",
"600 322 OFFCURVE",
"600 476 CURVE SMOOTH",
"600 624 OFFCURVE",
"498 720 OFFCURVE",
"326 720 CURVE SMOOTH",
"216 720 LINE",
"216 560 LINE",
"316 560 LINE SMOOTH",
"382 560 OFFCURVE",
"424 524 OFFCURVE",
"424 470 CURVE SMOOTH",
"424 418 OFFCURVE",
"384 378 OFFCURVE",
"322 378 CURVE SMOOTH",
"216 378 LINE",
"216 220 LINE"
);
},
{
closed = 1;
nodes = (
"252 0 LINE",
"252 720 LINE",
"72 720 LINE",
"72 0 LINE"
);
}
);
width = 628;
},
{
anchors = (
{
name = bottom;
position = "{134, 0}";
},
{
name = top;
position = "{320, 720}";
}
);
associatedMasterId = "AB099EFE-E788-4EFC-8633-CF147CB782A6";
layerId = "8693DD1E-D2EA-488A-849C-EF28A0719D6C";
name = "{88}";
paths = (
{
closed = 1;
nodes = (
"302 286 LINE SMOOTH",
"440 286 OFFCURVE",
"528 380 OFFCURVE",
"528 508 CURVE SMOOTH",
"528 636 OFFCURVE",
"436 720 OFFCURVE",
"296 720 CURVE SMOOTH",
"154 720 LINE",
"154 640 LINE",
"290 640 LINE SMOOTH",
"382 640 OFFCURVE",
"440 590 OFFCURVE",
"440 506 CURVE SMOOTH",
"440 422 OFFCURVE",
"384 366 OFFCURVE",
"296 366 CURVE SMOOTH",
"154 366 LINE",
"154 286 LINE"
);
},
{
closed = 1;
nodes = (
"178 0 LINE",
"178 720 LINE",
"90 720 LINE",
"90 0 LINE"
);
}
);
width = 576;
}
);
leftKerningGroup = LAT_H_UC;
leftMetricsKey = H;
rightKerningGroup = LAT_P_UC;
unicode = 0050;
},
{
glyphname = Thorn;
lastChange = "2020-06-28 03:19:54 +0000";
layers = (
{
layerId = "AB099EFE-E788-4EFC-8633-CF147CB782A6";
paths = (
{
closed = 1;
nodes = (
"316 160 LINE SMOOTH",
"436 160 OFFCURVE",
"516 244 OFFCURVE",
"516 362 CURVE SMOOTH",
"516 480 OFFCURVE",
"436 556 OFFCURVE",
"316 556 CURVE SMOOTH",
"122 556 LINE",
"122 526 LINE",
"320 526 LINE SMOOTH",
"418 526 OFFCURVE",
"484 464 OFFCURVE",
"484 362 CURVE SMOOTH",
"484 260 OFFCURVE",
"418 190 OFFCURVE",
"320 190 CURVE SMOOTH",
"122 190 LINE",
"122 160 LINE"
);
},
{
closed = 1;
nodes = (
"132 0 LINE",
"132 720 LINE",
"100 720 LINE",
"100 0 LINE"
);
}
);
width = 568;
},
{
layerId = "2D8F7115-C311-411E-929D-56333CF7FFB2";
paths = (
{
closed = 1;
nodes = (
"336 112 LINE SMOOTH",
"494 112 OFFCURVE",
"596 218 OFFCURVE",
"596 366 CURVE SMOOTH",
"596 520 OFFCURVE",
"490 610 OFFCURVE",
"332 610 CURVE SMOOTH",
"212 610 LINE",
"212 454 LINE",
"322 454 LINE SMOOTH",
"384 454 OFFCURVE",
"424 418 OFFCURVE",
"424 362 CURVE SMOOTH",
"424 308 OFFCURVE",
"386 268 OFFCURVE",
"328 268 CURVE SMOOTH",
"212 268 LINE",
"212 112 LINE"
);
},
{
closed = 1;
nodes = (
"248 0 LINE",
"248 720 LINE",
"72 720 LINE",
"72 0 LINE"
);
}
);
width = 632;
},
{
associatedMasterId = "AB099EFE-E788-4EFC-8633-CF147CB782A6";
layerId = "43AD5461-7898-4B26-AADB-1221583B31D2";
name = "{88}";
paths = (
{
closed = 1;
nodes = (
"326 142 LINE SMOOTH",
"462 142 OFFCURVE",
"552 234 OFFCURVE",
"552 364 CURVE SMOOTH",
"552 496 OFFCURVE",
"460 576 OFFCURVE",
"324 576 CURVE SMOOTH",
"154 576 LINE",
"154 496 LINE",
"324 496 LINE SMOOTH",
"412 496 OFFCURVE",
"466 448 OFFCURVE",
"466 362 CURVE SMOOTH",
"466 278 OFFCURVE",
"412 222 OFFCURVE",
"326 222 CURVE SMOOTH",
"154 222 LINE",
"154 142 LINE"
);
},
{
closed = 1;
nodes = (
"176 0 LINE",
"176 720 LINE",
"90 720 LINE",
"90 0 LINE"
);
}
);
width = 600;
}
);
leftKerningGroup = LAT_H_UC;
leftMetricsKey = H;
rightKerningGroup = LAT_P_SC;
unicode = 00DE;
},
{
glyphname = Q;
lastChange = "2020-06-28 03:20:44 +0000";
layers = (
{
anchors = (
{
name = bottom;
position = "{402, 0}";
},
{
name = top;
position = "{398, 720}";
}
);
components = (
{
name = O;
}
);
layerId = "AB099EFE-E788-4EFC-8633-CF147CB782A6";
paths = (
{
closed = 1;
nodes = (
"676 0 LINE",
"616 84 LINE",
"610 92 LINE",
"484 268 LINE",
"448 268 LINE",
"586 74 LINE",
"592 66 LINE",
"640 0 LINE"
);
}
);
width = 812;
},
{
anchors = (
{
name = bottom;
position = "{402, 0}";
},
{
name = top;
position = "{402, 720}";
}
);
components = (
{
name = O;
}
);
layerId = "2D8F7115-C311-411E-929D-56333CF7FFB2";
paths = (
{
closed = 1;
nodes = (
"814 0 LINE",
"692 146 LINE",
"594 220 LINE",
"516 308 LINE",
"322 308 LINE",
"470 156 LINE",
"554 98 LINE",
"634 0 LINE"
);
}
);
width = 850;
},
{
anchors = (
{
name = bottom;
position = "{402, 0}";
},
{
name = top;
position = "{402, 720}";
}
);
associatedMasterId = "AB099EFE-E788-4EFC-8633-CF147CB782A6";
components = (
{
alignment = -1;
name = O;
}
);
layerId = "48847FE0-D015-492A-8C08-025152E57E1B";
name = "{88}";
paths = (
{
closed = 1;
nodes = (
"730 0 LINE",
"648 110 LINE",
"616 144 LINE",
"508 292 LINE",
"414 292 LINE",
"552 106 LINE",
"580 78 LINE",
"636 0 LINE"
);
}
);
width = 812;
}
);
leftKerningGroup = LAT_O_UC;
leftMetricsKey = O;
rightKerningGroup = LAT_Q_UC;
rightMetricsKey = "=O+8";
unicode = 0051;
},
{
glyphname = R;
lastChange = "2020-06-30 07:12:34 +0000";
layers = (
{
anchors = (
{
name = bottom;
position = "{314, 0}";
},
{
name = top;
position = "{298, 720}";
}
);
guideLines = (
{
angle = 120;
position = "{544, 0}";
},
{
angle = 67.5;
position = "{132, 2}";
}
);
layerId = "AB099EFE-E788-4EFC-8633-CF147CB782A6";
paths = (
{
closed = 1;
nodes = (
"116 690 LINE",
"274 690 LINE SMOOTH",
"382 690 OFFCURVE",
"456 628 OFFCURVE",
"456 526 CURVE SMOOTH",
"456 424 OFFCURVE",
"384 354 OFFCURVE",
"278 354 CURVE SMOOTH",
"116 354 LINE",
"116 324 LINE",
"284 324 LINE SMOOTH",
"408 324 OFFCURVE",
"488 416 OFFCURVE",
"488 526 CURVE SMOOTH",
"488 644 OFFCURVE",
"398 720 OFFCURVE",
"278 720 CURVE SMOOTH",
"116 720 LINE"
);
},
{
closed = 1;
nodes = (
"132 720 LINE",
"100 720 LINE",
"100 0 LINE",
"132 0 LINE"
);
},
{
closed = 1;
nodes = (
"278 328 LINE",
"500 0 LINE",
"536 0 LINE",
"302 350 LINE"
);
}
);
width = 588;
},
{
anchors = (
{
name = bottom;
position = "{350, 0}";
},
{
name = top;
position = "{340, 720}";
}
);
guideLines = (
{
angle = 120;
position = "{666, 0}";
}
);
layerId = "2D8F7115-C311-411E-929D-56333CF7FFB2";
paths = (
{
closed = 1;
nodes = (
"200 560 LINE",
"316 560 LINE SMOOTH",
"380 560 OFFCURVE",
"424 524 OFFCURVE",
"424 470 CURVE SMOOTH",
"424 418 OFFCURVE",
"382 382 OFFCURVE",
"322 382 CURVE SMOOTH",
"200 382 LINE",
"200 236 LINE",
"296 236 LINE SMOOTH",
"486 236 OFFCURVE",
"600 348 OFFCURVE",
"600 494 CURVE SMOOTH",
"600 640 OFFCURVE",
"488 720 OFFCURVE",
"344 720 CURVE SMOOTH",
"200 720 LINE"
);
},
{
closed = 1;
nodes = (
"252 720 LINE",
"72 720 LINE",
"72 0 LINE",
"252 0 LINE"
);
},
{
closed = 1;
nodes = (
"320 262 LINE",
"464 0 LINE",
"666 0 LINE",
"452 368 LINE"
);
}
);
width = 696;
},
{
anchors = (
{
name = bottom;
position = "{328, 0}";
},
{
name = top;
position = "{314, 720}";
}
);
associatedMasterId = "AB099EFE-E788-4EFC-8633-CF147CB782A6";
guideLines = (
{
angle = 120;
position = "{544, 0}";
},
{
angle = 67.5;
position = "{132, 2}";
}
);
hints = (
{
horizontal = 1;
origin = "{0, 10}";
type = Delta;
settings = {
deltaV = {
"{100, 88, 0, 0, 0, 0}" = {
"12" = 3;
};
};
};
},
{
horizontal = 1;
origin = "{0, 9}";
type = Delta;
settings = {
deltaV = {
"{100, 88, 0, 0, 0, 0}" = {
"12" = 3;
};
};
};
},
{
horizontal = 1;
origin = "{0, 8}";
type = Delta;
settings = {
deltaV = {
"{100, 88, 0, 0, 0, 0}" = {
"12" = 3;
};
};
};
},
{
horizontal = 1;
origin = "{0, 7}";
type = Delta;
settings = {
deltaV = {
"{100, 88, 0, 0, 0, 0}" = {
"12" = 3;
};
};
};
},
{
horizontal = 1;
origin = "{0, 8, 1, 0}";
type = Delta;
settings = {
deltaV = {
"{100, 88, 0, 0, 0, 0}" = {
"12" = 3;
};
};
};
},
{
horizontal = 1;
origin = "{0, 10, 1, 0}";
type = Delta;
settings = {
deltaV = {
"{100, 88, 0, 0, 0, 0}" = {
"12" = 3;
};
};
};
},
{
horizontal = 1;
origin = "{0, 13, 2, 1}";
type = Delta;
settings = {
deltaV = {
"{100, 88, 0, 0, 0, 0}" = {
"12" = 3;
};
};
};
},
{
horizontal = 1;
origin = "{0, 13, 2, 3}";
type = Delta;
settings = {
deltaV = {
"{100, 88, 0, 0, 0, 0}" = {
"12" = 3;
};
};
};
}
);
layerId = "935AF4A0-7721-472C-97D6-A77D2FAF60E5";
name = "{88}";
paths = (
{
closed = 1;
nodes = (
"148 640 LINE",
"290 640 LINE SMOOTH",
"381 640 OFFCURVE",
"444 589 OFFCURVE",
"444 506 CURVE SMOOTH",
"444 422 OFFCURVE",
"383 368 OFFCURVE",
"296 368 CURVE SMOOTH",
"148 368 LINE",
"148 292 LINE",
"290 292 LINE SMOOTH",
"438 292 OFFCURVE",
"530 390 OFFCURVE",
"530 514 CURVE SMOOTH",
"530 642 OFFCURVE",
"432 720 OFFCURVE",
"304 720 CURVE SMOOTH",
"148 720 LINE"
);
},
{
closed = 1;
nodes = (
"178 720 LINE",
"90 720 LINE",
"90 0 LINE",
"178 0 LINE"
);
},
{
closed = 1;
nodes = (
"294 306 LINE",
"486 0 LINE",
"586 0 LINE",
"360 358 LINE"
);
}
);
width = 630;
}
);
leftKerningGroup = LAT_H_UC;
leftMetricsKey = H;
rightKerningGroup = LAT_R_UC;
unicode = 0052;
},
{
glyphname = S;
lastChange = "2020-06-28 13:22:34 +0000";
layers = (
{
anchors = (
{
name = bottom;
position = "{282, 0}";
},
{
name = cedilla;
position = "{272, 0}";
},
{
name = top;
position = "{268, 720}";
}
);
layerId = "AB099EFE-E788-4EFC-8633-CF147CB782A6";
paths = (
{
closed = 1;
nodes = (
"380 -8 OFFCURVE",
"478 64 OFFCURVE",
"478 178 CURVE SMOOTH",
"478 324 OFFCURVE",
"324 366 OFFCURVE",
"262 390 CURVE SMOOTH",
"192 416 OFFCURVE",
"112 462 OFFCURVE",
"112 556 CURVE SMOOTH",
"112 638 OFFCURVE",
"170 698 OFFCURVE",
"262 698 CURVE SMOOTH",
"350 698 OFFCURVE",
"398 644 OFFCURVE",
"420 602 CURVE",
"448 614 LINE",
"424 666 OFFCURVE",
"364 728 OFFCURVE",
"262 728 CURVE SMOOTH",
"158 728 OFFCURVE",
"80 662 OFFCURVE",
"80 556 CURVE SMOOTH",
"80 446 OFFCURVE",
"170 394 OFFCURVE",
"270 356 CURVE SMOOTH",
"338 330 OFFCURVE",
"446 290 OFFCURVE",
"446 178 CURVE SMOOTH",
"446 82 OFFCURVE",
"364 22 OFFCURVE",
"272 22 CURVE SMOOTH",
"194 22 OFFCURVE",
"120 68 OFFCURVE",
"92 142 CURVE",
"60 128 LINE",
"90 62 OFFCURVE",
"158 -8 OFFCURVE",
"270 -8 CURVE SMOOTH"
);
}
);
userData = {
RMXScaler = {
height = 139;
width = 140;
};
};
width = 546;
},
{
anchors = (
{
name = bottom;
position = "{286, 0}";
},
{
name = cedilla;
position = "{288, 0}";
},
{
name = top;
position = "{282, 720}";
}
);
associatedMasterId = "AB099EFE-E788-4EFC-8633-CF147CB782A6";
guideLines = (
{
angle = 22.5;
position = "{486, 600}";
}
);
layerId = "E4C95551-37F9-4825-B9E4-5E46651ECDDB";
name = "{88}";
paths = (
{
closed = 1;
nodes = (
"406 -8 OFFCURVE",
"506 76 OFFCURVE",
"506 196 CURVE SMOOTH",
"506 342 OFFCURVE",
"360 386 OFFCURVE",
"300 408 CURVE SMOOTH",
"244 428 OFFCURVE",
"162 462 OFFCURVE",
"162 544 CURVE SMOOTH",
"162 612 OFFCURVE",
"216 648 OFFCURVE",
"276 648 CURVE SMOOTH",
"344 648 OFFCURVE",
"388 602 OFFCURVE",
"406 568 CURVE",
"484 600 LINE",
"454 666 OFFCURVE",
"384 728 OFFCURVE",
"276 728 CURVE SMOOTH",
"158 728 OFFCURVE",
"76 656 OFFCURVE",
"76 546 CURVE SMOOTH",
"76 432 OFFCURVE",
"160 374 OFFCURVE",
"260 338 CURVE SMOOTH",
"304 322 OFFCURVE",
"420 288 OFFCURVE",
"420 194 CURVE SMOOTH",
"420 122 OFFCURVE",
"358 72 OFFCURVE",
"284 72 CURVE SMOOTH",
"212 72 OFFCURVE",
"156 128 OFFCURVE",
"136 190 CURVE",
"54 156 LINE",
"82 72 OFFCURVE",
"174 -8 OFFCURVE",
"286 -8 CURVE SMOOTH"
);
}
);
userData = {
RMXScaler = {
height = 139;
width = 140;
};
};
width = 564;
},
{
anchors = (
{
name = bottom;
position = "{322, 0}";
},
{
name = cedilla;
position = "{334, 0}";
},
{
name = top;
position = "{306, 720}";
}
);
guideLines = (
{
angle = 22.5;
position = "{312, 288}";
},
{
angle = 90;
position = "{80, -108}";
},
{
angle = 90;
position = "{532, -108}";
}
);
layerId = "2D8F7115-C311-411E-929D-56333CF7FFB2";
paths = (
{
closed = 1;
nodes = (
"462 -8 OFFCURVE",
"568 96 OFFCURVE",
"568 222 CURVE SMOOTH",
"568 358 OFFCURVE",
"442 402 OFFCURVE",
"388 420 CURVE SMOOTH",
"340 436 OFFCURVE",
"242 456 OFFCURVE",
"242 514 CURVE SMOOTH",
"242 548 OFFCURVE",
"276 568 OFFCURVE",
"306 568 CURVE SMOOTH",
"346 568 OFFCURVE",
"376 534 OFFCURVE",
"386 506 CURVE",
"552 574 LINE",
"516 666 OFFCURVE",
"424 728 OFFCURVE",
"304 728 CURVE SMOOTH",
"168 728 OFFCURVE",
"62 650 OFFCURVE",
"62 518 CURVE SMOOTH",
"62 396 OFFCURVE",
"152 338 OFFCURVE",
"250 306 CURVE SMOOTH",
"308 286 OFFCURVE",
"388 272 OFFCURVE",
"388 216 CURVE SMOOTH",
"388 180 OFFCURVE",
"352 156 OFFCURVE",
"316 156 CURVE SMOOTH",
"262 156 OFFCURVE",
"224 202 OFFCURVE",
"208 246 CURVE",
"36 174 LINE",
"68 72 OFFCURVE",
"188 -8 OFFCURVE",
"314 -8 CURVE SMOOTH"
);
}
);
userData = {
RMXScaler = {
height = 137;
weight = 160;
width = 140;
};
};
width = 612;
},
{
anchors = (
{
name = bottom;
position = "{302, 0}";
},
{
name = cedilla;
position = "{310, 0}";
},
{
name = top;
position = "{294, 720}";
}
);
associatedMasterId = "AB099EFE-E788-4EFC-8633-CF147CB782A6";
layerId = "189FC121-1A31-44F2-BAF9-F118C42A5042";
name = "{140}";
paths = (
{
closed = 1;
nodes = (
"438 -8 OFFCURVE",
"540 86 OFFCURVE",
"540 208 CURVE SMOOTH",
"540 348 OFFCURVE",
"408 398 OFFCURVE",
"348 418 CURVE SMOOTH",
"300 434 OFFCURVE",
"208 458 OFFCURVE",
"208 528 CURVE SMOOTH",
"208 578 OFFCURVE",
"252 602 OFFCURVE",
"294 602 CURVE SMOOTH",
"348 602 OFFCURVE",
"384 554 OFFCURVE",
"394 532 CURVE",
"522 584 LINE",
"488 664 OFFCURVE",
"408 728 OFFCURVE",
"292 728 CURVE SMOOTH",
"164 728 OFFCURVE",
"70 652 OFFCURVE",
"70 528 CURVE SMOOTH",
"70 410 OFFCURVE",
"156 354 OFFCURVE",
"254 320 CURVE SMOOTH",
"314 300 OFFCURVE",
"402 276 OFFCURVE",
"402 206 CURVE SMOOTH",
"402 156 OFFCURVE",
"354 120 OFFCURVE",
"302 120 CURVE SMOOTH",
"238 120 OFFCURVE",
"194 170 OFFCURVE",
"176 220 CURVE",
"44 164 LINE",
"74 72 OFFCURVE",
"180 -8 OFFCURVE",
"304 -8 CURVE SMOOTH"
);
}
);
userData = {
RMXScaler = {
height = 139;
width = 140;
};
};
width = 590;
}
);
leftKerningGroup = LAT_S_UC;
rightKerningGroup = LAT_S_UC;
unicode = 0053;
userData = {
RMXScaler = {
source = s;
};
};
},
{
glyphname = Germandbls;
lastChange = "2020-06-28 03:24:15 +0000";
layers = (
{
layerId = "AB099EFE-E788-4EFC-8633-CF147CB782A6";
paths = (
{
closed = 1;
nodes = (
"476 -8 OFFCURVE",
"578 92 OFFCURVE",
"578 224 CURVE SMOOTH",
"578 348 OFFCURVE",
"486 442 OFFCURVE",
"330 436 CURVE",
"346 420 LINE",
"464 690 LINE",
"464 698 LINE",
"406 720 OFFCURVE",
"342 728 OFFCURVE",
"290 728 CURVE SMOOTH",
"92 728 OFFCURVE",
"92 604 OFFCURVE",
"92 550 CURVE SMOOTH",
"92 0 LINE",
"124 0 LINE",
"124 552 LINE SMOOTH",
"124 600 OFFCURVE",
"124 698 OFFCURVE",
"284 698 CURVE SMOOTH",
"336 698 OFFCURVE",
"402 688 OFFCURVE",
"434 676 CURVE",
"432 692 LINE",
"314 422 LINE",
"314 408 LINE",
"334 408 LINE SMOOTH",
"462 408 OFFCURVE",
"546 340 OFFCURVE",
"546 224 CURVE SMOOTH",
"546 104 OFFCURVE",
"452 22 OFFCURVE",
"344 22 CURVE SMOOTH",
"310 22 OFFCURVE",
"272 30 OFFCURVE",
"246 40 CURVE",
"246 8 LINE",
"268 -2 OFFCURVE",
"306 -8 OFFCURVE",
"340 -8 CURVE SMOOTH"
);
}
);
width = 644;
},
{
layerId = "2D8F7115-C311-411E-929D-56333CF7FFB2";
paths = (
{
closed = 1;
nodes = (
"592 -8 OFFCURVE",
"700 88 OFFCURVE",
"700 234 CURVE SMOOTH",
"700 348 OFFCURVE",
"636 440 OFFCURVE",
"516 456 CURVE",
"522 374 LINE",
"642 654 LINE",
"642 672 LINE",
"588 702 OFFCURVE",
"472 728 OFFCURVE",
"370 728 CURVE SMOOTH",
"190 728 OFFCURVE",
"68 646 OFFCURVE",
"68 498 CURVE SMOOTH",
"68 0 LINE",
"248 0 LINE",
"248 476 LINE SMOOTH",
"248 506 OFFCURVE",
"260 572 OFFCURVE",
"378 572 CURVE SMOOTH",
"422 572 OFFCURVE",
"452 562 OFFCURVE",
"460 550 CURVE",
"450 594 LINE",
"364 360 LINE",
"364 330 LINE",
"416 330 LINE SMOOTH",
"492 330 OFFCURVE",
"526 286 OFFCURVE",
"526 236 CURVE SMOOTH",
"526 180 OFFCURVE",
"484 152 OFFCURVE",
"406 152 CURVE SMOOTH",
"402 152 OFFCURVE",
"406 152 OFFCURVE",
"354 158 CURVE",
"354 -6 LINE",
"376 -6 OFFCURVE",
"392 -8 OFFCURVE",
"418 -8 CURVE SMOOTH"
);
}
);
width = 732;
},
{
associatedMasterId = "AB099EFE-E788-4EFC-8633-CF147CB782A6";
layerId = "D309BA26-5EFD-4494-B421-1A54124A95CB";
name = "{88}";
paths = (
{
closed = 1;
nodes = (
"516 -8 OFFCURVE",
"624 86 OFFCURVE",
"624 228 CURVE SMOOTH",
"624 348 OFFCURVE",
"544 440 OFFCURVE",
"400 444 CURVE",
"416 404 LINE",
"534 676 LINE",
"534 688 LINE",
"474 714 OFFCURVE",
"390 728 OFFCURVE",
"320 728 CURVE SMOOTH",
"168 728 OFFCURVE",
"84 660 OFFCURVE",
"84 530 CURVE SMOOTH",
"84 0 LINE",
"172 0 LINE",
"172 524 LINE SMOOTH",
"172 604 OFFCURVE",
"222 648 OFFCURVE",
"324 648 CURVE SMOOTH",
"374 648 OFFCURVE",
"426 636 OFFCURVE",
"444 626 CURVE",
"440 656 LINE",
"334 400 LINE",
"334 378 LINE",
"366 378 LINE SMOOTH",
"474 378 OFFCURVE",
"538 320 OFFCURVE",
"538 230 CURVE SMOOTH",
"538 138 OFFCURVE",
"470 72 OFFCURVE",
"370 72 CURVE SMOOTH",
"352 72 OFFCURVE",
"330 74 OFFCURVE",
"288 86 CURVE",
"288 4 LINE",
"308 -4 OFFCURVE",
"342 -8 OFFCURVE",
"372 -8 CURVE SMOOTH"
);
}
);
width = 678;
}
);
leftKerningGroup = LAT_GERMANDBLS_UC;
rightKerningGroup = LAT_GERMANDBLS_UC;
rightMetricsKey = B;
unicode = 1E9E;
},
{
glyphname = Schwa;
lastChange = "2020-06-28 03:25:04 +0000";
layers = (
{
anchors = (
{
name = bottom;
position = "{374, -24}";
},
{
name = top;
position = "{376, 750}";
}
);
layerId = "AB099EFE-E788-4EFC-8633-CF147CB782A6";
paths = (
{
closed = 1;
nodes = (
"554 -8 OFFCURVE",
"678 132 OFFCURVE",
"678 362 CURVE SMOOTH",
"678 594 OFFCURVE",
"552 728 OFFCURVE",
"370 728 CURVE SMOOTH",
"260 728 OFFCURVE",
"154 678 OFFCURVE",
"98 588 CURVE",
"128 574 LINE",
"184 660 OFFCURVE",
"282 698 OFFCURVE",
"374 698 CURVE SMOOTH",
"540 698 OFFCURVE",
"646 576 OFFCURVE",
"646 366 CURVE SMOOTH",
"646 144 OFFCURVE",
"526 22 OFFCURVE",
"372 22 CURVE SMOOTH",
"218 22 OFFCURVE",
"110 144 OFFCURVE",
"106 354 CURVE",
"658 354 LINE",
"658 384 LINE",
"74 384 LINE",
"74 362 LINE SMOOTH",
"74 150 OFFCURVE",
"184 -8 OFFCURVE",
"374 -8 CURVE SMOOTH"
);
}
);
width = 718;
},
{
anchors = (
{
name = bottom;
position = "{406, -24}";
},
{
name = top;
position = "{394, 740}";
}
);
layerId = "2D8F7115-C311-411E-929D-56333CF7FFB2";
paths = (
{
closed = 1;
nodes = (
"598 -8 OFFCURVE",
"742 142 OFFCURVE",
"742 354 CURVE SMOOTH",
"742 578 OFFCURVE",
"582 728 OFFCURVE",
"376 728 CURVE SMOOTH",
"244 728 OFFCURVE",
"128 664 OFFCURVE",
"68 560 CURVE",
"224 492 LINE",
"254 538 OFFCURVE",
"312 572 OFFCURVE",
"378 572 CURVE SMOOTH",
"484 572 OFFCURVE",
"564 488 OFFCURVE",
"564 356 CURVE SMOOTH",
"564 238 OFFCURVE",
"500 144 OFFCURVE",
"384 144 CURVE SMOOTH",
"292 144 OFFCURVE",
"210 202 OFFCURVE",
"210 272 CURVE",
"614 272 LINE",
"614 410 LINE",
"42 412 LINE",
"42 330 LINE SMOOTH",
"42 118 OFFCURVE",
"188 -8 OFFCURVE",
"384 -8 CURVE SMOOTH"
);
}
);
width = 766;
},
{
anchors = (
{
name = bottom;
position = "{386, -24}";
},
{
name = top;
position = "{384, 748}";
}
);
associatedMasterId = "AB099EFE-E788-4EFC-8633-CF147CB782A6";
layerId = "EE465929-7769-4598-896A-D8A2A252E8CC";
name = "{88}";
paths = (
{
closed = 1;
nodes = (
"552 -6 OFFCURVE",
"702 138 OFFCURVE",
"702 360 CURVE SMOOTH",
"702 578 OFFCURVE",
"558 730 OFFCURVE",
"362 730 CURVE SMOOTH",
"240 730 OFFCURVE",
"132 670 OFFCURVE",
"78 580 CURVE",
"158 544 LINE",
"200 614 OFFCURVE",
"286 650 OFFCURVE",
"366 650 CURVE SMOOTH",
"518 650 OFFCURVE",
"612 520 OFFCURVE",
"614 364 CURVE SMOOTH",
"616 188 OFFCURVE",
"506 74 OFFCURVE",
"366 70 CURVE SMOOTH",
"232 66 OFFCURVE",
"144 168 OFFCURVE",
"144 314 CURVE",
"630 314 LINE",
"630 390 LINE",
"54 390 LINE",
"54 330 LINE SMOOTH",
"54 130 OFFCURVE",
"184 -14 OFFCURVE",
"370 -10 CURVE SMOOTH"
);
}
);
width = 736;
}
);
leftKerningGroup = LAT_SCHWA_UC;
rightKerningGroup = LAT_O_UC;
unicode = 018F;
},
{
glyphname = T;
lastChange = "2020-06-30 03:54:59 +0000";
layers = (
{
anchors = (
{
name = bottom;
position = "{258, 0}";
},
{
name = cedilla;
position = "{252, 0}";
},
{
name = center;
position = "{258, 360}";
},
{
name = top;
position = "{258, 720}";
}
);
layerId = "AB099EFE-E788-4EFC-8633-CF147CB782A6";
paths = (
{
closed = 1;
nodes = (
"274 0 LINE",
"274 698 LINE",
"242 698 LINE",
"242 0 LINE"
);
},
{
closed = 1;
nodes = (
"478 690 LINE",
"478 720 LINE",
"36 720 LINE",
"36 690 LINE"
);
}
);
width = 514;
},
{
anchors = (
{
name = bottom;
position = "{288, 0}";
},
{
name = cedilla;
position = "{288, 0}";
},
{
name = center;
position = "{288, 328}";
},
{
name = top;
position = "{288, 720}";
}
);
layerId = "2D8F7115-C311-411E-929D-56333CF7FFB2";
paths = (
{
closed = 1;
nodes = (
"378 0 LINE",
"378 584 LINE",
"196 584 LINE",
"196 0 LINE"
);
},
{
closed = 1;
nodes = (
"546 560 LINE",
"546 720 LINE",
"28 720 LINE",
"28 560 LINE"
);
}
);
width = 574;
},
{
anchors = (
{
name = bottom;
position = "{270, 0}";
},
{
name = cedilla;
position = "{266, 0}";
},
{
name = center;
position = "{270, 348}";
},
{
name = top;
position = "{270, 720}";
}
);
associatedMasterId = "AB099EFE-E788-4EFC-8633-CF147CB782A6";
layerId = "296BF549-AD09-4235-ADB8-170685C8F35A";
name = "{88}";
paths = (
{
closed = 1;
nodes = (
"314 0 LINE",
"314 656 LINE",
"226 656 LINE",
"226 0 LINE"
);
},
{
closed = 1;
nodes = (
"506 642 LINE",
"506 720 LINE",
"34 720 LINE",
"34 642 LINE"
);
}
);
width = 540;
}
);
leftKerningGroup = LAT_T_UC;
rightKerningGroup = LAT_T_UC;
unicode = 0054;
},
{
glyphname = U;
lastChange = "2020-06-29 12:07:50 +0000";
layers = (
{
anchors = (
{
name = bottom;
position = "{336, 0}";
},
{
name = horn;
position = "{554, 720}";
},
{
name = ogonek;
position = "{400, 0}";
},
{
name = top;
position = "{336, 720}";
}
);
layerId = "AB099EFE-E788-4EFC-8633-CF147CB782A6";
paths = (
{
closed = 1;
nodes = (
"100 86 OFFCURVE",
"194 -8 OFFCURVE",
"336 -8 CURVE SMOOTH",
"480 -8 OFFCURVE",
"572 86 OFFCURVE",
"572 232 CURVE SMOOTH",
"572 720 LINE",
"540 720 LINE",
"540 240 LINE SMOOTH",
"540 106 OFFCURVE",
"460 22 OFFCURVE",
"336 22 CURVE SMOOTH",
"214 22 OFFCURVE",
"132 106 OFFCURVE",
"132 240 CURVE SMOOTH",
"132 720 LINE",
"100 720 LINE",
"100 232 LINE SMOOTH"
);
}
);
width = 672;
},
{
anchors = (
{
name = bottom;
position = "{364, 0}";
},
{
name = horn;
position = "{612, 720}";
},
{
name = ogonek;
position = "{432, 0}";
},
{
name = top;
position = "{364, 720}";
}
);
layerId = "2D8F7115-C311-411E-929D-56333CF7FFB2";
paths = (
{
closed = 1;
nodes = (
"72 108 OFFCURVE",
"186 -8 OFFCURVE",
"364 -8 CURVE SMOOTH",
"542 -8 OFFCURVE",
"656 108 OFFCURVE",
"656 286 CURVE SMOOTH",
"656 720 LINE",
"476 720 LINE",
"476 270 LINE SMOOTH",
"476 198 OFFCURVE",
"432 152 OFFCURVE",
"364 152 CURVE SMOOTH",
"298 152 OFFCURVE",
"252 196 OFFCURVE",
"252 270 CURVE SMOOTH",
"252 720 LINE",
"72 720 LINE",
"72 286 LINE SMOOTH"
);
}
);
width = 728;
},
{
anchors = (
{
name = bottom;
position = "{348, 0}";
},
{
name = horn;
position = "{578, 720}";
},
{
name = ogonek;
position = "{414, 0}";
},
{
name = top;
position = "{348, 720}";
}
);
associatedMasterId = "AB099EFE-E788-4EFC-8633-CF147CB782A6";
layerId = "0776097E-BE96-4615-B71A-92AF09A2F364";
name = "{88}";
paths = (
{
closed = 1;
nodes = (
"90 94 OFFCURVE",
"192 -8 OFFCURVE",
"348 -8 CURVE SMOOTH",
"506 -8 OFFCURVE",
"606 94 OFFCURVE",
"606 252 CURVE SMOOTH",
"606 720 LINE",
"518 720 LINE",
"518 252 LINE SMOOTH",
"518 144 OFFCURVE",
"452 72 OFFCURVE",
"348 72 CURVE SMOOTH",
"246 72 OFFCURVE",
"178 144 OFFCURVE",
"178 252 CURVE SMOOTH",
"178 720 LINE",
"90 720 LINE",
"90 252 LINE SMOOTH"
);
}
);
width = 696;
}
);
leftKerningGroup = LAT_U_UC;
leftMetricsKey = H;
rightKerningGroup = LAT_U_UC;
rightMetricsKey = H;
unicode = 0055;
},
{
glyphname = V;
lastChange = "2020-06-29 11:58:51 +0000";
layers = (
{
anchors = (
{
name = bottom;
position = "{344, 0}";
},
{
name = top;
position = "{340, 720}";
}
);
layerId = "AB099EFE-E788-4EFC-8633-CF147CB782A6";
paths = (
{
closed = 1;
nodes = (
"356 0 LINE",
"652 720 LINE",
"616 720 LINE",
"444 294 LINE",
"344 40 LINE",
"340 40 LINE",
"240 294 LINE",
"68 720 LINE",
"32 720 LINE",
"328 0 LINE"
);
}
);
width = 684;
},
{
anchors = (
{
name = bottom;
position = "{376, 0}";
},
{
name = top;
position = "{374, 720}";
}
);
layerId = "2D8F7115-C311-411E-929D-56333CF7FFB2";
paths = (
{
closed = 1;
nodes = (
"452 0 LINE",
"744 720 LINE",
"546 720 LINE",
"442 438 LINE",
"376 242 LINE",
"372 242 LINE",
"304 438 LINE",
"200 720 LINE",
"4 720 LINE",
"300 0 LINE"
);
}
);
width = 748;
},
{
anchors = (
{
name = bottom;
position = "{354, 0}";
},
{
name = top;
position = "{350, 720}";
}
);
associatedMasterId = "AB099EFE-E788-4EFC-8633-CF147CB782A6";
layerId = "0D7ABE1B-ED2C-477C-ADA0-3A50A773B746";
name = "{106}";
paths = (
{
closed = 1;
nodes = (
"394 0 LINE",
"690 720 LINE",
"574 720 LINE",
"440 366 LINE",
"354 152 LINE",
"350 152 LINE",
"262 366 LINE",
"128 720 LINE",
"12 720 LINE",
"310 0 LINE"
);
}
);
width = 702;
},
{
anchors = (
{
name = bottom;
position = "{350, 0}";
},
{
name = top;
position = "{350, 720}";
}
);
associatedMasterId = "AB099EFE-E788-4EFC-8633-CF147CB782A6";
layerId = "5FECEC37-E71F-43A1-9FB9-F11C65084772";
name = "{88}";
paths = (
{
closed = 1;
nodes = (
"386 0 LINE",
"684 720 LINE",
"588 720 LINE",
"442 348 LINE",
"352 126 LINE",
"348 126 LINE",
"258 348 LINE",
"112 720 LINE",
"16 720 LINE",
"314 0 LINE"
);
}
);
width = 700;
}
);
leftKerningGroup = LAT_V_UC;
rightKerningGroup = LAT_V_UC;
unicode = 0056;
},
{
glyphname = W;
lastChange = "2020-06-30 04:04:17 +0000";
layers = (
{
anchors = (
{
name = bottom;
position = "{450, 0}";
},
{
name = top;
position = "{450, 720}";
}
);
layerId = "AB099EFE-E788-4EFC-8633-CF147CB782A6";
paths = (
{
closed = 1;
nodes = (
"228 0 LINE",
"268 0 LINE",
"448 606 LINE",
"452 606 LINE",
"632 0 LINE",
"672 0 LINE",
"868 720 LINE",
"834 720 LINE",
"676 134 LINE",
"654 36 LINE",
"650 36 LINE",
"462 672 LINE",
"438 672 LINE",
"250 36 LINE",
"246 36 LINE",
"224 134 LINE",
"66 720 LINE",
"32 720 LINE"
);
}
);
width = 900;
},
{
anchors = (
{
name = bottom;
position = "{510, 0}";
},
{
name = top;
position = "{510, 720}";
}
);
layerId = "2D8F7115-C311-411E-929D-56333CF7FFB2";
paths = (
{
closed = 1;
nodes = (
"220 0 LINE",
"364 0 LINE",
"508 312 LINE",
"512 312 LINE",
"656 0 LINE",
"802 0 LINE",
"1012 720 LINE",
"826 720 LINE",
"746 430 LINE",
"704 250 LINE",
"700 250 LINE",
"546 638 LINE",
"474 638 LINE",
"320 250 LINE",
"316 250 LINE",
"274 430 LINE",
"196 720 LINE",
"8 720 LINE"
);
}
);
width = 1020;
},
{
anchors = (
{
name = bottom;
position = "{468, 0}";
},
{
name = top;
position = "{468, 720}";
}
);
associatedMasterId = "AB099EFE-E788-4EFC-8633-CF147CB782A6";
layerId = "44F0B799-A1C9-41C2-9401-FFB8B8F0CDF7";
name = "{88}";
paths = (
{
closed = 1;
nodes = (
"230 0 LINE",
"310 0 LINE",
"466 448 LINE",
"470 448 LINE",
"626 0 LINE",
"706 0 LINE",
"916 720 LINE",
"826 720 LINE",
"710 300 LINE",
"664 122 LINE",
"660 122 LINE",
"486 646 LINE",
"450 646 LINE",
"276 122 LINE",
"272 122 LINE",
"226 300 LINE",
"110 720 LINE",
"20 720 LINE"
);
}
);
width = 936;
}
);
leftKerningGroup = LAT_W_UC;
rightKerningGroup = LAT_W_UC;
unicode = 0057;
},
{
color = 9;
glyphname = W.ss06;
lastChange = "2020-06-28 03:30:14 +0000";
layers = (
{
anchors = (
{
name = bottom;
position = "{458, -24}";
},
{
name = top;
position = "{454, 754}";
}
);
layerId = "AB099EFE-E788-4EFC-8633-CF147CB782A6";
paths = (
{
closed = 1;
nodes = (
"228 0 LINE",
"270 0 LINE",
"350 292 LINE",
"450 658 LINE",
"454 658 LINE",
"554 292 LINE",
"636 0 LINE",
"676 0 LINE",
"872 720 LINE",
"838 720 LINE",
"724 290 LINE",
"658 40 LINE",
"654 40 LINE",
"586 290 LINE",
"466 720 LINE",
"438 720 LINE",
"318 290 LINE",
"250 40 LINE",
"246 40 LINE",
"180 290 LINE",
"66 720 LINE",
"32 720 LINE"
);
}
);
width = 904;
},
{
anchors = (
{
name = bottom;
position = "{496, -24}";
},
{
name = top;
position = "{492, 744}";
}
);
layerId = "2D8F7115-C311-411E-929D-56333CF7FFB2";
paths = (
{
closed = 1;
nodes = (
"180 0 LINE",
"354 0 LINE",
"436 236 LINE",
"492 396 LINE",
"496 396 LINE",
"550 236 LINE",
"634 0 LINE",
"806 0 LINE",
"974 720 LINE",
"790 720 LINE",
"736 432 LINE",
"706 240 LINE",
"700 240 LINE",
"652 396 LINE",
"544 720 LINE",
"442 720 LINE",
"336 398 LINE",
"286 240 LINE",
"282 240 LINE",
"250 432 LINE",
"198 720 LINE",
"12 720 LINE"
);
}
);
width = 986;
},
{
anchors = (
{
name = bottom;
position = "{470, -6}";
},
{
name = top;
position = "{468, 728}";
}
);
associatedMasterId = "AB099EFE-E788-4EFC-8633-CF147CB782A6";
layerId = "16142012-0122-4351-A73A-1D96C5AD7AE3";
name = "{88}";
paths = (
{
closed = 1;
nodes = (
"224 0 LINE",
"308 0 LINE",
"378 234 LINE",
"466 534 LINE",
"470 534 LINE",
"558 234 LINE",
"628 0 LINE",
"712 0 LINE",
"912 720 LINE",
"824 720 LINE",
"720 336 LINE",
"672 134 LINE",
"668 134 LINE",
"606 346 LINE",
"494 720 LINE",
"442 720 LINE",
"330 346 LINE",
"268 134 LINE",
"264 134 LINE",
"216 336 LINE",
"114 720 LINE",
"24 720 LINE"
);
}
);
width = 936;
}
);
leftKerningGroup = LAT_W_UC;
rightKerningGroup = LAT_W_UC;
},
{
glyphname = X;
lastChange = "2020-06-30 03:54:43 +0000";
layers = (
{
anchors = (
{
name = bottom;
position = "{310, 0}";
},
{
name = top;
position = "{310, 720}";
}
);
layerId = "AB099EFE-E788-4EFC-8633-CF147CB782A6";
paths = (
{
closed = 1;
nodes = (
"86 0 LINE",
"310 336 LINE",
"316 336 LINE",
"332 356 LINE",
"332 360 LINE",
"576 720 LINE",
"540 720 LINE",
"314 384 LINE",
"308 384 LINE",
"292 362 LINE",
"292 358 LINE",
"48 0 LINE"
);
},
{
closed = 1;
nodes = (
"576 0 LINE",
"332 358 LINE",
"332 362 LINE",
"316 384 LINE",
"310 384 LINE",
"84 720 LINE",
"48 720 LINE",
"292 360 LINE",
"292 356 LINE",
"308 336 LINE",
"314 336 LINE",
"538 0 LINE"
);
}
);
width = 624;
},
{
anchors = (
{
name = bottom;
position = "{376, 0}";
},
{
name = top;
position = "{376, 720}";
}
);
backgroundImage = {
crop = "{{307.016, 0}, {160.838, 213}}";
imagePath = ../../Ideation/Client/image_480.png;
locked = "1";
transform = "{4.775, 0, 0, 4.775, -1472, -146}";
};
layerId = "2D8F7115-C311-411E-929D-56333CF7FFB2";
paths = (
{
closed = 1;
nodes = (
"232 0 LINE",
"374 226 LINE",
"378 226 LINE",
"500 360 LINE",
"500 362 LINE",
"728 720 LINE",
"518 720 LINE",
"376 476 LINE",
"372 476 LINE",
"252 360 LINE",
"252 358 LINE",
"20 0 LINE"
);
},
{
closed = 1;
nodes = (
"732 0 LINE",
"500 358 LINE",
"500 360 LINE",
"378 476 LINE",
"374 476 LINE",
"232 720 LINE",
"24 720 LINE",
"252 362 LINE",
"252 360 LINE",
"372 226 LINE",
"376 226 LINE",
"518 0 LINE"
);
}
);
width = 752;
},
{
anchors = (
{
name = bottom;
position = "{336, 0}";
},
{
name = top;
position = "{336, 720}";
}
);
associatedMasterId = "AB099EFE-E788-4EFC-8633-CF147CB782A6";
layerId = "E1C0632A-B306-4DBA-9476-DDA17C87B229";
name = "{88}";
paths = (
{
closed = 1;
nodes = (
"142 0 LINE",
"334 294 LINE",
"340 294 LINE",
"394 358 LINE",
"394 362 LINE",
"632 720 LINE",
"532 720 LINE",
"338 420 LINE",
"332 420 LINE",
"278 362 LINE",
"278 358 LINE",
"36 0 LINE"
);
},
{
closed = 1;
nodes = (
"636 0 LINE",
"394 358 LINE",
"394 362 LINE",
"340 420 LINE",
"334 420 LINE",
"140 720 LINE",
"40 720 LINE",
"278 362 LINE",
"278 358 LINE",
"332 294 LINE",
"338 294 LINE",
"530 0 LINE"
);
}
);
width = 672;
}
);
leftKerningGroup = LAT_X_UC;
rightKerningGroup = LAT_X_UC;
unicode = 0058;
},
{
glyphname = Y;
lastChange = "2020-06-30 04:02:57 +0000";
layers = (
{
anchors = (
{
name = bottom;
position = "{298, 0}";
},
{
name = top;
position = "{298, 720}";
}
);
layerId = "AB099EFE-E788-4EFC-8633-CF147CB782A6";
paths = (
{
closed = 1;
nodes = (
"282 0 LINE",
"314 0 LINE",
"314 332 LINE",
"564 720 LINE",
"528 720 LINE",
"394 510 LINE",
"300 366 LINE",
"296 366 LINE",
"202 510 LINE",
"68 720 LINE",
"32 720 LINE",
"282 332 LINE"
);
}
);
width = 596;
},
{
anchors = (
{
name = bottom;
position = "{342, 0}";
},
{
name = top;
position = "{342, 720}";
}
);
layerId = "2D8F7115-C311-411E-929D-56333CF7FFB2";
paths = (
{
closed = 1;
nodes = (
"252 0 LINE",
"432 0 LINE",
"432 270 LINE",
"680 720 LINE",
"474 720 LINE",
"410 590 LINE",
"344 442 LINE",
"340 442 LINE",
"274 590 LINE",
"210 720 LINE",
"4 720 LINE",
"252 270 LINE"
);
}
);
width = 684;
},
{
anchors = (
{
name = bottom;
position = "{316, 0}";
},
{
name = top;
position = "{316, 720}";
}
);
associatedMasterId = "AB099EFE-E788-4EFC-8633-CF147CB782A6";
layerId = "B47E59EA-22E6-4BA7-A99B-6048E7A47800";
name = "{88}";
paths = (
{
closed = 1;
nodes = (
"272 0 LINE",
"360 0 LINE",
"360 310 LINE",
"610 720 LINE",
"510 720 LINE",
"402 540 LINE",
"318 396 LINE",
"314 396 LINE",
"230 540 LINE",
"122 720 LINE",
"22 720 LINE",
"272 310 LINE"
);
}
);
width = 632;
}
);
leftKerningGroup = LAT_Y_UC;
rightKerningGroup = LAT_Y_UC;
unicode = 0059;
},
{
glyphname = Z;
lastChange = "2020-06-30 03:55:38 +0000";
layers = (
{
anchors = (
{
name = bottom;
position = "{318, 0}";
},
{
name = top;
position = "{314, 720}";
}
);
guideLines = (
{
angle = 58;
position = "{194, 112}";
}
);
layerId = "AB099EFE-E788-4EFC-8633-CF147CB782A6";
paths = (
{
closed = 1;
nodes = (
"68 0 LINE",
"538 0 LINE",
"538 30 LINE",
"112 30 LINE",
"112 32 LINE",
"528 702 LINE",
"528 720 LINE",
"94 720 LINE",
"94 690 LINE",
"484 690 LINE",
"484 688 LINE",
"68 18 LINE"
);
}
);
width = 606;
},
{
anchors = (
{
name = bottom;
position = "{314, 0}";
},
{
name = top;
position = "{314, 720}";
}
);
guideLines = (
{
angle = 63;
position = "{194, 112}";
}
);
layerId = "2D8F7115-C311-411E-929D-56333CF7FFB2";
paths = (
{
closed = 1;
nodes = (
"36 0 LINE",
"592 0 LINE",
"592 158 LINE",
"300 158 LINE",
"300 160 LINE",
"584 694 LINE",
"584 720 LINE",
"50 720 LINE",
"50 562 LINE",
"322 562 LINE",
"322 560 LINE",
"36 24 LINE"
);
}
);
width = 628;
},
{
anchors = (
{
name = bottom;
position = "{316, 0}";
},
{
name = top;
position = "{314, 720}";
}
);
associatedMasterId = "AB099EFE-E788-4EFC-8633-CF147CB782A6";
guideLines = (
{
angle = 58;
position = "{194, 112}";
}
);
layerId = "09092BEB-4556-4577-993B-2D6F660C8AA9";
name = "{88}";
paths = (
{
closed = 1;
nodes = (
"56 0 LINE",
"558 0 LINE",
"558 80 LINE",
"190 80 LINE",
"190 82 LINE",
"552 700 LINE",
"552 720 LINE",
"78 720 LINE",
"78 640 LINE",
"418 640 LINE",
"418 638 LINE",
"56 20 LINE"
);
}
);
width = 614;
}
);
leftKerningGroup = LAT_Z_UC;
rightKerningGroup = LAT_Z_UC;
unicode = 005A;
},
{
glyphname = a;
lastChange = "2020-06-30 07:07:19 +0000";
layers = (
{
anchors = (
{
name = bottom;
position = "{248, 0}";
},
{
name = ogonek;
position = "{454, -8}";
},
{
name = top;
position = "{256, 512}";
}
);
layerId = "AB099EFE-E788-4EFC-8633-CF147CB782A6";
paths = (
{
closed = 1;
nodes = (
"296 -8 OFFCURVE",
"358 38 OFFCURVE",
"390 92 CURVE",
"382 88 LINE",
"394 88 LINE",
"390 92 LINE",
"396 46 OFFCURVE",
"410 14 OFFCURVE",
"442 -2 CURVE SMOOTH",
"454 -8 LINE",
"466 20 LINE",
"462 22 LINE SMOOTH",
"438 34 OFFCURVE",
"420 64 OFFCURVE",
"420 114 CURVE SMOOTH",
"420 334 LINE SMOOTH",
"420 448 OFFCURVE",
"382 520 OFFCURVE",
"256 520 CURVE SMOOTH",
"205 520 OFFCURVE",
"129 495 OFFCURVE",
"90 464 CURVE",
"104 438 LINE",
"141 468 OFFCURVE",
"210 492 OFFCURVE",
"254 492 CURVE SMOOTH",
"352 492 OFFCURVE",
"390 444 OFFCURVE",
"390 338 CURVE SMOOTH",
"390 274 LINE",
"390 270 LINE",
"390 176 LINE SMOOTH",
"390 94 OFFCURVE",
"302 20 OFFCURVE",
"216 20 CURVE SMOOTH",
"144 20 OFFCURVE",
"86 72 OFFCURVE",
"86 138 CURVE SMOOTH",
"86 214 OFFCURVE",
"160 268 OFFCURVE",
"304 268 CURVE SMOOTH",
"400 268 LINE",
"400 296 LINE",
"304 296 LINE SMOOTH",
"142 296 OFFCURVE",
"56 232 OFFCURVE",
"56 138 CURVE SMOOTH",
"56 54 OFFCURVE",
"126 -8 OFFCURVE",
"216 -8 CURVE SMOOTH"
);
}
);
width = 518;
},
{
anchors = (
{
name = bottom;
position = "{266, 0}";
},
{
name = ogonek;
position = "{464, -8}";
},
{
name = top;
position = "{270, 518}";
}
);
associatedMasterId = "AB099EFE-E788-4EFC-8633-CF147CB782A6";
layerId = "D40FEF4C-C717-41A2-92D8-F5D98632150B";
name = "{88}";
paths = (
{
closed = 1;
nodes = (
"300 -8 OFFCURVE",
"364 34 OFFCURVE",
"390 86 CURVE",
"368 72 LINE",
"400 72 LINE",
"384 78 LINE",
"384 48 OFFCURVE",
"414 14 OFFCURVE",
"450 -2 CURVE SMOOTH",
"464 -8 LINE",
"496 68 LINE",
"486 72 LINE SMOOTH",
"462 82 OFFCURVE",
"454 106 OFFCURVE",
"454 150 CURVE SMOOTH",
"454 332 LINE SMOOTH",
"454 434 OFFCURVE",
"414 526 OFFCURVE",
"274 526 CURVE SMOOTH",
"208 526 OFFCURVE",
"134 506 OFFCURVE",
"82 476 CURVE",
"114 400 LINE",
"154 428 OFFCURVE",
"218 448 OFFCURVE",
"266 448 CURVE SMOOTH",
"374 448 OFFCURVE",
"374 364 OFFCURVE",
"374 330 CURVE SMOOTH",
"374 272 LINE",
"376 242 LINE",
"376 188 LINE SMOOTH",
"376 108 OFFCURVE",
"292 64 OFFCURVE",
"228 64 CURVE SMOOTH",
"174 64 OFFCURVE",
"130 94 OFFCURVE",
"130 146 CURVE SMOOTH",
"130 222 OFFCURVE",
"214 240 OFFCURVE",
"290 240 CURVE",
"392 240 LINE",
"392 308 LINE",
"284 308 LINE SMOOTH",
"122 308 OFFCURVE",
"48 240 OFFCURVE",
"48 146 CURVE SMOOTH",
"48 50 OFFCURVE",
"122 -8 OFFCURVE",
"218 -8 CURVE SMOOTH"
);
}
);
width = 542;
},
{
anchors = (
{
name = bottom;
position = "{282, 0}";
},
{
name = ogonek;
position = "{496, -8}";
},
{
name = top;
position = "{294, 528}";
}
);
layerId = "2D8F7115-C311-411E-929D-56333CF7FFB2";
paths = (
{
closed = 1;
nodes = (
"298 -8 OFFCURVE",
"366 28 OFFCURVE",
"386 68 CURVE",
"334 58 LINE",
"412 58 LINE",
"370 88 LINE",
"376 54 OFFCURVE",
"412 17 OFFCURVE",
"476 -2 CURVE SMOOTH",
"496 -8 LINE",
"556 136 LINE",
"544 140 LINE SMOOTH",
"524 147 OFFCURVE",
"514 162 OFFCURVE",
"514 194 CURVE SMOOTH",
"514 348 LINE SMOOTH",
"514 428 OFFCURVE",
"488 536 OFFCURVE",
"286 536 CURVE SMOOTH",
"184 536 OFFCURVE",
"106 508 OFFCURVE",
"68 486 CURVE",
"126 358 LINE",
"164 382 OFFCURVE",
"226 398 OFFCURVE",
"270 398 CURVE SMOOTH",
"312 398 OFFCURVE",
"350 382 OFFCURVE",
"350 346 CURVE SMOOTH",
"350 270 LINE",
"356 250 LINE",
"356 182 LINE SMOOTH",
"356 134 OFFCURVE",
"296 120 OFFCURVE",
"264 120 CURVE SMOOTH",
"230 120 OFFCURVE",
"204 138 OFFCURVE",
"204 166 CURVE SMOOTH",
"204 198 OFFCURVE",
"228 214 OFFCURVE",
"278 214 CURVE SMOOTH",
"376 214 LINE",
"376 318 LINE",
"242 318 LINE SMOOTH",
"116 318 OFFCURVE",
"36 248 OFFCURVE",
"36 152 CURVE SMOOTH",
"36 64 OFFCURVE",
"108 -8 OFFCURVE",
"216 -8 CURVE SMOOTH"
);
}
);
width = 592;
},
{
anchors = (
{
name = bottom;
position = "{276, 0}";
},
{
name = ogonek;
position = "{480, -8}";
},
{
name = top;
position = "{282, 524}";
}
);
associatedMasterId = "AB099EFE-E788-4EFC-8633-CF147CB782A6";
guideLines = (
{
angle = 67.5;
position = "{480, -8}";
}
);
layerId = "5A1ABFEF-EF5F-438D-8AA9-81A56DE78ADA";
name = "{140}";
paths = (
{
closed = 1;
nodes = (
"300 -8 OFFCURVE",
"370 32 OFFCURVE",
"392 76 CURVE",
"364 62 LINE",
"404 62 LINE",
"380 78 LINE",
"384 50 OFFCURVE",
"406 20 OFFCURVE",
"464 -2 CURVE SMOOTH",
"480 -8 LINE",
"528 106 LINE",
"516 110 LINE SMOOTH",
"492 118 OFFCURVE",
"486 136 OFFCURVE",
"486 176 CURVE SMOOTH",
"486 338 LINE SMOOTH",
"486 406 OFFCURVE",
"478 532 OFFCURVE",
"284 532 CURVE SMOOTH",
"196 532 OFFCURVE",
"114 506 OFFCURVE",
"74 482 CURVE",
"118 378 LINE",
"152 400 OFFCURVE",
"214 420 OFFCURVE",
"264 420 CURVE SMOOTH",
"332 420 OFFCURVE",
"358 384 OFFCURVE",
"358 336 CURVE SMOOTH",
"358 270 LINE",
"366 242 LINE",
"366 188 LINE SMOOTH",
"366 120 OFFCURVE",
"290 94 OFFCURVE",
"242 94 CURVE SMOOTH",
"202 94 OFFCURVE",
"168 116 OFFCURVE",
"168 156 CURVE SMOOTH",
"168 198 OFFCURVE",
"204 220 OFFCURVE",
"266 220 CURVE SMOOTH",
"384 220 LINE",
"384 312 LINE",
"270 312 LINE SMOOTH",
"118 312 OFFCURVE",
"40 246 OFFCURVE",
"40 152 CURVE SMOOTH",
"40 62 OFFCURVE",
"112 -8 OFFCURVE",
"218 -8 CURVE SMOOTH"
);
}
);
width = 568;
}
);
leftKerningGroup = LAT_ASS02_LC;
rightKerningGroup = LAT_A_LC;
rightMetricsKey = u;
unicode = 0061;
},
{
color = 4;
glyphname = a.ss01;
lastChange = "2020-06-30 05:19:27 +0000";
layers = (
{
anchors = (
{
name = bottom;
position = "{298, 0}";
},
{
name = center;
position = "{310, 256}";
},
{
name = ogonek;
position = "{538, 0}";
},
{
name = top;
position = "{310, 512}";
},
{
name = topright;
position = "{610, 512}";
}
);
components = (
{
alignment = -1;
name = _part.bowl.ss01;
transform = "{-1, 0, 0, 1, 624, 0}";
}
);
layerId = "AB099EFE-E788-4EFC-8633-CF147CB782A6";
paths = (
{
closed = 1;
nodes = (
"538 0 LINE",
"538 512 LINE",
"508 512 LINE",
"508 396 LINE",
"498 396 LINE",
"510 372 LINE",
"510 140 LINE",
"496 116 LINE",
"508 116 LINE",
"508 0 LINE"
);
}
);
width = 616;
},
{
anchors = (
{
name = bottom;
position = "{316, 0}";
},
{
name = center;
position = "{322, 262}";
},
{
name = ogonek;
position = "{562, 0}";
},
{
name = top;
position = "{326, 518}";
},
{
name = topright;
position = "{616, 518}";
}
);
associatedMasterId = "AB099EFE-E788-4EFC-8633-CF147CB782A6";
components = (
{
alignment = -1;
name = _part.bowl.ss01;
transform = "{-1, 0, 0, 1, 640, 0}";
}
);
layerId = "C9EFF8C1-B8EE-4ECD-9EEB-4C6D972FBAC7";
name = "{88}";
paths = (
{
closed = 1;
nodes = (
"562 0 LINE",
"562 518 LINE",
"478 518 LINE",
"478 444 LINE",
"464 444 LINE",
"486 416 LINE",
"486 102 LINE",
"464 74 LINE",
"478 74 LINE",
"478 0 LINE"
);
}
);
width = 638;
},
{
anchors = (
{
name = bottom;
position = "{336, 0}";
},
{
name = center;
position = "{334, 264}";
},
{
name = ogonek;
position = "{592, 0}";
},
{
name = top;
position = "{342, 528}";
},
{
name = topright;
position = "{636, 528}";
}
);
components = (
{
alignment = -1;
name = _part.bowl.ss01;
transform = "{-1, 0, 0, 1, 656, 0}";
}
);
layerId = "2D8F7115-C311-411E-929D-56333CF7FFB2";
paths = (
{
closed = 1;
nodes = (
"592 0 LINE",
"592 528 LINE",
"428 528 LINE",
"428 472 LINE",
"408 472 LINE",
"430 420 LINE",
"430 88 LINE",
"412 60 LINE",
"428 60 LINE",
"428 0 LINE"
);
}
);
width = 654;
},
{
anchors = (
{
name = bottom;
position = "{326, 0}";
},
{
name = center;
position = "{328, 264}";
},
{
name = ogonek;
position = "{574, 0}";
},
{
name = top;
position = "{334, 522}";
},
{
name = topright;
position = "{626, 522}";
}
);
associatedMasterId = "AB099EFE-E788-4EFC-8633-CF147CB782A6";
components = (
{
alignment = -1;
name = _part.bowl.ss01;
transform = "{-1, 0, 0, 1, 648, 0}";
}
);
layerId = "AC8A3195-6078-46FD-AA9D-1AC5F6AC1630";
name = "{120}";
paths = (
{
closed = 1;
nodes = (
"574 0 LINE",
"574 522 LINE",
"464 522 LINE",
"464 454 LINE",
"448 454 LINE",
"466 418 LINE",
"466 98 LINE",
"448 70 LINE",
"464 70 LINE",
"464 0 LINE"
);
}
);
width = 646;
}
);
leftKerningGroup = LAT_O_LC;
leftMetricsKey = o;
rightKerningGroup = LAT_ASS01_LC;
},
{
color = 6;
glyphname = a.ss02;
lastChange = "2020-06-30 05:54:13 +0000";
layers = (
{
anchors = (
{
name = bottom;
position = "{288, 0}";
},
{
name = ogonek;
position = "{538, -8}";
},
{
name = top;
position = "{288, 512}";
},
{
name = topright;
position = "{566, 512}";
}
);
components = (
{
name = _part.bowl;
transform = "{-1, 0, 0, 1, 588, 0}";
}
);
layerId = "AB099EFE-E788-4EFC-8633-CF147CB782A6";
paths = (
{
closed = 1;
nodes = (
"550 20 LINE",
"520 34 OFFCURVE",
"504 52 OFFCURVE",
"504 108 CURVE SMOOTH",
"504 512 LINE",
"474 512 LINE",
"474 408 LINE",
"462 408 LINE",
"476 366 LINE",
"476 144 LINE",
"464 108 LINE",
"478 108 LINE",
"474 114 LINE",
"474 42 OFFCURVE",
"494 17 OFFCURVE",
"538 -8 CURVE"
);
}
);
width = 602;
},
{
anchors = (
{
name = bottom;
position = "{314, 0}";
},
{
name = ogonek;
position = "{558, -8}";
},
{
name = top;
position = "{314, 528}";
},
{
name = topright;
position = "{612, 528}";
}
);
components = (
{
name = _part.bowl;
transform = "{-1, 0, 0, 1, 638, 0}";
}
);
layerId = "2D8F7115-C311-411E-929D-56333CF7FFB2";
paths = (
{
closed = 1;
nodes = (
"618 136 LINE",
"584 148 OFFCURVE",
"576 155 OFFCURVE",
"576 204 CURVE SMOOTH",
"576 528 LINE",
"412 528 LINE",
"412 482 LINE",
"388 482 LINE",
"412 436 LINE",
"412 134 LINE",
"392 70 LINE",
"436 70 LINE",
"426 78 LINE",
"441 36 OFFCURVE",
"492 9 OFFCURVE",
"558 -8 CURVE"
);
}
);
width = 654;
},
{
anchors = (
{
name = bottom;
position = "{306, 0}";
},
{
name = ogonek;
position = "{540, -8}";
},
{
name = top;
position = "{312, 518}";
},
{
name = topright;
position = "{588, 518}";
}
);
associatedMasterId = "AB099EFE-E788-4EFC-8633-CF147CB782A6";
components = (
{
alignment = -1;
name = _part.bowl;
transform = "{-1, 0, 0, 1, 608, 0}";
}
);
layerId = "8800A8A0-C1A8-4E64-8632-EB559640DF97";
name = "{88}";
paths = (
{
closed = 1;
nodes = (
"572 68 LINE",
"538 81 OFFCURVE",
"530 100 OFFCURVE",
"530 146 CURVE SMOOTH",
"530 518 LINE",
"446 518 LINE",
"446 456 LINE",
"418 456 LINE",
"460 402 LINE",
"460 142 LINE",
"434 80 LINE",
"482 80 LINE",
"456 96 LINE",
"460 42 OFFCURVE",
"489 16 OFFCURVE",
"540 -8 CURVE"
);
}
);
width = 618;
}
);
leftKerningGroup = LAT_O_LC;
leftMetricsKey = o;
rightKerningGroup = LAT_A_LC;
rightMetricsKey = u;
},
{
glyphname = ae;
lastChange = "2020-06-28 11:00:16 +0000";
layers = (
{
anchors = (
{
name = bottom;
position = "{410, 0}";
},
{
name = top;
position = "{402, 512}";
}
);
layerId = "AB099EFE-E788-4EFC-8633-CF147CB782A6";
paths = (
{
closed = 1;
nodes = (
"314 -8 OFFCURVE",
"385 59 OFFCURVE",
"406 144 CURVE",
"400 144 LINE",
"431 50 OFFCURVE",
"502 -8 OFFCURVE",
"602 -8 CURVE SMOOTH",
"668 -8 OFFCURVE",
"724 18 OFFCURVE",
"766 58 CURVE",
"754 90 LINE",
"720 52 OFFCURVE",
"660 20 OFFCURVE",
"598 20 CURVE SMOOTH",
"492 20 OFFCURVE",
"413 113 OFFCURVE",
"412 266 CURVE SMOOTH",
"414 407 OFFCURVE",
"488 492 OFFCURVE",
"592 492 CURVE SMOOTH",
"702 492 OFFCURVE",
"768 400 OFFCURVE",
"766 276 CURVE",
"406 276 LINE",
"406 248 LINE",
"796 248 LINE",
"798 262 OFFCURVE",
"798 272 OFFCURVE",
"798 278 CURVE SMOOTH",
"798 424 OFFCURVE",
"714 520 OFFCURVE",
"592 520 CURVE SMOOTH",
"505 520 OFFCURVE",
"435 472 OFFCURVE",
"402 382 CURVE",
"410 382 LINE",
"399 468 OFFCURVE",
"357 520 OFFCURVE",
"252 520 CURVE SMOOTH",
"196 520 OFFCURVE",
"122 495 OFFCURVE",
"84 464 CURVE",
"98 438 LINE",
"134 468 OFFCURVE",
"201 492 OFFCURVE",
"250 492 CURVE SMOOTH",
"346 492 OFFCURVE",
"382 444 OFFCURVE",
"382 338 CURVE SMOOTH",
"382 194 LINE SMOOTH",
"382 78 OFFCURVE",
"291 20 OFFCURVE",
"214 20 CURVE SMOOTH",
"136 20 OFFCURVE",
"86 70 OFFCURVE",
"86 134 CURVE SMOOTH",
"86 208 OFFCURVE",
"152 248 OFFCURVE",
"292 248 CURVE SMOOTH",
"390 248 LINE",
"390 276 LINE",
"296 276 LINE SMOOTH",
"140 276 OFFCURVE",
"56 230 OFFCURVE",
"56 134 CURVE SMOOTH",
"56 48 OFFCURVE",
"122 -8 OFFCURVE",
"214 -8 CURVE SMOOTH"
);
}
);
width = 852;
},
{
anchors = (
{
name = bottom;
position = "{426, 0}";
},
{
name = top;
position = "{424, 518}";
}
);
associatedMasterId = "AB099EFE-E788-4EFC-8633-CF147CB782A6";
layerId = "0E3DB635-11FF-4F4F-AC72-BA6CB2FC7FF1";
name = "{88}";
paths = (
{
closed = 1;
nodes = (
"339 -8 OFFCURVE",
"408 57 OFFCURVE",
"432 120 CURVE",
"410 120 LINE",
"449 41 OFFCURVE",
"512 -8 OFFCURVE",
"612 -8 CURVE SMOOTH",
"678 -8 OFFCURVE",
"742 15 OFFCURVE",
"780 50 CURVE",
"750 122 LINE",
"713 87 OFFCURVE",
"664 67 OFFCURVE",
"610 68 CURVE SMOOTH",
"517 67 OFFCURVE",
"451 136 OFFCURVE",
"452 264 CURVE SMOOTH",
"451 387 OFFCURVE",
"515 450 OFFCURVE",
"598 450 CURVE SMOOTH",
"685 450 OFFCURVE",
"736 384 OFFCURVE",
"734 298 CURVE",
"440 298 LINE",
"440 226 LINE",
"810 226 LINE",
"812 237 OFFCURVE",
"814 254 OFFCURVE",
"814 276 CURVE SMOOTH",
"814 433 OFFCURVE",
"724 526 OFFCURVE",
"602 526 CURVE SMOOTH",
"525 526 OFFCURVE",
"456 490 OFFCURVE",
"416 422 CURVE",
"438 422 LINE",
"419 483 OFFCURVE",
"372 526 OFFCURVE",
"268 526 CURVE SMOOTH",
"196 526 OFFCURVE",
"118 503 OFFCURVE",
"80 476 CURVE",
"110 404 LINE",
"140 429 OFFCURVE",
"209 450 OFFCURVE",
"266 450 CURVE SMOOTH",
"376 450 OFFCURVE",
"378 377 OFFCURVE",
"378 300 CURVE SMOOTH",
"378 190 LINE SMOOTH",
"378 116 OFFCURVE",
"305 67 OFFCURVE",
"234 68 CURVE SMOOTH",
"176 67 OFFCURVE",
"131 96 OFFCURVE",
"132 148 CURVE SMOOTH",
"131 199 OFFCURVE",
"177 226 OFFCURVE",
"282 226 CURVE SMOOTH",
"392 226 LINE",
"392 298 LINE",
"282 298 LINE SMOOTH",
"136 298 OFFCURVE",
"48 244 OFFCURVE",
"48 146 CURVE SMOOTH",
"48 51 OFFCURVE",
"126 -8 OFFCURVE",
"230 -8 CURVE SMOOTH"
);
}
);
width = 860;
},
{
anchors = (
{
name = bottom;
position = "{434, 0}";
},
{
name = top;
position = "{438, 528}";
}
);
background = {
paths = (
{
closed = 0;
nodes = (
"264 116 LINE",
"230 116 OFFCURVE",
"202 134 OFFCURVE",
"202 162 CURVE SMOOTH",
"202 197 OFFCURVE",
"228 214 OFFCURVE",
"278 214 CURVE SMOOTH",
"376 214 LINE",
"376 312 LINE",
"242 312 LINE SMOOTH",
"116 312 OFFCURVE",
"36 243 OFFCURVE",
"36 150 CURVE SMOOTH",
"36 63 OFFCURVE",
"108 -8 OFFCURVE",
"216 -8 CURVE SMOOTH"
);
}
);
};
layerId = "2D8F7115-C311-411E-929D-56333CF7FFB2";
paths = (
{
closed = 1;
nodes = (
"356 -8 OFFCURVE",
"434 66 OFFCURVE",
"442 110 CURVE",
"400 110 LINE",
"440 40 OFFCURVE",
"512 -8 OFFCURVE",
"612 -8 CURVE SMOOTH",
"678 -8 OFFCURVE",
"748 10 OFFCURVE",
"782 34 CURVE",
"730 160 LINE",
"696 136 OFFCURVE",
"660 124 OFFCURVE",
"620 124 CURVE SMOOTH",
"578 124 OFFCURVE",
"482 138 OFFCURVE",
"482 270 CURVE SMOOTH",
"482 378 OFFCURVE",
"548 408 OFFCURVE",
"594 408 CURVE SMOOTH",
"648 408 OFFCURVE",
"686 366 OFFCURVE",
"686 314 CURVE",
"464 314 LINE",
"472 216 LINE",
"826 216 LINE",
"830 236 OFFCURVE",
"832 256 OFFCURVE",
"832 280 CURVE SMOOTH",
"832 470 OFFCURVE",
"706 536 OFFCURVE",
"604 536 CURVE SMOOTH",
"530 536 OFFCURVE",
"434 500 OFFCURVE",
"416 440 CURVE",
"468 440 LINE",
"446 492 OFFCURVE",
"394 536 OFFCURVE",
"274 536 CURVE SMOOTH",
"178 536 OFFCURVE",
"104 508 OFFCURVE",
"68 486 CURVE",
"122 358 LINE",
"152 380 OFFCURVE",
"210 402 OFFCURVE",
"270 402 CURVE SMOOTH",
"368 402 OFFCURVE",
"356 344 OFFCURVE",
"356 304 CURVE SMOOTH",
"356 204 LINE SMOOTH",
"356 150 OFFCURVE",
"320 116 OFFCURVE",
"266 116 CURVE SMOOTH",
"228 116 OFFCURVE",
"202 132 OFFCURVE",
"202 164 CURVE SMOOTH",
"202 214 OFFCURVE",
"260 216 OFFCURVE",
"276 216 CURVE SMOOTH",
"374 216 LINE",
"374 314 LINE",
"240 314 LINE SMOOTH",
"116 314 OFFCURVE",
"36 252 OFFCURVE",
"36 158 CURVE SMOOTH",
"36 72 OFFCURVE",
"106 -8 OFFCURVE",
"230 -8 CURVE SMOOTH"
);
}
);
width = 860;
}
);
leftKerningGroup = LAT_ASS02_LC;
leftMetricsKey = a;
rightKerningGroup = LAT_E_LC;
rightMetricsKey = e;
unicode = 00E6;
},
{
glyphname = b;
lastChange = "2020-06-30 06:54:50 +0000";
layers = (
{
anchors = (
{
name = bottom;
position = "{296, 0}";
},
{
name = center;
position = "{98, 616}";
},
{
name = top;
position = "{320, 564}";
}
);
components = (
{
name = _part.bowl;
}
);
layerId = "AB099EFE-E788-4EFC-8633-CF147CB782A6";
paths = (
{
closed = 1;
nodes = (
"84 0 LINE",
"114 0 LINE",
"114 108 LINE",
"130 108 LINE",
"108 152 LINE",
"108 356 LINE",
"124 408 LINE",
"114 408 LINE",
"114 752 LINE",
"84 752 LINE"
);
}
);
width = 588;
},
{
anchors = (
{
name = bottom;
position = "{324, 0}";
},
{
name = center;
position = "{146, 634}";
},
{
name = top;
position = "{398, 568}";
}
);
components = (
{
name = _part.bowl;
}
);
layerId = "2D8F7115-C311-411E-929D-56333CF7FFB2";
paths = (
{
closed = 1;
nodes = (
"60 0 LINE",
"224 0 LINE",
"224 56 LINE",
"246 56 LINE",
"224 110 LINE",
"224 398 LINE",
"246 488 LINE",
"234 488 LINE",
"234 752 LINE",
"60 752 LINE"
);
}
);
width = 638;
},
{
anchors = (
{
name = bottom;
position = "{308, 0}";
},
{
name = center;
position = "{118, 624}";
},
{
name = top;
position = "{350, 566}";
}
);
associatedMasterId = "AB099EFE-E788-4EFC-8633-CF147CB782A6";
components = (
{
alignment = -1;
name = _part.bowl;
}
);
layerId = "6D342056-F393-4E15-A020-D3735294CAB9";
name = "{88}";
paths = (
{
closed = 1;
nodes = (
"76 0 LINE",
"160 0 LINE",
"160 70 LINE",
"176 70 LINE",
"148 120 LINE",
"148 398 LINE",
"168 452 LINE",
"160 452 LINE",
"160 752 LINE",
"76 752 LINE"
);
}
);
width = 608;
}
);
leftKerningGroup = LAT_H_UC;
leftMetricsKey = h;
rightKerningGroup = LAT_O_LC;
rightMetricsKey = o;
unicode = 0062;
},
{
color = 4;
glyphname = b.ss01;
lastChange = "2020-06-28 03:57:43 +0000";
layers = (
{
anchors = (
{
name = bottom;
position = "{296, 0}";
},
{
name = center;
position = "{98, 616}";
},
{
name = top;
position = "{320, 564}";
}
);
components = (
{
name = _part.bowl.ss01;
transform = "{1, 0, 0, 1, -4, 0}";
}
);
layerId = "AB099EFE-E788-4EFC-8633-CF147CB782A6";
paths = (
{
closed = 1;
nodes = (
"82 0 LINE",
"112 0 LINE",
"112 116 LINE",
"122 116 LINE",
"110 132 LINE",
"110 364 LINE",
"118 394 LINE",
"112 394 LINE",
"112 752 LINE",
"82 752 LINE"
);
}
);
width = 620;
},
{
anchors = (
{
name = bottom;
position = "{330, 0}";
},
{
name = center;
position = "{152, 634}";
},
{
name = top;
position = "{404, 568}";
}
);
components = (
{
name = _part.bowl.ss01;
}
);
layerId = "2D8F7115-C311-411E-929D-56333CF7FFB2";
paths = (
{
closed = 1;
nodes = (
"66 0 LINE",
"230 0 LINE",
"230 60 LINE",
"252 60 LINE",
"226 110 LINE",
"226 398 LINE",
"252 484 LINE",
"240 484 LINE",
"240 752 LINE",
"66 752 LINE"
);
}
);
width = 656;
},
{
anchors = (
{
name = bottom;
position = "{313, 0}";
},
{
name = center;
position = "{125, 625}";
},
{
name = top;
position = "{362, 566}";
}
);
associatedMasterId = "AB099EFE-E788-4EFC-8633-CF147CB782A6";
components = (
{
alignment = -1;
name = _part.bowl.ss01;
}
);
layerId = "5A761FBB-D991-4916-A5B6-6B494825C86B";
name = "{106}";
paths = (
{
closed = 1;
nodes = (
"74 0 LINE",
"176 0 LINE",
"176 62 LINE",
"188 62 LINE",
"172 94 LINE",
"172 404 LINE",
"186 460 LINE",
"176 460 LINE",
"176 752 LINE",
"74 752 LINE"
);
}
);
width = 644;
},
{
anchors = (
{
name = bottom;
position = "{310, 0}";
},
{
name = center;
position = "{118, 624}";
},
{
name = top;
position = "{350, 566}";
}
);
associatedMasterId = "AB099EFE-E788-4EFC-8633-CF147CB782A6";
components = (
{
alignment = -1;
name = _part.bowl.ss01;
}
);
layerId = "C834B1E7-C4D5-4508-B8E5-F0618CE2E605";
name = "{88}";
paths = (
{
closed = 1;
nodes = (
"76 0 LINE",
"160 0 LINE",
"160 76 LINE",
"172 76 LINE",
"158 104 LINE",
"158 394 LINE",
"170 444 LINE",
"160 444 LINE",
"160 752 LINE",
"76 752 LINE"
);
}
);
width = 640;
}
);
leftKerningGroup = LAT_L_LC;
rightKerningGroup = LAT_O_LC;
rightMetricsKey = o;
},
{
glyphname = c;
lastChange = "2020-06-28 03:59:27 +0000";
layers = (
{
anchors = (
{
name = base;
position = "{404, 0}";
},
{
name = bottom;
position = "{288, 0}";
},
{
name = cedilla;
position = "{296, 0}";
},
{
name = top;
position = "{288, 512}";
}
);
layerId = "AB099EFE-E788-4EFC-8633-CF147CB782A6";
paths = (
{
closed = 1;
nodes = (
"358 -6 OFFCURVE",
"416 14 OFFCURVE",
"460 52 CURVE",
"446 82 LINE",
"418 50 OFFCURVE",
"362 24 OFFCURVE",
"300 24 CURVE SMOOTH",
"184 24 OFFCURVE",
"86 124 OFFCURVE",
"86 258 CURVE SMOOTH",
"86 394 OFFCURVE",
"190 492 OFFCURVE",
"302 492 CURVE SMOOTH",
"344 492 OFFCURVE",
"410 474 OFFCURVE",
"444 438 CURVE",
"458 468 LINE",
"416 500 OFFCURVE",
"356 520 OFFCURVE",
"302 520 CURVE SMOOTH",
"174 520 OFFCURVE",
"56 412 OFFCURVE",
"56 258 CURVE SMOOTH",
"56 106 OFFCURVE",
"168 -6 OFFCURVE",
"298 -6 CURVE SMOOTH"
);
}
);
userData = {
RMXScaler = {
height = 71.5;
weight = 20;
width = 77;
};
};
width = 504;
},
{
anchors = (
{
name = base;
position = "{428, 0}";
},
{
name = bottom;
position = "{314, 0}";
},
{
name = cedilla;
position = "{320, 0}";
},
{
name = top;
position = "{320, 528}";
}
);
layerId = "2D8F7115-C311-411E-929D-56333CF7FFB2";
paths = (
{
closed = 1;
nodes = (
"384 -6 OFFCURVE",
"440 12 OFFCURVE",
"478 34 CURVE",
"416 176 LINE",
"394 156 OFFCURVE",
"356 142 OFFCURVE",
"318 142 CURVE SMOOTH",
"244 142 OFFCURVE",
"196 198 OFFCURVE",
"196 266 CURVE SMOOTH",
"196 336 OFFCURVE",
"246 388 OFFCURVE",
"318 388 CURVE SMOOTH",
"356 388 OFFCURVE",
"388 374 OFFCURVE",
"414 350 CURVE",
"478 488 LINE",
"432 518 OFFCURVE",
"374 536 OFFCURVE",
"314 536 CURVE SMOOTH",
"164 536 OFFCURVE",
"32 422 OFFCURVE",
"32 266 CURVE SMOOTH",
"32 112 OFFCURVE",
"162 -6 OFFCURVE",
"322 -6 CURVE SMOOTH"
);
}
);
userData = {
RMXScaler = {
height = 73.5;
weight = -50;
width = 73;
};
};
width = 498;
},
{
anchors = (
{
name = base;
position = "{414, 0}";
},
{
name = bottom;
position = "{298, 0}";
},
{
name = cedilla;
position = "{306, 0}";
},
{
name = top;
position = "{300, 518}";
}
);
associatedMasterId = "AB099EFE-E788-4EFC-8633-CF147CB782A6";
layerId = "730CC673-E1F4-4EDE-A678-4178C1E89CEE";
name = "{88}";
paths = (
{
closed = 1;
nodes = (
"372 -6 OFFCURVE",
"430 16 OFFCURVE",
"468 46 CURVE",
"436 118 LINE",
"408 92 OFFCURVE",
"360 72 OFFCURVE",
"308 72 CURVE SMOOTH",
"206 72 OFFCURVE",
"134 152 OFFCURVE",
"134 260 CURVE SMOOTH",
"134 374 OFFCURVE",
"212 448 OFFCURVE",
"306 448 CURVE SMOOTH",
"350 448 OFFCURVE",
"404 430 OFFCURVE",
"434 404 CURVE",
"466 476 LINE",
"424 506 OFFCURVE",
"364 526 OFFCURVE",
"304 526 CURVE SMOOTH",
"166 526 OFFCURVE",
"48 418 OFFCURVE",
"48 262 CURVE SMOOTH",
"48 110 OFFCURVE",
"160 -6 OFFCURVE",
"306 -6 CURVE SMOOTH"
);
}
);
userData = {
RMXScaler = {
height = 71.5;
weight = 20;
width = 77;
};
};
width = 502;
}
);
leftKerningGroup = LAT_O_LC;
leftMetricsKey = o;
rightKerningGroup = LAT_C_LC;
unicode = 0063;
userData = {
RMXScaler = {
source = C;
};
};
},
{
glyphname = d;
lastChange = "2020-06-30 06:54:30 +0000";
layers = (
{
anchors = (
{
name = bottom;
position = "{300, 0}";
},
{
name = center;
position = "{488, 616}";
},
{
name = leghookretroflex;
position = "{488, 0}";
},
{
name = top;
position = "{486, 752}";
},
{
name = topright;
position = "{502, 752}";
}
);
components = (
{
name = _part.bowl;
transform = "{-1, 0, 0, 1, 588, 0}";
}
);
layerId = "AB099EFE-E788-4EFC-8633-CF147CB782A6";
paths = (
{
closed = 1;
nodes = (
"548 20 LINE",
"511 38 OFFCURVE",
"502 57 OFFCURVE",
"502 114 CURVE SMOOTH",
"502 754 LINE",
"472 754 LINE",
"472 408 LINE",
"460 408 LINE",
"478 370 LINE",
"478 144 LINE",
"462 108 LINE",
"476 108 LINE",
"472 114 LINE",
"474 39 OFFCURVE",
"492 16 OFFCURVE",
"534 -8 CURVE"
);
}
);
width = 594;
},
{
anchors = (
{
name = bottom;
position = "{314, 0}";
},
{
name = center;
position = "{488, 634}";
},
{
name = leghookretroflex;
position = "{490, 0}";
},
{
name = top;
position = "{490, 752}";
},
{
name = topright;
position = "{576, 752}";
}
);
components = (
{
name = _part.bowl;
transform = "{-1, 0, 0, 1, 638, 0}";
}
);
layerId = "2D8F7115-C311-411E-929D-56333CF7FFB2";
paths = (
{
closed = 1;
nodes = (
"618 136 LINE",
"589 145 OFFCURVE",
"576 155 OFFCURVE",
"576 192 CURVE SMOOTH",
"576 752 LINE",
"402 752 LINE",
"402 490 LINE",
"388 490 LINE",
"412 436 LINE",
"412 134 LINE",
"392 70 LINE",
"436 70 LINE",
"426 78 LINE",
"439 42 OFFCURVE",
"482 12 OFFCURVE",
"558 -8 CURVE"
);
}
);
width = 656;
},
{
anchors = (
{
name = bottom;
position = "{300, 0}";
},
{
name = center;
position = "{488, 622}";
},
{
name = leghookretroflex;
position = "{488, 0}";
},
{
name = top;
position = "{488, 752}";
},
{
name = topright;
position = "{590, 752}";
}
);
associatedMasterId = "AB099EFE-E788-4EFC-8633-CF147CB782A6";
components = (
{
alignment = -1;
name = _part.bowl;
transform = "{-1, 0, 0, 1, 608, 0}";
}
);
layerId = "70582F37-530C-4519-B5C3-20C9E2A2BC67";
name = "{88}";
paths = (
{
closed = 1;
nodes = (
"572 68 LINE",
"538 83 OFFCURVE",
"530 99 OFFCURVE",
"530 144 CURVE SMOOTH",
"530 752 LINE",
"446 752 LINE",
"446 454 LINE",
"436 454 LINE",
"460 402 LINE",
"460 142 LINE",
"434 84 LINE",
"482 84 LINE",
"458 96 LINE",
"458 50 OFFCURVE",
"480 19 OFFCURVE",
"540 -8 CURVE"
);
}
);
width = 620;
}
);
leftKerningGroup = LAT_O_LC;
leftMetricsKey = o;
rightKerningGroup = LAT_D_LC;
unicode = 0064;
},
{
glyphname = eth;
lastChange = "2020-06-28 04:01:12 +0000";
layers = (
{
layerId = "AB099EFE-E788-4EFC-8633-CF147CB782A6";
paths = (
{
closed = 1;
nodes = (
"442 -8 OFFCURVE",
"538 104 OFFCURVE",
"538 292 CURVE SMOOTH",
"538 550 OFFCURVE",
"352 708 OFFCURVE",
"172 762 CURVE",
"162 736 LINE",
"286 698 OFFCURVE",
"444 596 OFFCURVE",
"500 400 CURVE",
"506 408 LINE",
"490 408 LINE",
"508 390 LINE",
"470 462 OFFCURVE",
"386 500 OFFCURVE",
"306 500 CURVE SMOOTH",
"164 500 OFFCURVE",
"60 390 OFFCURVE",
"60 244 CURVE SMOOTH",
"60 102 OFFCURVE",
"164 -8 OFFCURVE",
"302 -8 CURVE SMOOTH"
);
},
{
closed = 1;
nodes = (
"182 16 OFFCURVE",
"90 118 OFFCURVE",
"90 248 CURVE SMOOTH",
"90 374 OFFCURVE",
"178 472 OFFCURVE",
"308 472 CURVE SMOOTH",
"406 472 OFFCURVE",
"508 414 OFFCURVE",
"508 268 CURVE SMOOTH",
"508 134 OFFCURVE",
"426 24 OFFCURVE",
"304 20 CURVE SMOOTH"
);
},
{
closed = 1;
nodes = (
"464 738 LINE",
"454 760 LINE",
"156 596 LINE",
"168 572 LINE"
);
}
);
width = 598;
},
{
layerId = "2D8F7115-C311-411E-929D-56333CF7FFB2";
paths = (
{
closed = 1;
nodes = (
"474 -8 OFFCURVE",
"588 126 OFFCURVE",
"588 318 CURVE SMOOTH",
"588 532 OFFCURVE",
"446 710 OFFCURVE",
"182 830 CURVE",
"116 696 LINE",
"266 642 OFFCURVE",
"376 550 OFFCURVE",
"422 438 CURVE",
"444 462 LINE",
"400 462 LINE",
"430 428 LINE",
"414 484 OFFCURVE",
"338 502 OFFCURVE",
"282 502 CURVE SMOOTH",
"148 502 OFFCURVE",
"32 396 OFFCURVE",
"32 252 CURVE SMOOTH",
"32 102 OFFCURVE",
"154 -8 OFFCURVE",
"306 -8 CURVE SMOOTH"
);
},
{
closed = 1;
nodes = (
"244 144 OFFCURVE",
"198 194 OFFCURVE",
"198 260 CURVE SMOOTH",
"198 324 OFFCURVE",
"244 368 OFFCURVE",
"310 368 CURVE SMOOTH",
"376 368 OFFCURVE",
"422 324 OFFCURVE",
"422 260 CURVE SMOOTH",
"422 194 OFFCURVE",
"376 144 OFFCURVE",
"310 144 CURVE SMOOTH"
);
},
{
closed = 1;
nodes = (
"524 738 LINE",
"464 826 LINE",
"118 592 LINE",
"162 528 LINE"
);
}
);
width = 620;
},
{
associatedMasterId = "AB099EFE-E788-4EFC-8633-CF147CB782A6";
background = {
components = (
{
name = delta;
transform = "{1, 0, 0, 1, -4, 0}";
}
);
};
layerId = "91BDAD2D-5B11-4BE0-BF5F-19682392A8C1";
name = "{106}";
paths = (
{
closed = 1;
nodes = (
"454 -8 OFFCURVE",
"560 108 OFFCURVE",
"560 306 CURVE SMOOTH",
"560 556 OFFCURVE",
"394 704 OFFCURVE",
"178 796 CURVE",
"140 714 LINE",
"272 662 OFFCURVE",
"410 574 OFFCURVE",
"456 434 CURVE",
"470 450 LINE",
"444 450 LINE",
"460 432 LINE",
"440 472 OFFCURVE",
"376 504 OFFCURVE",
"298 504 CURVE SMOOTH",
"158 504 OFFCURVE",
"48 402 OFFCURVE",
"48 254 CURVE SMOOTH",
"48 102 OFFCURVE",
"160 -8 OFFCURVE",
"306 -8 CURVE SMOOTH"
);
},
{
closed = 1;
nodes = (
"218 88 OFFCURVE",
"150 164 OFFCURVE",
"150 258 CURVE SMOOTH",
"150 350 OFFCURVE",
"218 414 OFFCURVE",
"308 414 CURVE SMOOTH",
"396 414 OFFCURVE",
"462 352 OFFCURVE",
"462 258 CURVE SMOOTH",
"462 164 OFFCURVE",
"396 88 OFFCURVE",
"308 88 CURVE SMOOTH"
);
},
{
closed = 1;
nodes = (
"500 742 LINE",
"464 798 LINE",
"140 606 LINE",
"174 550 LINE"
);
}
);
width = 608;
},
{
associatedMasterId = "AB099EFE-E788-4EFC-8633-CF147CB782A6";
layerId = "46A73106-2076-4479-9456-DD205E3E29F4";
name = "{88}";
paths = (
{
closed = 1;
nodes = (
"452 -8 OFFCURVE",
"556 108 OFFCURVE",
"556 304 CURVE SMOOTH",
"556 554 OFFCURVE",
"382 706 OFFCURVE",
"178 788 CURVE",
"146 720 LINE",
"274 672 OFFCURVE",
"418 578 OFFCURVE",
"468 426 CURVE",
"480 440 LINE",
"456 440 LINE",
"472 422 LINE",
"450 466 OFFCURVE",
"380 504 OFFCURVE",
"298 504 CURVE SMOOTH",
"160 504 OFFCURVE",
"52 400 OFFCURVE",
"52 250 CURVE SMOOTH",
"52 98 OFFCURVE",
"164 -8 OFFCURVE",
"306 -8 CURVE SMOOTH"
);
},
{
closed = 1;
nodes = (
"214 68 OFFCURVE",
"136 144 OFFCURVE",
"136 252 CURVE SMOOTH",
"136 356 OFFCURVE",
"208 426 OFFCURVE",
"306 426 CURVE SMOOTH",
"398 426 OFFCURVE",
"474 364 OFFCURVE",
"474 258 CURVE SMOOTH",
"474 150 OFFCURVE",
"400 72 OFFCURVE",
"308 70 CURVE SMOOTH"
);
},
{
closed = 1;
nodes = (
"492 742 LINE",
"462 790 LINE",
"144 604 LINE",
"174 556 LINE"
);
}
);
width = 606;
}
);
leftKerningGroup = LAT_ETH_LC;
rightKerningGroup = LAT_ETH_LC;
unicode = 00F0;
},
{
glyphname = e;
lastChange = "2020-06-29 10:21:50 +0000";
layers = (
{
anchors = (
{
name = bottom;
position = "{290, 0}";
},
{
name = cedilla;
position = "{284, 0}";
},
{
name = ogonek;
position = "{436, 38}";
},
{
name = top;
position = "{286, 512}";
}
);
layerId = "AB099EFE-E788-4EFC-8633-CF147CB782A6";
paths = (
{
closed = 1;
nodes = (
"362 -8 OFFCURVE",
"423 22 OFFCURVE",
"462 58 CURVE",
"450 86 LINE",
"406 48 OFFCURVE",
"354 22 OFFCURVE",
"288 20 CURVE SMOOTH",
"166 22 OFFCURVE",
"86 114 OFFCURVE",
"86 254 CURVE SMOOTH",
"86 402 OFFCURVE",
"176 492 OFFCURVE",
"286 492 CURVE SMOOTH",
"398 492 OFFCURVE",
"472 398 OFFCURVE",
"468 274 CURVE",
"80 274 LINE",
"80 246 LINE",
"500 246 LINE",
"500 260 OFFCURVE",
"500 272 OFFCURVE",
"500 284 CURVE SMOOTH",
"500 420 OFFCURVE",
"414 520 OFFCURVE",
"286 520 CURVE SMOOTH",
"156 520 OFFCURVE",
"56 418 OFFCURVE",
"56 254 CURVE SMOOTH",
"56 100 OFFCURVE",
"150 -8 OFFCURVE",
"290 -8 CURVE SMOOTH"
);
}
);
width = 554;
},
{
anchors = (
{
name = bottom;
position = "{294, 0}";
},
{
name = cedilla;
position = "{288, 0}";
},
{
name = ogonek;
position = "{456, 44}";
},
{
name = top;
position = "{284, 516}";
}
);
associatedMasterId = "AB099EFE-E788-4EFC-8633-CF147CB782A6";
layerId = "DEC75A3F-7345-4B73-A3DB-385CA58BC787";
name = "{68}";
paths = (
{
closed = 1;
nodes = (
"364 -8 OFFCURVE",
"426 18 OFFCURVE",
"466 50 CURVE",
"440 110 LINE",
"412 84 OFFCURVE",
"360 52 OFFCURVE",
"294 52 CURVE SMOOTH",
"186 52 OFFCURVE",
"112 134 OFFCURVE",
"112 258 CURVE SMOOTH",
"112 384 OFFCURVE",
"186 464 OFFCURVE",
"284 464 CURVE SMOOTH",
"382 464 OFFCURVE",
"444 386 OFFCURVE",
"444 290 CURVE",
"100 290 LINE",
"100 234 LINE",
"504 234 LINE",
"504 244 OFFCURVE",
"508 268 OFFCURVE",
"508 288 CURVE SMOOTH",
"512 406 OFFCURVE",
"426 524 OFFCURVE",
"282 524 CURVE SMOOTH",
"150 524 OFFCURVE",
"50 422 OFFCURVE",
"50 258 CURVE SMOOTH",
"50 96 OFFCURVE",
"148 -8 OFFCURVE",
"292 -8 CURVE SMOOTH"
);
}
);
width = 556;
},
{
anchors = (
{
name = bottom;
position = "{298, 0}";
},
{
name = cedilla;
position = "{292, 0}";
},
{
name = ogonek;
position = "{470, 46}";
},
{
name = top;
position = "{286, 518}";
}
);
associatedMasterId = "AB099EFE-E788-4EFC-8633-CF147CB782A6";
guideLines = (
{
angle = 112.5;
position = "{470, 46}";
}
);
layerId = "BF4E67D7-E1E9-4927-8F49-9D490C36FB3C";
name = "{88}";
paths = (
{
closed = 1;
nodes = (
"368 -8 OFFCURVE",
"430 16 OFFCURVE",
"470 46 CURVE",
"438 122 LINE",
"410 98 OFFCURVE",
"364 70 OFFCURVE",
"302 70 CURVE SMOOTH",
"196 70 OFFCURVE",
"130 146 OFFCURVE",
"130 260 CURVE SMOOTH",
"130 372 OFFCURVE",
"194 448 OFFCURVE",
"286 448 CURVE SMOOTH",
"376 448 OFFCURVE",
"432 378 OFFCURVE",
"432 294 CURVE",
"112 294 LINE",
"112 226 LINE",
"508 226 LINE",
"510 236 OFFCURVE",
"514 260 OFFCURVE",
"514 288 CURVE SMOOTH",
"514 426 OFFCURVE",
"420 526 OFFCURVE",
"286 526 CURVE SMOOTH",
"150 526 OFFCURVE",
"48 422 OFFCURVE",
"48 260 CURVE SMOOTH",
"48 96 OFFCURVE",
"152 -8 OFFCURVE",
"298 -8 CURVE SMOOTH"
);
}
);
width = 560;
},
{
anchors = (
{
name = bottom;
position = "{302, 0}";
},
{
name = cedilla;
position = "{302, 0}";
},
{
name = ogonek;
position = "{482, 40}";
},
{
name = top;
position = "{290, 524}";
}
);
associatedMasterId = "AB099EFE-E788-4EFC-8633-CF147CB782A6";
guideLines = (
{
angle = 112.5;
position = "{460, 92}";
}
);
layerId = "AA661440-5A2D-4B91-AB53-22C2BE9F23B9";
name = "{140}";
paths = (
{
closed = 1;
nodes = (
"376 -8 OFFCURVE",
"438 10 OFFCURVE",
"482 40 CURVE",
"438 146 LINE",
"404 120 OFFCURVE",
"356 102 OFFCURVE",
"306 102 CURVE SMOOTH",
"212 102 OFFCURVE",
"156 168 OFFCURVE",
"156 264 CURVE SMOOTH",
"156 358 OFFCURVE",
"208 420 OFFCURVE",
"286 420 CURVE SMOOTH",
"358 420 OFFCURVE",
"404 376 OFFCURVE",
"404 310 CURVE",
"138 310 LINE",
"138 218 LINE",
"520 218 LINE",
"526 248 OFFCURVE",
"528 276 OFFCURVE",
"528 294 CURVE SMOOTH",
"528 410 OFFCURVE",
"440 528 OFFCURVE",
"290 530 CURVE SMOOTH",
"148 532 OFFCURVE",
"38 418 OFFCURVE",
"38 260 CURVE SMOOTH",
"38 104 OFFCURVE",
"144 -8 OFFCURVE",
"310 -8 CURVE SMOOTH"
);
}
);
width = 564;
},
{
anchors = (
{
name = bottom;
position = "{312, 0}";
},
{
name = cedilla;
position = "{316, 0}";
},
{
name = ogonek;
position = "{490, 34}";
},
{
name = top;
position = "{298, 528}";
}
);
layerId = "2D8F7115-C311-411E-929D-56333CF7FFB2";
paths = (
{
closed = 1;
nodes = (
"388 -8 OFFCURVE",
"452 10 OFFCURVE",
"490 34 CURVE",
"438 158 LINE",
"420 144 OFFCURVE",
"362 128 OFFCURVE",
"318 128 CURVE SMOOTH",
"240 128 OFFCURVE",
"180 182 OFFCURVE",
"180 268 CURVE SMOOTH",
"180 338 OFFCURVE",
"220 404 OFFCURVE",
"298 404 CURVE SMOOTH",
"348 404 OFFCURVE",
"386 372 OFFCURVE",
"386 312 CURVE",
"168 312 LINE",
"168 208 LINE",
"538 208 LINE",
"542 222 OFFCURVE",
"546 256 OFFCURVE",
"546 286 CURVE SMOOTH",
"546 430 OFFCURVE",
"442 536 OFFCURVE",
"298 536 CURVE SMOOTH",
"154 536 OFFCURVE",
"34 428 OFFCURVE",
"32 262 CURVE SMOOTH",
"32 104 OFFCURVE",
"142 -8 OFFCURVE",
"318 -8 CURVE SMOOTH"
);
}
);
width = 574;
}
);
leftKerningGroup = LAT_O_LC;
leftMetricsKey = o;
rightKerningGroup = LAT_E_LC;
unicode = 0065;
},
{
glyphname = f;
lastChange = "2020-06-30 05:23:41 +0000";
layers = (
{
anchors = (
{
name = bottom;
position = "{152, 0}";
},
{
name = top;
position = "{244, 752}";
}
);
layerId = "AB099EFE-E788-4EFC-8633-CF147CB782A6";
paths = (
{
closed = 1;
nodes = (
"164 0 LINE",
"164 620 LINE SMOOTH",
"164 678 OFFCURVE",
"192 732 OFFCURVE",
"254 732 CURVE SMOOTH",
"270 732 OFFCURVE",
"286 730 OFFCURVE",
"300 724 CURVE",
"312 750 LINE",
"294 758 OFFCURVE",
"276 760 OFFCURVE",
"256 760 CURVE SMOOTH",
"172 760 OFFCURVE",
"134 696 OFFCURVE",
"134 614 CURVE SMOOTH",
"134 0 LINE"
);
},
{
closed = 1;
nodes = (
"298 484 LINE",
"298 512 LINE",
"48 512 LINE",
"48 484 LINE"
);
}
);
width = 348;
},
{
anchors = (
{
name = bottom;
position = "{174, 0}";
},
{
name = top;
position = "{264, 752}";
}
);
associatedMasterId = "AB099EFE-E788-4EFC-8633-CF147CB782A6";
layerId = "725D9EF7-6360-48C2-AB1B-3E40E4C59398";
name = "{88}";
paths = (
{
closed = 1;
nodes = (
"212 0 LINE",
"212 602 LINE SMOOTH",
"212 652 OFFCURVE",
"236 682 OFFCURVE",
"278 682 CURVE SMOOTH",
"294 682 OFFCURVE",
"310 677 OFFCURVE",
"322 670 CURVE",
"354 744 LINE",
"332 753 OFFCURVE",
"310 760 OFFCURVE",
"278 760 CURVE SMOOTH",
"182 760 OFFCURVE",
"128 698 OFFCURVE",
"128 610 CURVE SMOOTH",
"128 0 LINE"
);
},
{
closed = 1;
nodes = (
"340 442 LINE",
"340 518 LINE",
"38 518 LINE",
"36 442 LINE"
);
}
);
width = 382;
},
{
anchors = (
{
name = bottom;
position = "{212, 0}";
},
{
name = top;
position = "{284, 752}";
}
);
layerId = "2D8F7115-C311-411E-929D-56333CF7FFB2";
paths = (
{
closed = 1;
nodes = (
"292 0 LINE",
"292 558 LINE SMOOTH",
"292 600 OFFCURVE",
"316 618 OFFCURVE",
"350 618 CURVE SMOOTH",
"362 618 OFFCURVE",
"376 616 OFFCURVE",
"390 612 CURVE",
"446 752 LINE",
"415 765 OFFCURVE",
"365 770 OFFCURVE",
"320 770 CURVE SMOOTH",
"184 770 OFFCURVE",
"118 684 OFFCURVE",
"118 562 CURVE SMOOTH",
"118 0 LINE"
);
},
{
closed = 1;
nodes = (
"418 380 LINE",
"418 528 LINE",
"20 528 LINE",
"20 380 LINE"
);
}
);
width = 458;
},
{
anchors = (
{
name = bottom;
position = "{194, 0}";
},
{
name = top;
position = "{276, 752}";
}
);
associatedMasterId = "AB099EFE-E788-4EFC-8633-CF147CB782A6";
layerId = "516F4623-5CD8-441C-8966-F6D84AE729AE";
name = "{140}";
paths = (
{
closed = 1;
nodes = (
"256 0 LINE",
"256 580 LINE SMOOTH",
"256 625 OFFCURVE",
"283 646 OFFCURVE",
"320 646 CURVE SMOOTH",
"331 646 OFFCURVE",
"344 643 OFFCURVE",
"358 638 CURVE",
"402 748 LINE",
"373 759 OFFCURVE",
"338 764 OFFCURVE",
"302 764 CURVE SMOOTH",
"184 764 OFFCURVE",
"124 692 OFFCURVE",
"124 588 CURVE SMOOTH",
"124 0 LINE"
);
},
{
closed = 1;
nodes = (
"380 416 LINE",
"380 524 LINE",
"28 524 LINE",
"28 416 LINE"
);
}
);
width = 420;
}
);
leftKerningGroup = LAT_F_LC;
rightKerningGroup = LAT_F_LC;
unicode = 0066;
},
{
glyphname = g;
lastChange = "2020-06-29 11:50:24 +0000";
layers = (
{
anchors = (
{
name = bottom;
position = "{292, -206}";
},
{
name = top;
position = "{290, 512}";
}
);
layerId = "AB099EFE-E788-4EFC-8633-CF147CB782A6";
paths = (
{
closed = 1;
nodes = (
"378 -214 OFFCURVE",
"504 -156 OFFCURVE",
"504 4 CURVE SMOOTH",
"504 512 LINE",
"474 512 LINE",
"474 408 LINE",
"470 408 LINE",
"476 378 LINE",
"476 138 LINE",
"470 108 LINE",
"474 108 LINE",
"474 2 LINE SMOOTH",
"474 -120 OFFCURVE",
"390 -184 OFFCURVE",
"282 -184 CURVE SMOOTH",
"222 -184 OFFCURVE",
"164 -164 OFFCURVE",
"124 -130 CURVE",
"112 -160 LINE",
"150 -190 OFFCURVE",
"222 -214 OFFCURVE",
"284 -214 CURVE SMOOTH"
);
},
{
closed = 1;
nodes = (
"402 -8 OFFCURVE",
"504 78 OFFCURVE",
"504 258 CURVE SMOOTH",
"504 438 OFFCURVE",
"404 520 OFFCURVE",
"282 520 CURVE SMOOTH",
"144 520 OFFCURVE",
"58 420 OFFCURVE",
"58 258 CURVE SMOOTH",
"58 92 OFFCURVE",
"148 -8 OFFCURVE",
"282 -8 CURVE SMOOTH"
);
},
{
closed = 1;
nodes = (
"170 20 OFFCURVE",
"88 112 OFFCURVE",
"88 258 CURVE SMOOTH",
"88 398 OFFCURVE",
"162 492 OFFCURVE",
"280 492 CURVE SMOOTH",
"396 492 OFFCURVE",
"476 402 OFFCURVE",
"476 262 CURVE SMOOTH",
"476 120 OFFCURVE",
"396 20 OFFCURVE",
"280 20 CURVE SMOOTH"
);
}
);
width = 588;
},
{
anchors = (
{
name = bottom;
position = "{314, -206}";
},
{
name = top;
position = "{304, 528}";
}
);
layerId = "2D8F7115-C311-411E-929D-56333CF7FFB2";
paths = (
{
closed = 1;
nodes = (
"462 -214 OFFCURVE",
"576 -126 OFFCURVE",
"576 34 CURVE SMOOTH",
"576 528 LINE",
"420 528 LINE",
"420 478 LINE",
"380 478 LINE",
"412 420 LINE",
"412 122 LINE",
"398 72 LINE",
"412 72 LINE",
"412 24 LINE SMOOTH",
"412 -42 OFFCURVE",
"330 -70 OFFCURVE",
"268 -70 CURVE SMOOTH",
"220 -70 OFFCURVE",
"174 -54 OFFCURVE",
"134 -32 CURVE",
"78 -166 LINE",
"120 -188 OFFCURVE",
"198 -214 OFFCURVE",
"288 -214 CURVE SMOOTH"
);
},
{
closed = 1;
nodes = (
"398 14 OFFCURVE",
"500 138 OFFCURVE",
"500 282 CURVE SMOOTH",
"500 420 OFFCURVE",
"406 536 OFFCURVE",
"270 536 CURVE SMOOTH",
"154 536 OFFCURVE",
"36 452 OFFCURVE",
"36 272 CURVE SMOOTH",
"36 90 OFFCURVE",
"156 14 OFFCURVE",
"264 14 CURVE SMOOTH"
);
},
{
closed = 1;
nodes = (
"246 154 OFFCURVE",
"204 202 OFFCURVE",
"204 278 CURVE SMOOTH",
"204 354 OFFCURVE",
"248 398 OFFCURVE",
"310 398 CURVE SMOOTH",
"370 398 OFFCURVE",
"412 354 OFFCURVE",
"412 278 CURVE SMOOTH",
"412 202 OFFCURVE",
"368 154 OFFCURVE",
"306 152 CURVE SMOOTH"
);
}
);
width = 636;
},
{
anchors = (
{
name = bottom;
position = "{302, -206}";
},
{
name = top;
position = "{296, 520}";
}
);
associatedMasterId = "AB099EFE-E788-4EFC-8633-CF147CB782A6";
guideLines = (
{
angle = 67.5;
position = "{164, 4}";
}
);
layerId = "D548E82C-F1D5-44DE-B786-3582CB4D3885";
name = "{106}";
paths = (
{
closed = 1;
nodes = (
"418 -214 OFFCURVE",
"540 -142 OFFCURVE",
"540 20 CURVE SMOOTH",
"540 520 LINE",
"438 520 LINE",
"438 462 LINE",
"416 462 LINE",
"444 412 LINE",
"444 122 LINE",
"424 74 LINE",
"442 74 LINE",
"442 14 LINE SMOOTH",
"442 -88 OFFCURVE",
"346 -124 OFFCURVE",
"276 -124 CURVE SMOOTH",
"220 -124 OFFCURVE",
"156 -98 OFFCURVE",
"130 -76 CURVE",
"94 -164 LINE",
"136 -188 OFFCURVE",
"208 -214 OFFCURVE",
"286 -214 CURVE SMOOTH"
);
},
{
closed = 1;
nodes = (
"414 0 OFFCURVE",
"508 120 OFFCURVE",
"508 268 CURVE SMOOTH",
"508 414 OFFCURVE",
"418 528 OFFCURVE",
"286 528 CURVE SMOOTH",
"162 528 OFFCURVE",
"44 428 OFFCURVE",
"44 264 CURVE SMOOTH",
"44 104 OFFCURVE",
"158 0 OFFCURVE",
"282 0 CURVE SMOOTH"
);
},
{
closed = 1;
nodes = (
"210 92 OFFCURVE",
"148 168 OFFCURVE",
"148 266 CURVE SMOOTH",
"148 364 OFFCURVE",
"210 438 OFFCURVE",
"298 436 CURVE SMOOTH",
"382 438 OFFCURVE",
"444 368 OFFCURVE",
"444 266 CURVE SMOOTH",
"444 164 OFFCURVE",
"382 92 OFFCURVE",
"298 90 CURVE SMOOTH"
);
}
);
width = 608;
},
{
anchors = (
{
name = bottom;
position = "{300, -206}";
},
{
name = top;
position = "{296, 518}";
}
);
associatedMasterId = "AB099EFE-E788-4EFC-8633-CF147CB782A6";
guideLines = (
{
angle = 67.5;
position = "{168, 4}";
}
);
layerId = "4C7B5ED9-CAFC-47FD-BB5A-CF614265E3B0";
name = "{88}";
paths = (
{
closed = 1;
nodes = (
"408 -214 OFFCURVE",
"532 -146 OFFCURVE",
"532 16 CURVE SMOOTH",
"532 518 LINE",
"448 518 LINE",
"448 452 LINE",
"430 452 LINE",
"454 404 LINE",
"454 126 LINE",
"436 80 LINE",
"450 80 LINE",
"450 12 LINE SMOOTH",
"450 -96 OFFCURVE",
"360 -138 OFFCURVE",
"284 -138 CURVE SMOOTH",
"224 -138 OFFCURVE",
"162 -114 OFFCURVE",
"130 -90 CURVE",
"98 -164 LINE",
"138 -190 OFFCURVE",
"212 -214 OFFCURVE",
"286 -214 CURVE SMOOTH"
);
},
{
closed = 1;
nodes = (
"410 -2 OFFCURVE",
"508 110 OFFCURVE",
"508 266 CURVE SMOOTH",
"508 420 OFFCURVE",
"414 526 OFFCURVE",
"284 526 CURVE SMOOTH",
"158 526 OFFCURVE",
"48 428 OFFCURVE",
"48 264 CURVE SMOOTH",
"48 100 OFFCURVE",
"156 -2 OFFCURVE",
"280 -2 CURVE SMOOTH"
);
},
{
closed = 1;
nodes = (
"200 76 OFFCURVE",
"134 154 OFFCURVE",
"134 264 CURVE SMOOTH",
"134 372 OFFCURVE",
"198 450 OFFCURVE",
"294 448 CURVE SMOOTH",
"386 450 OFFCURVE",
"452 376 OFFCURVE",
"452 266 CURVE SMOOTH",
"452 154 OFFCURVE",
"386 76 OFFCURVE",
"294 76 CURVE SMOOTH"
);
}
);
width = 604;
}
);
leftKerningGroup = LAT_G_LC;
rightKerningGroup = LAT_G_LC;
unicode = 0067;
},
{
color = 4;
glyphname = g.ss01;
lastChange = "2020-06-28 04:19:55 +0000";
layers = (
{
anchors = (
{
name = bottom;
position = "{314, -206}";
},
{
name = top;
position = "{312, 512}";
}
);
components = (
{
name = _part.bowl.ss01;
transform = "{-1, 0, 0, 1, 626, 0}";
}
);
layerId = "AB099EFE-E788-4EFC-8633-CF147CB782A6";
paths = (
{
closed = 1;
nodes = (
"406 -214 OFFCURVE",
"540 -156 OFFCURVE",
"540 4 CURVE SMOOTH",
"540 512 LINE",
"510 512 LINE",
"510 396 LINE",
"502 396 LINE",
"512 362 LINE",
"512 154 LINE",
"504 120 LINE",
"510 120 LINE",
"510 2 LINE SMOOTH",
"510 -136 OFFCURVE",
"392 -186 OFFCURVE",
"306 -184 CURVE SMOOTH",
"242 -184 OFFCURVE",
"172 -164 OFFCURVE",
"132 -130 CURVE",
"120 -160 LINE",
"158 -190 OFFCURVE",
"242 -214 OFFCURVE",
"306 -214 CURVE SMOOTH"
);
}
);
width = 624;
},
{
anchors = (
{
name = bottom;
position = "{332, -206}";
},
{
name = top;
position = "{322, 528}";
}
);
components = (
{
name = _part.bowl.ss01;
transform = "{-1, 0, 0, 0.95973, 660, 22}";
}
);
layerId = "2D8F7115-C311-411E-929D-56333CF7FFB2";
paths = (
{
closed = 1;
nodes = (
"476 -214 OFFCURVE",
"594 -126 OFFCURVE",
"594 34 CURVE SMOOTH",
"594 528 LINE",
"430 528 LINE",
"430 478 LINE",
"408 478 LINE",
"430 418 LINE",
"430 104 LINE",
"402 78 LINE",
"430 78 LINE",
"430 24 LINE SMOOTH",
"430 -46 OFFCURVE",
"342 -70 OFFCURVE",
"282 -70 CURVE SMOOTH",
"232 -70 OFFCURVE",
"178 -54 OFFCURVE",
"138 -32 CURVE",
"82 -166 LINE",
"124 -188 OFFCURVE",
"198 -214 OFFCURVE",
"296 -214 CURVE SMOOTH"
);
}
);
width = 654;
},
{
anchors = (
{
name = bottom;
position = "{328, -206}";
},
{
name = top;
position = "{322, 520}";
}
);
associatedMasterId = "AB099EFE-E788-4EFC-8633-CF147CB782A6";
components = (
{
alignment = -1;
name = _part.bowl.ss01;
transform = "{-1, 0, 0, 0.97986, 644, 12}";
}
);
layerId = "D548E82C-F1D5-44DE-B786-3582CB4D3885";
name = "{106}";
paths = (
{
closed = 1;
nodes = (
"450 -216 OFFCURVE",
"568 -138 OFFCURVE",
"568 20 CURVE SMOOTH",
"568 520 LINE",
"468 520 LINE",
"468 460 LINE",
"454 460 LINE",
"472 416 LINE",
"472 120 LINE",
"462 70 LINE",
"466 70 LINE",
"466 14 LINE SMOOTH",
"466 -90 OFFCURVE",
"372 -125 OFFCURVE",
"298 -126 CURVE SMOOTH",
"234 -125 OFFCURVE",
"177 -101 OFFCURVE",
"134 -68 CURVE",
"96 -160 LINE",
"142 -193 OFFCURVE",
"220 -216 OFFCURVE",
"300 -216 CURVE SMOOTH"
);
}
);
width = 636;
},
{
anchors = (
{
name = bottom;
position = "{326, -206}";
},
{
name = top;
position = "{320, 518}";
}
);
associatedMasterId = "AB099EFE-E788-4EFC-8633-CF147CB782A6";
components = (
{
alignment = -1;
name = _part.bowl.ss01;
transform = "{-1, 0, 0, 0.98476, 640, 10}";
}
);
layerId = "33F2CFB4-E92F-45A8-B301-CE29318548B3";
name = "{88}";
paths = (
{
closed = 1;
nodes = (
"439 -216 OFFCURVE",
"562 -142 OFFCURVE",
"562 16 CURVE SMOOTH",
"562 518 LINE",
"478 518 LINE",
"478 446 LINE",
"466 446 LINE",
"484 404 LINE",
"484 128 LINE",
"468 82 LINE",
"478 82 LINE",
"478 12 LINE SMOOTH",
"478 -101 OFFCURVE",
"377 -140 OFFCURVE",
"300 -140 CURVE SMOOTH",
"236 -139 OFFCURVE",
"176 -118 OFFCURVE",
"134 -86 CURVE",
"102 -160 LINE",
"146 -192 OFFCURVE",
"225 -216 OFFCURVE",
"302 -216 CURVE SMOOTH"
);
}
);
width = 634;
}
);
leftKerningGroup = LAT_G_LC;
leftMetricsKey = g;
rightKerningGroup = LAT_G_LC;
rightMetricsKey = g;
},
{
color = 7;
glyphname = g.ss03;
lastChange = "2020-06-30 04:23:14 +0000";
layers = (
{
anchors = (
{
name = bottom;
position = "{278, -214}";
},
{
name = top;
position = "{266, 512}";
}
);
layerId = "AB099EFE-E788-4EFC-8633-CF147CB782A6";
paths = (
{
closed = 1;
nodes = (
"408 -214 OFFCURVE",
"512 -144 OFFCURVE",
"512 -52 CURVE SMOOTH",
"512 16 OFFCURVE",
"456 62 OFFCURVE",
"358 62 CURVE SMOOTH",
"222 62 LINE SMOOTH",
"156 62 OFFCURVE",
"106 96 OFFCURVE",
"106 154 CURVE SMOOTH",
"106 180 OFFCURVE",
"122 202 OFFCURVE",
"136 214 CURVE",
"116 236 LINE",
"98 220 OFFCURVE",
"78 190 OFFCURVE",
"78 154 CURVE SMOOTH",
"78 96 OFFCURVE",
"124 34 OFFCURVE",
"222 34 CURVE SMOOTH",
"366 34 LINE SMOOTH",
"440 34 OFFCURVE",
"482 0 OFFCURVE",
"482 -52 CURVE SMOOTH",
"482 -126 OFFCURVE",
"398 -186 OFFCURVE",
"272 -186 CURVE SMOOTH",
"160 -186 OFFCURVE",
"86 -138 OFFCURVE",
"86 -68 CURVE SMOOTH",
"86 -16 OFFCURVE",
"128 36 OFFCURVE",
"168 52 CURVE",
"142 70 LINE",
"94 44 OFFCURVE",
"56 -9 OFFCURVE",
"56 -68 CURVE SMOOTH",
"56 -154 OFFCURVE",
"142 -214 OFFCURVE",
"270 -214 CURVE SMOOTH"
);
},
{
closed = 1;
nodes = (
"384 162 OFFCURVE",
"466 236 OFFCURVE",
"466 342 CURVE SMOOTH",
"466 446 OFFCURVE",
"388 520 OFFCURVE",
"266 520 CURVE SMOOTH",
"150 520 OFFCURVE",
"68 450 OFFCURVE",
"68 344 CURVE SMOOTH",
"68 236 OFFCURVE",
"152 162 OFFCURVE",
"268 162 CURVE SMOOTH"
);
},
{
closed = 1;
nodes = (
"172 190 OFFCURVE",
"100 254 OFFCURVE",
"100 342 CURVE SMOOTH",
"100 432 OFFCURVE",
"172 492 OFFCURVE",
"266 492 CURVE SMOOTH",
"364 492 OFFCURVE",
"434 432 OFFCURVE",
"434 342 CURVE SMOOTH",
"434 254 OFFCURVE",
"364 190 OFFCURVE",
"266 190 CURVE SMOOTH"
);
},
{
closed = 1;
nodes = (
"448 470 OFFCURVE",
"482 488 OFFCURVE",
"522 506 CURVE",
"506 534 LINE",
"468 516 OFFCURVE",
"432 494 OFFCURVE",
"404 472 CURVE",
"418 446 LINE"
);
}
);
width = 562;
},
{
anchors = (
{
name = bottom;
position = "{296, -218}";
},
{
name = top;
position = "{286, 528}";
}
);
layerId = "2D8F7115-C311-411E-929D-56333CF7FFB2";
paths = (
{
closed = 1;
nodes = (
"486 -222 OFFCURVE",
"586 -148 OFFCURVE",
"586 -40 CURVE SMOOTH",
"586 48 OFFCURVE",
"518 102 OFFCURVE",
"408 102 CURVE SMOOTH",
"286 102 LINE SMOOTH",
"230 102 OFFCURVE",
"186 120 OFFCURVE",
"186 154 CURVE SMOOTH",
"186 174 OFFCURVE",
"198 188 OFFCURVE",
"212 194 CURVE",
"154 246 LINE",
"94 218 OFFCURVE",
"72 154 OFFCURVE",
"72 118 CURVE SMOOTH",
"72 40 OFFCURVE",
"164 -2 OFFCURVE",
"298 -2 CURVE SMOOTH",
"358 -2 LINE SMOOTH",
"400 -2 OFFCURVE",
"426 -18 OFFCURVE",
"426 -40 CURVE SMOOTH",
"426 -72 OFFCURVE",
"374 -88 OFFCURVE",
"306 -88 CURVE SMOOTH",
"234 -88 OFFCURVE",
"158 -70 OFFCURVE",
"158 -28 CURVE SMOOTH",
"158 -4 OFFCURVE",
"180 20 OFFCURVE",
"208 28 CURVE",
"112 62 LINE",
"64 50 OFFCURVE",
"20 -10 OFFCURVE",
"20 -68 CURVE SMOOTH",
"20 -156 OFFCURVE",
"120 -222 OFFCURVE",
"298 -222 CURVE SMOOTH"
);
},
{
closed = 1;
nodes = (
"420 150 OFFCURVE",
"516 232 OFFCURVE",
"516 344 CURVE SMOOTH",
"516 456 OFFCURVE",
"418 536 OFFCURVE",
"284 536 CURVE SMOOTH",
"154 536 OFFCURVE",
"58 460 OFFCURVE",
"58 350 CURVE SMOOTH",
"58 236 OFFCURVE",
"158 150 OFFCURVE",
"290 150 CURVE SMOOTH"
);
},
{
closed = 1;
nodes = (
"242 266 OFFCURVE",
"206 298 OFFCURVE",
"206 342 CURVE SMOOTH",
"206 382 OFFCURVE",
"242 416 OFFCURVE",
"286 416 CURVE SMOOTH",
"334 416 OFFCURVE",
"368 382 OFFCURVE",
"368 340 CURVE SMOOTH",
"368 298 OFFCURVE",
"336 266 OFFCURVE",
"288 266 CURVE SMOOTH"
);
},
{
closed = 1;
nodes = (
"512 452 OFFCURVE",
"528 458 OFFCURVE",
"592 458 CURVE",
"560 582 LINE",
"510 568 OFFCURVE",
"468 552 OFFCURVE",
"390 492 CURVE",
"462 434 LINE"
);
}
);
width = 604;
},
{
anchors = (
{
name = bottom;
position = "{280, -216}";
},
{
name = top;
position = "{274, 518}";
}
);
associatedMasterId = "AB099EFE-E788-4EFC-8633-CF147CB782A6";
layerId = "121B7FB0-DB9A-4507-ADFB-2D2A53DA814C";
name = "{88}";
paths = (
{
closed = 1;
nodes = (
"440 -216 OFFCURVE",
"534 -134 OFFCURVE",
"536 -46 CURVE SMOOTH",
"538 28 OFFCURVE",
"476 82 OFFCURVE",
"378 82 CURVE SMOOTH",
"256 82 LINE SMOOTH",
"214 82 OFFCURVE",
"158 94 OFFCURVE",
"158 146 CURVE SMOOTH",
"158 168 OFFCURVE",
"168 184 OFFCURVE",
"188 198 CURVE",
"142 238 LINE",
"106 214 OFFCURVE",
"86 182 OFFCURVE",
"86 144 CURVE SMOOTH",
"86 84 OFFCURVE",
"138 10 OFFCURVE",
"266 10 CURVE SMOOTH",
"352 10 LINE SMOOTH",
"408 10 OFFCURVE",
"452 -4 OFFCURVE",
"452 -46 CURVE SMOOTH",
"452 -100 OFFCURVE",
"382 -140 OFFCURVE",
"280 -140 CURVE SMOOTH",
"196 -140 OFFCURVE",
"124 -112 OFFCURVE",
"124 -52 CURVE SMOOTH",
"124 -8 OFFCURVE",
"162 22 OFFCURVE",
"194 32 CURVE",
"128 68 LINE",
"78 42 OFFCURVE",
"44 -6 OFFCURVE",
"44 -60 CURVE SMOOTH",
"44 -152 OFFCURVE",
"140 -216 OFFCURVE",
"280 -216 CURVE SMOOTH"
);
},
{
closed = 1;
nodes = (
"396 160 OFFCURVE",
"480 238 OFFCURVE",
"480 344 CURVE SMOOTH",
"480 452 OFFCURVE",
"394 526 OFFCURVE",
"276 526 CURVE SMOOTH",
"158 526 OFFCURVE",
"70 452 OFFCURVE",
"70 344 CURVE SMOOTH",
"70 234 OFFCURVE",
"158 160 OFFCURVE",
"276 160 CURVE SMOOTH"
);
},
{
closed = 1;
nodes = (
"208 232 OFFCURVE",
"154 278 OFFCURVE",
"154 342 CURVE SMOOTH",
"154 406 OFFCURVE",
"206 454 OFFCURVE",
"278 454 CURVE SMOOTH",
"340 454 OFFCURVE",
"396 416 OFFCURVE",
"396 344 CURVE SMOOTH",
"396 278 OFFCURVE",
"348 232 OFFCURVE",
"278 232 CURVE SMOOTH"
);
},
{
closed = 1;
nodes = (
"468 458 OFFCURVE",
"496 474 OFFCURVE",
"544 484 CURVE",
"508 558 LINE",
"466 540 OFFCURVE",
"426 518 OFFCURVE",
"380 486 CURVE",
"430 438 LINE"
);
}
);
width = 572;
}
);
leftKerningGroup = LAT_GSS03_LC;
rightKerningGroup = LAT_GSS03_LC;
},
{
glyphname = h;
lastChange = "2020-06-30 07:00:58 +0000";
layers = (
{
anchors = (
{
name = bottom;
position = "{276, 0}";
},
{
name = center;
position = "{100, 616}";
},
{
name = top;
position = "{100, 720}";
}
);
layerId = "AB099EFE-E788-4EFC-8633-CF147CB782A6";
paths = (
{
closed = 1;
nodes = (
"114 0 LINE",
"114 326 LINE SMOOTH",
"114 412 OFFCURVE",
"192 492 OFFCURVE",
"290 492 CURVE SMOOTH",
"374 492 OFFCURVE",
"436 434 OFFCURVE",
"436 322 CURVE SMOOTH",
"436 0 LINE",
"466 0 LINE",
"466 330 LINE SMOOTH",
"466 456 OFFCURVE",
"390 520 OFFCURVE",
"292 520 CURVE SMOOTH",
"204 520 OFFCURVE",
"132 468 OFFCURVE",
"108 402 CURVE",
"128 420 LINE",
"114 420 LINE",
"114 752 LINE",
"84 752 LINE",
"84 0 LINE"
);
}
);
width = 546;
},
{
anchors = (
{
name = bottom;
position = "{308, 0}";
},
{
name = center;
position = "{146, 634}";
},
{
name = top;
position = "{146, 752}";
}
);
layerId = "2D8F7115-C311-411E-929D-56333CF7FFB2";
paths = (
{
closed = 1;
nodes = (
"234 0 LINE",
"234 308 LINE SMOOTH",
"234 364 OFFCURVE",
"268 394 OFFCURVE",
"312 394 CURVE SMOOTH",
"356 394 OFFCURVE",
"384 366 OFFCURVE",
"384 310 CURVE SMOOTH",
"384 0 LINE",
"558 0 LINE",
"558 348 LINE SMOOTH",
"558 464 OFFCURVE",
"492 536 OFFCURVE",
"382 536 CURVE SMOOTH",
"304 536 OFFCURVE",
"224 500 OFFCURVE",
"208 424 CURVE",
"264 482 LINE",
"234 482 LINE",
"234 752 LINE",
"60 752 LINE",
"60 0 LINE"
);
}
);
width = 614;
},
{
anchors = (
{
name = bottom;
position = "{288, 0}";
},
{
name = center;
position = "{120, 622}";
},
{
name = top;
position = "{118, 740}";
}
);
associatedMasterId = "AB099EFE-E788-4EFC-8633-CF147CB782A6";
layerId = "00986AAE-4D41-460C-B46A-99650BE8CB7D";
name = "{88}";
paths = (
{
closed = 1;
nodes = (
"160 0 LINE",
"160 314 LINE SMOOTH",
"160 402 OFFCURVE",
"220 448 OFFCURVE",
"294 448 CURVE SMOOTH",
"368 448 OFFCURVE",
"418 402 OFFCURVE",
"418 314 CURVE SMOOTH",
"418 0 LINE",
"502 0 LINE",
"502 332 LINE SMOOTH",
"502 424 OFFCURVE",
"452 526 OFFCURVE",
"318 526 CURVE SMOOTH",
"234 526 OFFCURVE",
"166 486 OFFCURVE",
"142 420 CURVE",
"180 458 LINE",
"160 458 LINE",
"160 752 LINE",
"76 752 LINE",
"76 0 LINE"
);
}
);
width = 572;
}
);
leftKerningGroup = LAT_H_UC;
rightKerningGroup = LAT_N_LC;
rightMetricsKey = n;
unicode = 0068;
},
{
glyphname = idotless;
lastChange = "2020-06-29 02:30:24 +0000";
layers = (
{
anchors = (
{
name = bottom;
position = "{100, 0}";
},
{
name = ogonek;
position = "{118, 0}";
},
{
name = top;
position = "{102, 512}";
}
);
layerId = "AB099EFE-E788-4EFC-8633-CF147CB782A6";
paths = (
{
closed = 1;
nodes = (
"118 0 LINE",
"118 512 LINE",
"88 512 LINE",
"88 0 LINE"
);
}
);
width = 204;
},
{
anchors = (
{
name = bottom;
position = "{150, 0}";
},
{
name = ogonek;
position = "{150, 0}";
},
{
name = top;
position = "{150, 528}";
}
);
guideLines = (
{
angle = 60;
position = "{204, 0}";
}
);
layerId = "2D8F7115-C311-411E-929D-56333CF7FFB2";
paths = (
{
closed = 1;
nodes = (
"236 0 LINE",
"236 528 LINE",
"62 528 LINE",
"62 0 LINE"
);
}
);
width = 298;
},
{
anchors = (
{
name = bottom;
position = "{122, 0}";
},
{
name = ogonek;
position = "{130, 0}";
},
{
name = top;
position = "{122, 518}";
}
);
associatedMasterId = "AB099EFE-E788-4EFC-8633-CF147CB782A6";
layerId = "0DE48DDA-E6E3-4C58-AEA1-8A652859058F";
name = "{88}";
paths = (
{
closed = 1;
nodes = (
"164 0 LINE",
"164 518 LINE",
"80 518 LINE",
"80 0 LINE"
);
}
);
width = 244;
}
);
unicode = 0131;
},
{
color = 8;
glyphname = idotless.ss05;
lastChange = "2020-06-28 04:28:33 +0000";
layers = (
{
anchors = (
{
name = bottom;
position = "{146, 0}";
},
{
name = center;
position = "{106, 278}";
},
{
name = ogonek;
position = "{220, 6}";
},
{
name = top;
position = "{106, 512}";
}
);
guideLines = (
{
angle = 80;
position = "{178, -8}";
}
);
layerId = "AB099EFE-E788-4EFC-8633-CF147CB782A6";
paths = (
{
closed = 1;
nodes = (
"187 -4 OFFCURVE",
"209 0 OFFCURVE",
"220 6 CURVE",
"220 36 LINE",
"205 29 OFFCURVE",
"185 24 OFFCURVE",
"168 24 CURVE SMOOTH",
"122 24 OFFCURVE",
"120 58 OFFCURVE",
"120 102 CURVE SMOOTH",
"120 512 LINE",
"90 512 LINE",
"90 108 LINE SMOOTH",
"90 54 OFFCURVE",
"90 -4 OFFCURVE",
"170 -4 CURVE SMOOTH"
);
}
);
width = 242;
},
{
anchors = (
{
name = bottom;
position = "{164, 0}";
},
{
name = center;
position = "{152, 278}";
},
{
name = ogonek;
position = "{304, 8}";
},
{
name = top;
position = "{152, 528}";
}
);
guideLines = (
{
angle = 80;
position = "{272, -8}";
}
);
layerId = "2D8F7115-C311-411E-929D-56333CF7FFB2";
paths = (
{
closed = 1;
nodes = (
"242 -8 OFFCURVE",
"278 -4 OFFCURVE",
"304 8 CURVE",
"304 142 LINE",
"290 138 OFFCURVE",
"276 136 OFFCURVE",
"268 136 CURVE SMOOTH",
"237 136 OFFCURVE",
"236 156 OFFCURVE",
"236 184 CURVE SMOOTH",
"236 528 LINE",
"62 528 LINE",
"62 136 LINE SMOOTH",
"62 54 OFFCURVE",
"116 -8 OFFCURVE",
"214 -8 CURVE SMOOTH"
);
}
);
width = 330;
},
{
anchors = (
{
name = bottom;
position = "{163, 0}";
},
{
name = center;
position = "{127, 278}";
},
{
name = ogonek;
position = "{256, 4}";
},
{
name = top;
position = "{128, 518}";
}
);
associatedMasterId = "AB099EFE-E788-4EFC-8633-CF147CB782A6";
guideLines = (
{
angle = 80;
position = "{178, -8}";
}
);
layerId = "321AB8B9-A771-4B9B-B29D-85ACBBC34A03";
name = "{88}";
paths = (
{
closed = 1;
nodes = (
"220 -8 OFFCURVE",
"244 -2 OFFCURVE",
"256 4 CURVE",
"256 82 LINE",
"246 76 OFFCURVE",
"228 72 OFFCURVE",
"210 72 CURVE SMOOTH",
"168 72 OFFCURVE",
"168 98 OFFCURVE",
"168 128 CURVE SMOOTH",
"168 518 LINE",
"84 518 LINE",
"84 120 LINE SMOOTH",
"84 42 OFFCURVE",
"114 -8 OFFCURVE",
"188 -8 CURVE SMOOTH"
);
}
);
width = 284;
}
);
},
{
glyphname = jdotless;
lastChange = "2020-06-28 04:29:04 +0000";
layers = (
{
anchors = (
{
name = center;
position = "{126, 278}";
},
{
name = top;
position = "{126, 512}";
}
);
layerId = "AB099EFE-E788-4EFC-8633-CF147CB782A6";
paths = (
{
closed = 1;
nodes = (
"102 -214 OFFCURVE",
"140 -150 OFFCURVE",
"140 -68 CURVE SMOOTH",
"140 512 LINE",
"110 512 LINE",
"110 -74 LINE SMOOTH",
"110 -132 OFFCURVE",
"82 -184 OFFCURVE",
"14 -184 CURVE SMOOTH",
"3 -184 OFFCURVE",
"-10 -182 OFFCURVE",
"-22 -178 CURVE",
"-22 -210 LINE",
"-9 -213 OFFCURVE",
"5 -214 OFFCURVE",
"16 -214 CURVE SMOOTH"
);
}
);
width = 226;
},
{
anchors = (
{
name = center;
position = "{168, 278}";
},
{
name = top;
position = "{166, 528}";
}
);
layerId = "2D8F7115-C311-411E-929D-56333CF7FFB2";
paths = (
{
closed = 1;
nodes = (
"190 -218 OFFCURVE",
"254 -128 OFFCURVE",
"254 -6 CURVE SMOOTH",
"254 528 LINE",
"80 528 LINE",
"80 -18 LINE SMOOTH",
"80 -44 OFFCURVE",
"66 -64 OFFCURVE",
"26 -64 CURVE SMOOTH",
"12.493 -64 OFFCURVE",
"-6.716 -61.862 OFFCURVE",
"-22 -56.984 CURVE",
"-22 -210.504 LINE",
"2.104 -215.3 OFFCURVE",
"29.852 -218 OFFCURVE",
"54 -218 CURVE SMOOTH"
);
}
);
width = 316;
},
{
anchors = (
{
name = center;
position = "{148, 278}";
},
{
name = top;
position = "{146, 520}";
}
);
associatedMasterId = "AB099EFE-E788-4EFC-8633-CF147CB782A6";
layerId = "07B42797-D86D-41F2-ABBA-4C41B9928AA5";
name = "{106}";
paths = (
{
closed = 1;
nodes = (
"148 -214 OFFCURVE",
"198 -148 OFFCURVE",
"198 -60 CURVE SMOOTH",
"198 520 LINE",
"94 520 LINE",
"94 -48 LINE SMOOTH",
"94 -96 OFFCURVE",
"70 -118 OFFCURVE",
"28 -118 CURVE SMOOTH",
"16 -118 OFFCURVE",
"-2 -116 OFFCURVE",
"-16 -110 CURVE",
"-16 -208 LINE",
"0 -212 OFFCURVE",
"16 -214 OFFCURVE",
"36 -214 CURVE SMOOTH"
);
}
);
width = 272;
},
{
anchors = (
{
name = center;
position = "{142, 278}";
},
{
name = top;
position = "{142, 518}";
}
);
associatedMasterId = "AB099EFE-E788-4EFC-8633-CF147CB782A6";
layerId = "EB132040-D5D7-4295-AF68-F6014CBBD333";
name = "{88}";
paths = (
{
closed = 1;
nodes = (
"138 -214 OFFCURVE",
"184 -148 OFFCURVE",
"184 -62 CURVE SMOOTH",
"184 518 LINE",
"100 518 LINE",
"100 -54 LINE SMOOTH",
"100 -106 OFFCURVE",
"74 -134 OFFCURVE",
"26 -134 CURVE SMOOTH",
"14 -134 OFFCURVE",
"-4 -132 OFFCURVE",
"-18 -128 CURVE",
"-18 -208 LINE",
"-2 -212 OFFCURVE",
"14 -214 OFFCURVE",
"32 -214 CURVE SMOOTH"
);
}
);
width = 262;
}
);
leftKerningGroup = LAT_J_LC;
rightKerningGroup = LAT_J_LC;
unicode = 0237;
},
{
glyphname = k;
lastChange = "2020-06-30 07:01:41 +0000";
layers = (
{
anchors = (
{
name = bottom;
position = "{256, 0}";
},
{
name = top;
position = "{98, 752}";
}
);
layerId = "AB099EFE-E788-4EFC-8633-CF147CB782A6";
paths = (
{
closed = 1;
nodes = (
"114 0 LINE",
"114 246 LINE",
"156 246 LINE",
"132 258 LINE",
"404 0 LINE",
"446 0 LINE",
"162 270 LINE",
"162 252 LINE",
"428 512 LINE",
"384 512 LINE",
"132 264 LINE",
"156 276 LINE",
"114 276 LINE",
"114 752 LINE",
"84 752 LINE",
"84 0 LINE"
);
}
);
width = 478;
},
{
anchors = (
{
name = bottom;
position = "{316, 0}";
},
{
name = top;
position = "{148, 752}";
}
);
layerId = "2D8F7115-C311-411E-929D-56333CF7FFB2";
paths = (
{
closed = 1;
nodes = (
"234 0 LINE",
"234 222 LINE",
"276 222 LINE",
"222 248 LINE",
"410 0 LINE",
"612 0 LINE",
"350 326 LINE",
"350 226 LINE",
"602 528 LINE",
"400 528 LINE",
"224 296 LINE",
"276 322 LINE",
"234 322 LINE",
"234 752 LINE",
"60 752 LINE",
"60 0 LINE"
);
}
);
width = 620;
},
{
anchors = (
{
name = bottom;
position = "{278, 0}";
},
{
name = top;
position = "{118, 740}";
}
);
associatedMasterId = "AB099EFE-E788-4EFC-8633-CF147CB782A6";
layerId = "52B5A524-3FFA-473F-8AB4-14DE8555743B";
name = "{88}";
paths = (
{
closed = 1;
nodes = (
"160 0 LINE",
"160 234 LINE",
"202 234 LINE",
"164 258 LINE",
"404 0 LINE",
"514 0 LINE",
"240 294 LINE",
"240 248 LINE",
"498 518 LINE",
"388 518 LINE",
"164 284 LINE",
"202 306 LINE",
"160 306 LINE",
"160 752 LINE",
"76 752 LINE",
"76 0 LINE"
);
}
);
width = 534;
}
);
leftKerningGroup = LAT_H_UC;
leftMetricsKey = h;
rightKerningGroup = LAT_K_LC;
unicode = 006B;
},
{
glyphname = kgreenlandic;
lastChange = "2020-06-28 12:51:36 +0000";
layers = (
{
anchors = (
{
name = bottom;
position = "{242, 0}";
},
{
name = top;
position = "{242, 512}";
}
);
layerId = "AB099EFE-E788-4EFC-8633-CF147CB782A6";
paths = (
{
closed = 1;
nodes = (
"114 0 LINE",
"114 246 LINE",
"154 246 LINE",
"130 258 LINE",
"402 0 LINE",
"444 0 LINE",
"160 270 LINE",
"160 252 LINE",
"426 512 LINE",
"382 512 LINE",
"130 264 LINE",
"154 276 LINE",
"114 276 LINE",
"114 512 LINE",
"84 512 LINE",
"84 0 LINE"
);
}
);
width = 476;
},
{
anchors = (
{
name = bottom;
position = "{306, 0}";
},
{
name = top;
position = "{306, 528}";
}
);
layerId = "2D8F7115-C311-411E-929D-56333CF7FFB2";
paths = (
{
closed = 1;
nodes = (
"234 0 LINE",
"234 222 LINE",
"270 222 LINE",
"216 248 LINE",
"404 0 LINE",
"606 0 LINE",
"344 326 LINE",
"344 226 LINE",
"596 528 LINE",
"390 528 LINE",
"216 296 LINE",
"270 322 LINE",
"234 322 LINE",
"234 528 LINE",
"60 528 LINE",
"60 0 LINE"
);
}
);
width = 614;
},
{
anchors = (
{
name = bottom;
position = "{266, 0}";
},
{
name = top;
position = "{266, 518}";
}
);
associatedMasterId = "AB099EFE-E788-4EFC-8633-CF147CB782A6";
layerId = "66464B41-4D82-4B7E-BCF4-9E94F840820A";
name = "{88}";
paths = (
{
closed = 1;
nodes = (
"160 0 LINE",
"160 224 LINE",
"202 224 LINE",
"164 248 LINE",
"404 0 LINE",
"514 0 LINE",
"240 284 LINE",
"240 238 LINE",
"498 518 LINE",
"388 518 LINE",
"164 274 LINE",
"202 296 LINE",
"160 296 LINE",
"160 518 LINE",
"76 518 LINE",
"76 0 LINE"
);
}
);
width = 538;
}
);
leftMetricsKey = n;
rightMetricsKey = k;
unicode = 0138;
},
{
glyphname = l;
lastChange = "2020-06-30 07:02:03 +0000";
layers = (
{
anchors = (
{
name = bottom;
position = "{138, 0}";
},
{
name = center;
position = "{104, 360}";
},
{
name = dot;
position = "{236, 360}";
},
{
name = top;
position = "{104, 752}";
},
{
name = topright;
position = "{120, 752}";
}
);
layerId = "AB099EFE-E788-4EFC-8633-CF147CB782A6";
paths = (
{
closed = 1;
nodes = (
"166 -4 OFFCURVE",
"180 -2 OFFCURVE",
"190 2 CURVE",
"190 32 LINE",
"184 28 OFFCURVE",
"170 24 OFFCURVE",
"156 24 CURVE SMOOTH",
"118 24 OFFCURVE",
"118 54 OFFCURVE",
"118 86 CURVE SMOOTH",
"118 752 LINE",
"88 752 LINE",
"88 86 LINE SMOOTH",
"88 16 OFFCURVE",
"110 -4 OFFCURVE",
"154 -4 CURVE SMOOTH"
);
}
);
width = 222;
},
{
anchors = (
{
name = bottom;
position = "{178, 0}";
},
{
name = center;
position = "{150, 384}";
},
{
name = dot;
position = "{404, 368}";
},
{
name = top;
position = "{150, 752}";
},
{
name = topright;
position = "{238, 752}";
}
);
guideLines = (
{
angle = 100;
position = "{312, -12}";
}
);
layerId = "2D8F7115-C311-411E-929D-56333CF7FFB2";
paths = (
{
closed = 1;
nodes = (
"240 -8 OFFCURVE",
"270 -2 OFFCURVE",
"292 6 CURVE",
"292 140 LINE",
"288 138 OFFCURVE",
"280 136 OFFCURVE",
"272 136 CURVE SMOOTH",
"248 136 OFFCURVE",
"238 156 OFFCURVE",
"238 174 CURVE SMOOTH",
"238 752 LINE",
"64 752 LINE",
"64 144 LINE SMOOTH",
"64 64 OFFCURVE",
"114 -8 OFFCURVE",
"212 -8 CURVE SMOOTH"
);
}
);
width = 324;
},
{
anchors = (
{
name = bottom;
position = "{154, 0}";
},
{
name = center;
position = "{126, 378}";
},
{
name = dot;
position = "{302, 364}";
},
{
name = top;
position = "{124, 752}";
},
{
name = topright;
position = "{166, 752}";
}
);
associatedMasterId = "AB099EFE-E788-4EFC-8633-CF147CB782A6";
layerId = "7224A175-8AF7-41C8-847F-42415BA604E1";
name = "{88}";
paths = (
{
closed = 1;
nodes = (
"200 -7 OFFCURVE",
"216 -5 OFFCURVE",
"226 -2 CURVE",
"226 74 LINE",
"218 71 OFFCURVE",
"210 69 OFFCURVE",
"202 70 CURVE SMOOTH",
"164 69 OFFCURVE",
"164 101 OFFCURVE",
"164 122 CURVE SMOOTH",
"164 752 LINE",
"80 752 LINE",
"80 124 LINE SMOOTH",
"80 40 OFFCURVE",
"112 -7 OFFCURVE",
"186 -8 CURVE SMOOTH"
);
}
);
width = 262;
}
);
leftKerningGroup = LAT_L_LC;
leftMetricsKey = "=h+4";
rightKerningGroup = LAT_L_LC;
unicode = 006C;
},
{
color = 4;
glyphname = l.ss01;
lastChange = "2020-06-28 04:34:58 +0000";
layers = (
{
anchors = (
{
name = bottom;
position = "{110, 0}";
},
{
name = center;
position = "{108, 360}";
},
{
name = dot;
position = "{232, 360}";
},
{
name = top;
position = "{108, 752}";
},
{
name = topright;
position = "{124, 752}";
}
);
layerId = "AB099EFE-E788-4EFC-8633-CF147CB782A6";
paths = (
{
closed = 1;
nodes = (
"124 0 LINE",
"124 752 LINE",
"94 752 LINE",
"94 0 LINE"
);
}
);
width = 218;
},
{
anchors = (
{
name = bottom;
position = "{158, 0}";
},
{
name = center;
position = "{158, 384}";
},
{
name = dot;
position = "{400, 368}";
},
{
name = top;
position = "{158, 752}";
},
{
name = topright;
position = "{244, 752}";
}
);
layerId = "2D8F7115-C311-411E-929D-56333CF7FFB2";
paths = (
{
closed = 1;
nodes = (
"244 0 LINE",
"244 752 LINE",
"70 752 LINE",
"70 0 LINE"
);
}
);
width = 314;
},
{
anchors = (
{
name = bottom;
position = "{128, 0}";
},
{
name = center;
position = "{128, 370}";
},
{
name = dot;
position = "{296, 364}";
},
{
name = top;
position = "{128, 752}";
},
{
name = topright;
position = "{170, 752}";
}
);
associatedMasterId = "AB099EFE-E788-4EFC-8633-CF147CB782A6";
layerId = "077A86EF-F308-455C-9339-30CF63065697";
name = "{88}";
paths = (
{
closed = 1;
nodes = (
"170 0 LINE",
"170 752 LINE",
"86 752 LINE",
"86 0 LINE"
);
}
);
width = 256;
}
);
leftKerningGroup = LAT_H_UC;
rightKerningGroup = LAT_H_UC;
},
{
glyphname = m;
lastChange = "2020-06-30 06:56:47 +0000";
layers = (
{
anchors = (
{
name = bottom;
position = "{408, 0}";
},
{
name = leghookleft;
position = "{718, 0}";
},
{
name = top;
position = "{410, 512}";
}
);
background = {
paths = (
{
closed = 1;
nodes = (
"114 0 LINE",
"114 318 LINE SMOOTH",
"114 398 OFFCURVE",
"176 492 OFFCURVE",
"272 492 CURVE SMOOTH",
"332 492 OFFCURVE",
"396 454 OFFCURVE",
"396 332 CURVE SMOOTH",
"396 0 LINE",
"426 0 LINE",
"426 330 LINE SMOOTH",
"426 400 OFFCURVE",
"486 492 OFFCURVE",
"582 492 CURVE SMOOTH",
"646 492 OFFCURVE",
"704 454 OFFCURVE",
"704 326 CURVE SMOOTH",
"704 0 LINE",
"734 0 LINE",
"734 336 LINE SMOOTH",
"734 466 OFFCURVE",
"664 520 OFFCURVE",
"580 520 CURVE SMOOTH",
"488 520 OFFCURVE",
"434 456 OFFCURVE",
"416 404 CURVE",
"428 410 LINE",
"406 410 LINE",
"420 400 LINE",
"402 474 OFFCURVE",
"342 520 OFFCURVE",
"270 520 CURVE SMOOTH",
"192 520 OFFCURVE",
"138 468 OFFCURVE",
"108 402 CURVE",
"120 418 LINE",
"114 418 LINE",
"114 512 LINE",
"84 512 LINE",
"84 0 LINE"
);
}
);
};
guideLines = (
{
angle = 60;
position = "{142, 358}";
}
);
layerId = "AB099EFE-E788-4EFC-8633-CF147CB782A6";
paths = (
{
closed = 1;
nodes = (
"114 0 LINE",
"114 334 LINE SMOOTH",
"114 434 OFFCURVE",
"180 492 OFFCURVE",
"256 492 CURVE SMOOTH",
"332 492 OFFCURVE",
"394 440 OFFCURVE",
"394 352 CURVE SMOOTH",
"394 0 LINE",
"424 0 LINE",
"424 352 LINE SMOOTH",
"424 440 OFFCURVE",
"492 492 OFFCURVE",
"568 492 CURVE SMOOTH",
"644 492 OFFCURVE",
"704 440 OFFCURVE",
"704 352 CURVE SMOOTH",
"704 0 LINE",
"734 0 LINE",
"734 352 LINE SMOOTH",
"734 454 OFFCURVE",
"664 520 OFFCURVE",
"570 520 CURVE SMOOTH",
"496 520 OFFCURVE",
"426 480 OFFCURVE",
"402 408 CURVE",
"420 426 LINE",
"396 426 LINE",
"414 408 LINE",
"392 480 OFFCURVE",
"334 520 OFFCURVE",
"258 520 CURVE SMOOTH",
"195 520 OFFCURVE",
"137 489 OFFCURVE",
"108 420 CURVE",
"122 438 LINE",
"114 438 LINE",
"114 512 LINE",
"84 512 LINE",
"84 0 LINE"
);
}
);
width = 814;
},
{
anchors = (
{
name = bottom;
position = "{452, 0}";
},
{
name = leghookleft;
position = "{746, 0}";
},
{
name = top;
position = "{450, 528}";
}
);
layerId = "2D8F7115-C311-411E-929D-56333CF7FFB2";
paths = (
{
closed = 1;
nodes = (
"234 0 LINE",
"234 314 LINE SMOOTH",
"234 366 OFFCURVE",
"260 394 OFFCURVE",
"300 394 CURVE SMOOTH",
"340 394 OFFCURVE",
"360 364 OFFCURVE",
"360 314 CURVE SMOOTH",
"360 0 LINE",
"534 0 LINE",
"534 314 LINE SMOOTH",
"534 366 OFFCURVE",
"560 394 OFFCURVE",
"600 394 CURVE SMOOTH",
"640 394 OFFCURVE",
"660 364 OFFCURVE",
"660 314 CURVE SMOOTH",
"660 0 LINE",
"834 0 LINE",
"834 334 LINE SMOOTH",
"834 418 OFFCURVE",
"806 536 OFFCURVE",
"664 536 CURVE SMOOTH",
"590 536 OFFCURVE",
"526 506 OFFCURVE",
"486 446 CURVE",
"508 462 LINE",
"488 462 LINE",
"504 446 LINE",
"480 504 OFFCURVE",
"434 536 OFFCURVE",
"374 536 CURVE SMOOTH",
"292 536 OFFCURVE",
"234 494 OFFCURVE",
"194 398 CURVE",
"246 460 LINE",
"224 460 LINE",
"224 528 LINE",
"60 528 LINE",
"60 0 LINE"
);
}
);
width = 890;
},
{
anchors = (
{
name = bottom;
position = "{426, 0}";
},
{
name = leghookleft;
position = "{730, 0}";
},
{
name = top;
position = "{440, 518}";
}
);
associatedMasterId = "AB099EFE-E788-4EFC-8633-CF147CB782A6";
guideLines = (
{
angle = 60;
position = "{142, 358}";
}
);
layerId = "0FA8FAA4-A251-4FF7-A946-4BEBF8338AD4";
name = "{88}";
paths = (
{
closed = 1;
nodes = (
"160 0 LINE",
"160 316 LINE SMOOTH",
"160 404 OFFCURVE",
"214 448 OFFCURVE",
"276 448 CURVE SMOOTH",
"340 448 OFFCURVE",
"384 404 OFFCURVE",
"384 320 CURVE SMOOTH",
"384 0 LINE",
"468 0 LINE",
"468 320 LINE SMOOTH",
"468 406 OFFCURVE",
"522 448 OFFCURVE",
"584 448 CURVE SMOOTH",
"648 448 OFFCURVE",
"692 404 OFFCURVE",
"692 320 CURVE SMOOTH",
"692 0 LINE",
"776 0 LINE",
"776 338 LINE SMOOTH",
"776 442 OFFCURVE",
"714 526 OFFCURVE",
"598 526 CURVE SMOOTH",
"522 526 OFFCURVE",
"452 490 OFFCURVE",
"424 418 CURVE",
"470 452 LINE",
"416 452 LINE",
"454 418 LINE",
"436 480 OFFCURVE",
"380 526 OFFCURVE",
"302 526 CURVE SMOOTH",
"226 526 OFFCURVE",
"164 482 OFFCURVE",
"140 410 CURVE",
"176 456 LINE",
"160 456 LINE",
"160 518 LINE",
"76 518 LINE",
"76 0 LINE"
);
}
);
width = 846;
}
);
leftKerningGroup = LAT_N_LC;
leftMetricsKey = n;
rightKerningGroup = LAT_N_LC;
rightMetricsKey = n;
unicode = 006D;
},
{
glyphname = n;
lastChange = "2020-06-30 06:56:04 +0000";
layers = (
{
anchors = (
{
name = bottom;
position = "{286, 0}";
},
{
name = leghookleft;
position = "{100, 0}";
},
{
name = leghookretroflex;
position = "{452, 0}";
},
{
name = top;
position = "{288, 512}";
}
);
layerId = "AB099EFE-E788-4EFC-8633-CF147CB782A6";
paths = (
{
closed = 1;
nodes = (
"114 0 LINE",
"114 326 LINE SMOOTH",
"114 414 OFFCURVE",
"188 492 OFFCURVE",
"290 492 CURVE SMOOTH",
"379 492 OFFCURVE",
"436 435 OFFCURVE",
"436 322 CURVE SMOOTH",
"436 0 LINE",
"466 0 LINE",
"466 330 LINE SMOOTH",
"466 455 OFFCURVE",
"397 520 OFFCURVE",
"290 520 CURVE SMOOTH",
"196 520 OFFCURVE",
"132 468 OFFCURVE",
"106 402 CURVE",
"128 424 LINE",
"114 424 LINE",
"114 512 LINE",
"84 512 LINE",
"84 0 LINE"
);
}
);
width = 546;
},
{
anchors = (
{
name = bottom;
position = "{306, 0}";
},
{
name = leghookleft;
position = "{146, 0}";
},
{
name = leghookretroflex;
position = "{470, 0}";
},
{
name = top;
position = "{324, 528}";
}
);
layerId = "2D8F7115-C311-411E-929D-56333CF7FFB2";
paths = (
{
closed = 1;
nodes = (
"234 0 LINE",
"234 308 LINE SMOOTH",
"234 364 OFFCURVE",
"268 394 OFFCURVE",
"312 394 CURVE SMOOTH",
"356 394 OFFCURVE",
"384 366 OFFCURVE",
"384 310 CURVE SMOOTH",
"384 0 LINE",
"558 0 LINE",
"558 348 LINE SMOOTH",
"558 464 OFFCURVE",
"490 536 OFFCURVE",
"392 536 CURVE SMOOTH",
"304 536 OFFCURVE",
"224 488 OFFCURVE",
"206 398 CURVE",
"252 458 LINE",
"228 458 LINE",
"228 528 LINE",
"60 528 LINE",
"60 0 LINE"
);
}
);
width = 614;
},
{
anchors = (
{
name = bottom;
position = "{292, 0}";
},
{
name = leghookleft;
position = "{118, 0}";
},
{
name = leghookretroflex;
position = "{458, 0}";
},
{
name = top;
position = "{306, 518}";
}
);
associatedMasterId = "AB099EFE-E788-4EFC-8633-CF147CB782A6";
layerId = "884E0762-5DF7-42EB-AF56-C711D37DCD64";
name = "{88}";
paths = (
{
closed = 1;
nodes = (
"160 0 LINE",
"160 314 LINE SMOOTH",
"160 400 OFFCURVE",
"220 448 OFFCURVE",
"296 448 CURVE SMOOTH",
"372 448 OFFCURVE",
"418 402 OFFCURVE",
"418 314 CURVE SMOOTH",
"418 0 LINE",
"502 0 LINE",
"502 332 LINE SMOOTH",
"502 426 OFFCURVE",
"450 526 OFFCURVE",
"320 526 CURVE SMOOTH",
"238 526 OFFCURVE",
"170 488 OFFCURVE",
"144 418 CURVE",
"180 454 LINE",
"160 454 LINE",
"160 518 LINE",
"76 518 LINE",
"76 0 LINE"
);
}
);
width = 572;
}
);
leftKerningGroup = LAT_N_LC;
rightKerningGroup = LAT_N_LC;
unicode = 006E;
},
{
glyphname = o;
lastChange = "2020-06-30 04:03:46 +0000";
layers = (
{
anchors = (
{
name = bottom;
position = "{306, 0}";
},
{
name = center;
position = "{306, 256}";
},
{
name = horn;
position = "{418, 494}";
},
{
name = ogonek;
position = "{368, 0}";
},
{
name = top;
position = "{306, 512}";
},
{
name = topright;
position = "{592, 512}";
}
);
layerId = "AB099EFE-E788-4EFC-8633-CF147CB782A6";
paths = (
{
closed = 1;
nodes = (
"450 -8 OFFCURVE",
"552 106 OFFCURVE",
"552 256 CURVE SMOOTH",
"552 410 OFFCURVE",
"450 520 OFFCURVE",
"304 520 CURVE SMOOTH",
"158 520 OFFCURVE",
"56 410 OFFCURVE",
"56 256 CURVE SMOOTH",
"56 106 OFFCURVE",
"158 -8 OFFCURVE",
"304 -8 CURVE SMOOTH"
);
},
{
closed = 1;
nodes = (
"180 22 OFFCURVE",
"86 118 OFFCURVE",
"86 256 CURVE SMOOTH",
"86 396 OFFCURVE",
"180 492 OFFCURVE",
"304 492 CURVE SMOOTH",
"432 492 OFFCURVE",
"522 396 OFFCURVE",
"522 256 CURVE SMOOTH",
"522 118 OFFCURVE",
"432 22 OFFCURVE",
"304 20 CURVE SMOOTH"
);
}
);
width = 608;
},
{
anchors = (
{
name = bottom;
position = "{300, 0}";
},
{
name = center;
position = "{300, 258}";
},
{
name = horn;
position = "{422, 496}";
},
{
name = ogonek;
position = "{366, 0}";
},
{
name = top;
position = "{300, 518}";
},
{
name = topright;
position = "{578, 518}";
}
);
associatedMasterId = "AB099EFE-E788-4EFC-8633-CF147CB782A6";
layerId = "847D73E2-D20D-4777-807C-C993B272D968";
name = "{88}";
paths = (
{
closed = 1;
nodes = (
"444 -8 OFFCURVE",
"552 102 OFFCURVE",
"552 262 CURVE SMOOTH",
"552 418 OFFCURVE",
"445 526 OFFCURVE",
"300 526 CURVE SMOOTH",
"154 526 OFFCURVE",
"47 418 OFFCURVE",
"48 262 CURVE SMOOTH",
"47 102 OFFCURVE",
"154 -8 OFFCURVE",
"300 -8 CURVE SMOOTH"
);
},
{
closed = 1;
nodes = (
"202 71 OFFCURVE",
"133 146 OFFCURVE",
"134 262 CURVE SMOOTH",
"133 374 OFFCURVE",
"203 448 OFFCURVE",
"300 448 CURVE SMOOTH",
"396 448 OFFCURVE",
"466 374 OFFCURVE",
"466 262 CURVE SMOOTH",
"466 146 OFFCURVE",
"396 71 OFFCURVE",
"300 70 CURVE SMOOTH"
);
}
);
width = 600;
},
{
anchors = (
{
name = bottom;
position = "{312, 0}";
},
{
name = center;
position = "{312, 264}";
},
{
name = horn;
position = "{462, 496}";
},
{
name = ogonek;
position = "{382, 0}";
},
{
name = top;
position = "{312, 528}";
},
{
name = topright;
position = "{594, 528}";
}
);
layerId = "2D8F7115-C311-411E-929D-56333CF7FFB2";
paths = (
{
closed = 1;
nodes = (
"468 -8 OFFCURVE",
"592 104 OFFCURVE",
"592 264 CURVE SMOOTH",
"592 424 OFFCURVE",
"468 536 OFFCURVE",
"312 536 CURVE SMOOTH",
"158 536 OFFCURVE",
"34 424 OFFCURVE",
"32 264 CURVE SMOOTH",
"34 104 OFFCURVE",
"158 -8 OFFCURVE",
"312 -8 CURVE SMOOTH"
);
},
{
closed = 1;
nodes = (
"247 136 OFFCURVE",
"196 189 OFFCURVE",
"196 264 CURVE SMOOTH",
"196 338 OFFCURVE",
"247 390 OFFCURVE",
"312 390 CURVE SMOOTH",
"377 390 OFFCURVE",
"428 338 OFFCURVE",
"428 264 CURVE SMOOTH",
"428 189 OFFCURVE",
"377 136 OFFCURVE",
"312 136 CURVE SMOOTH"
);
}
);
width = 624;
}
);
leftKerningGroup = LAT_O_LC;
rightKerningGroup = LAT_O_LC;
unicode = 006F;
},
{
color = 4;
glyphname = o.ss01;
lastChange = "2020-06-28 12:50:54 +0000";
layers = (
{
anchors = (
{
name = bottom;
position = "{306, 0}";
},
{
name = center;
position = "{306, 256}";
},
{
name = horn;
position = "{420, 494}";
},
{
name = ogonek;
position = "{358, 0}";
},
{
name = top;
position = "{306, 512}";
},
{
name = topright;
position = "{602, 512}";
}
);
layerId = "AB099EFE-E788-4EFC-8633-CF147CB782A6";
paths = (
{
closed = 1;
nodes = (
"448 -8 OFFCURVE",
"564 110 OFFCURVE",
"564 258 CURVE SMOOTH",
"564 404 OFFCURVE",
"448 520 OFFCURVE",
"306 520 CURVE SMOOTH",
"164 520 OFFCURVE",
"48 404 OFFCURVE",
"48 258 CURVE SMOOTH",
"48 110 OFFCURVE",
"164 -8 OFFCURVE",
"306 -8 CURVE SMOOTH"
);
},
{
closed = 1;
nodes = (
"180 20 OFFCURVE",
"78 128 OFFCURVE",
"78 258 CURVE SMOOTH",
"78 388 OFFCURVE",
"180 492 OFFCURVE",
"306 492 CURVE SMOOTH",
"432 492 OFFCURVE",
"534 388 OFFCURVE",
"534 258 CURVE SMOOTH",
"534 126 OFFCURVE",
"432 20 OFFCURVE",
"306 20 CURVE SMOOTH"
);
}
);
width = 612;
},
{
anchors = (
{
name = bottom;
position = "{306, 0}";
},
{
name = center;
position = "{306, 260}";
},
{
name = horn;
position = "{428, 496}";
},
{
name = ogonek;
position = "{360, 0}";
},
{
name = top;
position = "{306, 518}";
},
{
name = topright;
position = "{602, 518}";
}
);
associatedMasterId = "AB099EFE-E788-4EFC-8633-CF147CB782A6";
layerId = "894D9CFF-1C2D-485E-98D4-EA060EB0BB91";
name = "{88}";
paths = (
{
closed = 1;
nodes = (
"452 -8 OFFCURVE",
"572 112 OFFCURVE",
"572 262 CURVE SMOOTH",
"572 410 OFFCURVE",
"452 526 OFFCURVE",
"306 526 CURVE SMOOTH",
"156 526 OFFCURVE",
"40 410 OFFCURVE",
"40 262 CURVE SMOOTH",
"40 112 OFFCURVE",
"156 -8 OFFCURVE",
"306 -8 CURVE SMOOTH"
);
},
{
closed = 1;
nodes = (
"202 70 OFFCURVE",
"124 156 OFFCURVE",
"124 262 CURVE SMOOTH",
"124 366 OFFCURVE",
"202 448 OFFCURVE",
"306 448 CURVE SMOOTH",
"406 448 OFFCURVE",
"488 368 OFFCURVE",
"488 264 CURVE SMOOTH",
"488 156 OFFCURVE",
"406 70 OFFCURVE",
"306 70 CURVE SMOOTH"
);
}
);
width = 612;
},
{
anchors = (
{
name = bottom;
position = "{308, 0}";
},
{
name = center;
position = "{306, 264}";
},
{
name = horn;
position = "{456, 496}";
},
{
name = ogonek;
position = "{368, 0}";
},
{
name = top;
position = "{310, 528}";
},
{
name = topright;
position = "{604, 528}";
}
);
layerId = "2D8F7115-C311-411E-929D-56333CF7FFB2";
paths = (
{
closed = 1;
nodes = (
"464 -8 OFFCURVE",
"588 112 OFFCURVE",
"588 264 CURVE SMOOTH",
"588 416 OFFCURVE",
"464 536 OFFCURVE",
"308 536 CURVE SMOOTH",
"152 536 OFFCURVE",
"28 416 OFFCURVE",
"28 264 CURVE SMOOTH",
"28 112 OFFCURVE",
"152 -8 OFFCURVE",
"308 -8 CURVE SMOOTH"
);
},
{
closed = 1;
nodes = (
"244 140 OFFCURVE",
"192 194 OFFCURVE",
"192 264 CURVE SMOOTH",
"192 334 OFFCURVE",
"244 388 OFFCURVE",
"308 388 CURVE SMOOTH",
"372 388 OFFCURVE",
"424 336 OFFCURVE",
"424 266 CURVE SMOOTH",
"424 196 OFFCURVE",
"374 140 OFFCURVE",
"308 140 CURVE SMOOTH"
);
}
);
width = 616;
}
);
leftKerningGroup = LAT_O_LC;
rightKerningGroup = LAT_O_LC;
},
{
glyphname = oe;
lastChange = "2020-06-28 04:43:23 +0000";
layers = (
{
anchors = (
{
name = top;
position = "{524, 550}";
}
);
layerId = "AB099EFE-E788-4EFC-8633-CF147CB782A6";
paths = (
{
closed = 1;
nodes = (
"418 -8 OFFCURVE",
"510 106 OFFCURVE",
"510 256 CURVE SMOOTH",
"510 408 OFFCURVE",
"418 522 OFFCURVE",
"288 522 CURVE SMOOTH",
"156 522 OFFCURVE",
"56 408 OFFCURVE",
"56 256 CURVE SMOOTH",
"56 106 OFFCURVE",
"156 -8 OFFCURVE",
"288 -8 CURVE SMOOTH"
);
},
{
closed = 1;
nodes = (
"174 20 OFFCURVE",
"86 120 OFFCURVE",
"86 256 CURVE SMOOTH",
"86 396 OFFCURVE",
"178 494 OFFCURVE",
"288 494 CURVE SMOOTH",
"400 494 OFFCURVE",
"480 392 OFFCURVE",
"480 256 CURVE SMOOTH",
"480 122 OFFCURVE",
"400 20 OFFCURVE",
"286 20 CURVE SMOOTH"
);
},
{
closed = 1;
nodes = (
"770 -8 OFFCURVE",
"826 18 OFFCURVE",
"868 58 CURVE",
"856 90 LINE",
"822 52 OFFCURVE",
"762 20 OFFCURVE",
"700 20 CURVE SMOOTH",
"588 20 OFFCURVE",
"510 120 OFFCURVE",
"512 258 CURVE SMOOTH",
"514 394 OFFCURVE",
"590 492 OFFCURVE",
"696 492 CURVE SMOOTH",
"798 492 OFFCURVE",
"868 402 OFFCURVE",
"866 274 CURVE",
"504 274 LINE",
"504 246 LINE",
"896 246 LINE",
"898 260 OFFCURVE",
"898 270 OFFCURVE",
"898 276 CURVE SMOOTH",
"898 420 OFFCURVE",
"816 520 OFFCURVE",
"694 520 CURVE SMOOTH",
"572 520 OFFCURVE",
"482 414 OFFCURVE",
"482 254 CURVE SMOOTH",
"482 102 OFFCURVE",
"568 -8 OFFCURVE",
"704 -8 CURVE SMOOTH"
);
}
);
width = 952;
},
{
anchors = (
{
name = top;
position = "{476, 572}";
}
);
layerId = "2D8F7115-C311-411E-929D-56333CF7FFB2";
paths = (
{
closed = 1;
nodes = (
"444 -8 OFFCURVE",
"546 128 OFFCURVE",
"546 264 CURVE SMOOTH",
"546 398 OFFCURVE",
"444 536 OFFCURVE",
"292 536 CURVE SMOOTH",
"150 536 OFFCURVE",
"32 422 OFFCURVE",
"32 266 CURVE SMOOTH",
"32 110 OFFCURVE",
"150 -8 OFFCURVE",
"292 -8 CURVE SMOOTH"
);
},
{
closed = 1;
nodes = (
"234 134 OFFCURVE",
"192 186 OFFCURVE",
"192 264 CURVE SMOOTH",
"192 342 OFFCURVE",
"234 392 OFFCURVE",
"298 392 CURVE SMOOTH",
"360 392 OFFCURVE",
"402 342 OFFCURVE",
"402 264 CURVE SMOOTH",
"402 186 OFFCURVE",
"360 134 OFFCURVE",
"298 134 CURVE SMOOTH"
);
},
{
closed = 1;
nodes = (
"736 -8 OFFCURVE",
"806 8 OFFCURVE",
"840 32 CURVE",
"790 158 LINE",
"756 134 OFFCURVE",
"720 124 OFFCURVE",
"682 124 CURVE SMOOTH",
"626 124 OFFCURVE",
"538 146 OFFCURVE",
"538 272 CURVE SMOOTH",
"538 382 OFFCURVE",
"604 414 OFFCURVE",
"648 414 CURVE SMOOTH",
"708 414 OFFCURVE",
"746 370 OFFCURVE",
"746 312 CURVE",
"524 312 LINE",
"524 212 LINE",
"886 212 LINE",
"890 232 OFFCURVE",
"892 258 OFFCURVE",
"892 280 CURVE SMOOTH",
"892 470 OFFCURVE",
"764 536 OFFCURVE",
"662 536 CURVE SMOOTH",
"526 536 OFFCURVE",
"410 422 OFFCURVE",
"410 260 CURVE SMOOTH",
"410 104 OFFCURVE",
"516 -8 OFFCURVE",
"670 -8 CURVE SMOOTH"
);
}
);
width = 920;
},
{
anchors = (
{
name = top;
position = "{506, 556}";
}
);
associatedMasterId = "AB099EFE-E788-4EFC-8633-CF147CB782A6";
layerId = "4D1F9A81-61C5-4974-8815-69BBAC70B3C9";
name = "{88}";
paths = (
{
closed = 1;
nodes = (
"426 -8 OFFCURVE",
"524 106 OFFCURVE",
"524 260 CURVE SMOOTH",
"524 414 OFFCURVE",
"420 528 OFFCURVE",
"286 528 CURVE SMOOTH",
"154 528 OFFCURVE",
"48 416 OFFCURVE",
"48 262 CURVE SMOOTH",
"48 116 OFFCURVE",
"152 -8 OFFCURVE",
"290 -8 CURVE SMOOTH"
);
},
{
closed = 1;
nodes = (
"196 70 OFFCURVE",
"130 146 OFFCURVE",
"130 260 CURVE SMOOTH",
"130 372 OFFCURVE",
"196 450 OFFCURVE",
"290 450 CURVE SMOOTH",
"382 450 OFFCURVE",
"450 372 OFFCURVE",
"450 256 CURVE SMOOTH",
"450 144 OFFCURVE",
"388 70 OFFCURVE",
"292 70 CURVE SMOOTH"
);
},
{
closed = 1;
nodes = (
"760 -8 OFFCURVE",
"824 14 OFFCURVE",
"862 50 CURVE",
"830 126 LINE",
"794 90 OFFCURVE",
"750 70 OFFCURVE",
"696 70 CURVE SMOOTH",
"590 70 OFFCURVE",
"528 144 OFFCURVE",
"528 260 CURVE SMOOTH",
"528 376 OFFCURVE",
"590 448 OFFCURVE",
"678 448 CURVE SMOOTH",
"764 448 OFFCURVE",
"814 384 OFFCURVE",
"814 298 CURVE",
"510 298 LINE",
"510 226 LINE",
"888 226 LINE",
"890 238 OFFCURVE",
"892 266 OFFCURVE",
"892 286 CURVE SMOOTH",
"892 430 OFFCURVE",
"800 526 OFFCURVE",
"678 526 CURVE SMOOTH",
"552 526 OFFCURVE",
"456 422 OFFCURVE",
"456 262 CURVE SMOOTH",
"456 110 OFFCURVE",
"544 -8 OFFCURVE",
"694 -8 CURVE SMOOTH"
);
}
);
width = 938;
}
);
leftKerningGroup = LAT_O_LC;
leftMetricsKey = o;
rightKerningGroup = LAT_E_LC;
rightMetricsKey = e;
unicode = 0153;
},
{
glyphname = p;
lastChange = "2020-06-30 06:53:48 +0000";
layers = (
{
anchors = (
{
name = bottom;
position = "{100, -206}";
},
{
name = top;
position = "{300, 512}";
}
);
components = (
{
name = _part.bowl;
}
);
layerId = "AB099EFE-E788-4EFC-8633-CF147CB782A6";
paths = (
{
closed = 1;
nodes = (
"114 108 LINE",
"126 108 LINE",
"110 160 LINE",
"110 366 LINE",
"130 408 LINE",
"114 408 LINE",
"114 512 LINE",
"84 512 LINE",
"84 -206 LINE",
"114 -206 LINE"
);
}
);
width = 588;
},
{
anchors = (
{
name = bottom;
position = "{148, -206}";
},
{
name = top;
position = "{328, 528}";
}
);
components = (
{
name = _part.bowl;
}
);
layerId = "2D8F7115-C311-411E-929D-56333CF7FFB2";
paths = (
{
closed = 1;
nodes = (
"236 44 LINE",
"262 44 LINE",
"224 104 LINE",
"224 424 LINE",
"248 482 LINE",
"226 482 LINE",
"226 528 LINE",
"62 528 LINE",
"62 -206 LINE",
"236 -206 LINE"
);
}
);
width = 638;
},
{
anchors = (
{
name = bottom;
position = "{122, -206}";
},
{
name = top;
position = "{316, 518}";
}
);
associatedMasterId = "AB099EFE-E788-4EFC-8633-CF147CB782A6";
components = (
{
alignment = -1;
name = _part.bowl;
}
);
layerId = "72B01880-8C99-4D45-916B-5154C286C52B";
name = "{88}";
paths = (
{
closed = 1;
nodes = (
"160 70 LINE",
"176 70 LINE",
"146 130 LINE",
"146 402 LINE",
"172 450 LINE",
"160 450 LINE",
"160 518 LINE",
"76 518 LINE",
"76 -206 LINE",
"160 -206 LINE"
);
}
);
width = 608;
}
);
leftKerningGroup = LAT_P_LC;
rightKerningGroup = LAT_O_LC;
rightMetricsKey = o;
unicode = 0070;
},
{
color = 4;
glyphname = p.ss01;
lastChange = "2020-06-28 13:27:21 +0000";
layers = (
{
anchors = (
{
name = bottom;
position = "{100, -206}";
},
{
name = top;
position = "{300, 512}";
}
);
components = (
{
name = _part.bowl.ss01;
transform = "{1, 0, 0, 1, -2, 0}";
}
);
layerId = "AB099EFE-E788-4EFC-8633-CF147CB782A6";
paths = (
{
closed = 1;
nodes = (
"114 -206 LINE",
"114 118 LINE",
"120 118 LINE",
"112 148 LINE",
"112 380 LINE",
"124 396 LINE",
"114 396 LINE",
"114 512 LINE",
"84 512 LINE",
"84 -206 LINE"
);
}
);
width = 622;
},
{
anchors = (
{
name = bottom;
position = "{148, -206}";
},
{
name = top;
position = "{328, 528}";
}
);
components = (
{
name = _part.bowl.ss01;
}
);
layerId = "2D8F7115-C311-411E-929D-56333CF7FFB2";
paths = (
{
closed = 1;
nodes = (
"236 -208 LINE",
"236 52 LINE",
"248 52 LINE",
"226 104 LINE",
"226 424 LINE",
"248 470 LINE",
"226 470 LINE",
"226 528 LINE",
"62 528 LINE",
"62 -206 LINE"
);
}
);
width = 656;
},
{
anchors = (
{
name = bottom;
position = "{122, -206}";
},
{
name = top;
position = "{318, 518}";
}
);
associatedMasterId = "AB099EFE-E788-4EFC-8633-CF147CB782A6";
components = (
{
alignment = -1;
name = _part.bowl.ss01;
}
);
layerId = "8052E6E9-0DE8-4A72-8E5F-49FF1AF157DD";
name = "{88}";
paths = (
{
closed = 1;
nodes = (
"162 -206 LINE",
"162 72 LINE",
"174 72 LINE",
"156 134 LINE",
"156 408 LINE",
"170 444 LINE",
"160 444 LINE",
"160 518 LINE",
"76 518 LINE",
"76 -206 LINE"
);
}
);
width = 640;
}
);
leftKerningGroup = LAT_P_LC;
rightKerningGroup = LAT_O_LC;
rightMetricsKey = o;
},
{
glyphname = thorn;
lastChange = "2020-06-30 06:53:33 +0000";
layers = (
{
anchors = (
{
name = bottom;
position = "{308, -2}";
},
{
name = top;
position = "{100, 752}";
}
);
components = (
{
name = _part.bowl;
}
);
layerId = "AB099EFE-E788-4EFC-8633-CF147CB782A6";
paths = (
{
closed = 1;
nodes = (
"114 108 LINE",
"128 108 LINE",
"110 160 LINE",
"110 366 LINE",
"126 408 LINE",
"114 408 LINE",
"114 752 LINE",
"84 752 LINE",
"84 -206 LINE",
"114 -206 LINE"
);
}
);
width = 588;
},
{
anchors = (
{
name = bottom;
position = "{370, 0}";
},
{
name = top;
position = "{144, 752}";
}
);
components = (
{
name = _part.bowl;
}
);
layerId = "2D8F7115-C311-411E-929D-56333CF7FFB2";
paths = (
{
closed = 1;
nodes = (
"234 46 LINE",
"260 46 LINE",
"222 104 LINE",
"222 424 LINE",
"246 488 LINE",
"234 488 LINE",
"234 752 LINE",
"60 752 LINE",
"60 -206 LINE",
"234 -206 LINE"
);
}
);
width = 638;
},
{
anchors = (
{
name = bottom;
position = "{332, 0}";
},
{
name = top;
position = "{118, 740}";
}
);
associatedMasterId = "AB099EFE-E788-4EFC-8633-CF147CB782A6";
components = (
{
alignment = -1;
name = _part.bowl;
}
);
layerId = "BFAB46FD-77AB-4841-9D04-A9294A19A645";
name = "{88}";
paths = (
{
closed = 1;
nodes = (
"160 70 LINE",
"174 70 LINE",
"146 130 LINE",
"146 382 LINE",
"172 450 LINE",
"160 450 LINE",
"160 752 LINE",
"76 752 LINE",
"76 -206 LINE",
"160 -206 LINE"
);
}
);
width = 608;
}
);
leftKerningGroup = LAT_L_LC;
leftMetricsKey = h;
rightKerningGroup = LAT_O_LC;
rightMetricsKey = p;
unicode = 00FE;
},
{
color = 4;
glyphname = thorn.ss01;
lastChange = "2020-06-28 12:51:45 +0000";
layers = (
{
anchors = (
{
name = bottom;
position = "{326, 0}";
},
{
name = top;
position = "{100, 752}";
}
);
components = (
{
name = _part.bowl.ss01;
transform = "{1, 0, 0, 1, -2, 0}";
}
);
layerId = "AB099EFE-E788-4EFC-8633-CF147CB782A6";
paths = (
{
closed = 1;
nodes = (
"114 118 LINE",
"120 118 LINE",
"112 160 LINE",
"112 376 LINE",
"120 396 LINE",
"114 396 LINE",
"114 752 LINE",
"84 752 LINE",
"84 -206 LINE",
"114 -206 LINE"
);
}
);
width = 622;
},
{
anchors = (
{
name = bottom;
position = "{390, 0}";
},
{
name = top;
position = "{142, 752}";
}
);
components = (
{
name = _part.bowl.ss01;
transform = "{1, 0, 0, 1, -2, 0}";
}
);
layerId = "2D8F7115-C311-411E-929D-56333CF7FFB2";
paths = (
{
closed = 1;
nodes = (
"234 52 LINE",
"260 52 LINE",
"226 104 LINE",
"226 410 LINE",
"246 468 LINE",
"224 468 LINE",
"224 752 LINE",
"60 752 LINE",
"60 -206 LINE",
"234 -206 LINE"
);
}
);
width = 654;
},
{
anchors = (
{
name = bottom;
position = "{347, 0}";
},
{
name = top;
position = "{118, 740}";
}
);
associatedMasterId = "AB099EFE-E788-4EFC-8633-CF147CB782A6";
components = (
{
alignment = -1;
name = _part.bowl.ss01;
transform = "{1, 0, 0, 1, -2, 0}";
}
);
layerId = "498D7586-7692-4A96-AF46-89C4DEF17342";
name = "{88}";
paths = (
{
closed = 1;
nodes = (
"160 70 LINE",
"174 70 LINE",
"150 110 LINE",
"150 402 LINE",
"172 446 LINE",
"160 446 LINE",
"160 752 LINE",
"76 752 LINE",
"76 -206 LINE",
"160 -206 LINE"
);
}
);
width = 638;
}
);
leftKerningGroup = LAT_L_LC;
leftMetricsKey = h;
rightKerningGroup = LAT_O_LC;
rightMetricsKey = p;
},
{
glyphname = q;
lastChange = "2020-06-30 06:54:58 +0000";
layers = (
{
anchors = (
{
name = bottom;
position = "{488, -206}";
},
{
name = top;
position = "{278, 512}";
}
);
components = (
{
name = _part.bowl;
transform = "{-1, 0, 0, 1, 588, 0}";
}
);
layerId = "AB099EFE-E788-4EFC-8633-CF147CB782A6";
paths = (
{
closed = 1;
nodes = (
"548 -186 LINE",
"517 -170 OFFCURVE",
"502 -138 OFFCURVE",
"502 -92 CURVE SMOOTH",
"502 512 LINE",
"472 512 LINE",
"472 408 LINE",
"460 408 LINE",
"476 382 LINE",
"476 144 LINE",
"464 108 LINE",
"472 108 LINE",
"472 -96 LINE SMOOTH",
"472 -158 OFFCURVE",
"490 -188 OFFCURVE",
"536 -214 CURVE"
);
}
);
width = 590;
},
{
anchors = (
{
name = bottom;
position = "{490, -206}";
},
{
name = top;
position = "{274, 528}";
}
);
components = (
{
name = _part.bowl;
transform = "{-1, 0, 0, 1, 638, 0}";
}
);
layerId = "2D8F7115-C311-411E-929D-56333CF7FFB2";
paths = (
{
closed = 1;
nodes = (
"618 -72 LINE",
"588 -62 OFFCURVE",
"576 -51 OFFCURVE",
"576 -14 CURVE SMOOTH",
"576 528 LINE",
"412 528 LINE",
"412 482 LINE",
"396 482 LINE",
"412 418 LINE",
"412 84 LINE",
"378 44 LINE",
"402 44 LINE",
"402 -30 LINE SMOOTH",
"402 -118 OFFCURVE",
"455 -176 OFFCURVE",
"558 -214 CURVE"
);
}
);
width = 638;
},
{
anchors = (
{
name = bottom;
position = "{498, -206}";
},
{
name = top;
position = "{282, 518}";
}
);
associatedMasterId = "AB099EFE-E788-4EFC-8633-CF147CB782A6";
components = (
{
alignment = -1;
name = _part.bowl;
transform = "{-1, 0, 0, 1, 608, 0}";
}
);
layerId = "BDBCB6FE-EDB5-4B42-9CE9-E7FBE935B17E";
name = "{88}";
paths = (
{
closed = 1;
nodes = (
"574 -140 LINE",
"538 -124 OFFCURVE",
"534 -108 OFFCURVE",
"534 -48 CURVE SMOOTH",
"534 518 LINE",
"450 518 LINE",
"450 448 LINE",
"430 448 LINE",
"460 398 LINE",
"460 114 LINE",
"436 70 LINE",
"450 70 LINE",
"450 -74 LINE SMOOTH",
"450 -144 OFFCURVE",
"478 -185 OFFCURVE",
"544 -214 CURVE"
);
}
);
width = 612;
}
);
leftKerningGroup = LAT_O_LC;
leftMetricsKey = o;
rightKerningGroup = LAT_Q_LC;
unicode = 0071;
},
{
glyphname = r;
lastChange = "2020-06-30 06:56:30 +0000";
layers = (
{
anchors = (
{
name = bottom;
position = "{100, 0}";
},
{
name = top;
position = "{188, 512}";
}
);
guideLines = (
{
angle = 67.5;
position = "{30, -200}";
}
);
layerId = "AB099EFE-E788-4EFC-8633-CF147CB782A6";
paths = (
{
closed = 1;
nodes = (
"114 0 LINE",
"114 314 LINE SMOOTH",
"114 418 OFFCURVE",
"214 492 OFFCURVE",
"282 492 CURVE SMOOTH",
"294 492 OFFCURVE",
"302 490 OFFCURVE",
"314 486 CURVE",
"326 514 LINE",
"314 518 OFFCURVE",
"298 520 OFFCURVE",
"286 520 CURVE SMOOTH",
"216 520 OFFCURVE",
"144 470 OFFCURVE",
"106 396 CURVE",
"126 416 LINE",
"114 416 LINE",
"114 512 LINE",
"84 512 LINE",
"84 0 LINE"
);
}
);
width = 342;
},
{
anchors = (
{
name = bottom;
position = "{148, 0}";
},
{
name = top;
position = "{228, 528}";
}
);
guideLines = (
{
angle = 67.5;
position = "{152, -200}";
}
);
layerId = "2D8F7115-C311-411E-929D-56333CF7FFB2";
paths = (
{
closed = 1;
nodes = (
"234 0 LINE",
"234 264 LINE SMOOTH",
"234 338 OFFCURVE",
"288 368 OFFCURVE",
"334 368 CURVE SMOOTH",
"356 368 OFFCURVE",
"374 362 OFFCURVE",
"382 358 CURVE",
"452 524 LINE",
"442 530 OFFCURVE",
"418 536 OFFCURVE",
"390 536 CURVE SMOOTH",
"288 536 OFFCURVE",
"228 462 OFFCURVE",
"206 418 CURVE",
"244 456 LINE",
"228 456 LINE",
"228 528 LINE",
"60 528 LINE",
"60 0 LINE"
);
}
);
width = 448;
},
{
anchors = (
{
name = bottom;
position = "{118, 0}";
},
{
name = top;
position = "{204, 518}";
}
);
associatedMasterId = "AB099EFE-E788-4EFC-8633-CF147CB782A6";
guideLines = (
{
angle = 67.5;
position = "{76, -200}";
}
);
layerId = "4CEC5F73-1471-4852-9EBC-CEF451941A2E";
name = "{88}";
paths = (
{
closed = 1;
nodes = (
"160 0 LINE",
"160 296 LINE SMOOTH",
"160 388 OFFCURVE",
"242 442 OFFCURVE",
"302 442 CURVE SMOOTH",
"318 442 OFFCURVE",
"334 440 OFFCURVE",
"338 438 CURVE",
"372 520 LINE",
"364 522 OFFCURVE",
"342 526 OFFCURVE",
"320 526 CURVE SMOOTH",
"232 526 OFFCURVE",
"174 470 OFFCURVE",
"146 406 CURVE",
"174 438 LINE",
"160 438 LINE",
"160 518 LINE",
"76 518 LINE",
"76 0 LINE"
);
}
);
width = 380;
}
);
leftKerningGroup = LAT_N_LC;
leftMetricsKey = n;
rightKerningGroup = LAT_R_LC;
unicode = 0072;
},
{
glyphname = s;
lastChange = "2020-06-30 04:09:41 +0000";
layers = (
{
anchors = (
{
name = bottom;
position = "{220, 0}";
},
{
name = cedilla;
position = "{224, 0}";
},
{
name = top;
position = "{218, 512}";
}
);
layerId = "AB099EFE-E788-4EFC-8633-CF147CB782A6";
paths = (
{
closed = 1;
nodes = (
"314 -8 OFFCURVE",
"380 50 OFFCURVE",
"380 132 CURVE SMOOTH",
"380 234 OFFCURVE",
"284 262 OFFCURVE",
"222 282 CURVE SMOOTH",
"178 296 OFFCURVE",
"106 322 OFFCURVE",
"104 392 CURVE SMOOTH",
"102 448 OFFCURVE",
"146 492 OFFCURVE",
"212 492 CURVE SMOOTH",
"268 492 OFFCURVE",
"314 460 OFFCURVE",
"334 420 CURVE",
"362 432 LINE",
"338 482 OFFCURVE",
"282 520 OFFCURVE",
"214 520 CURVE SMOOTH",
"136 520 OFFCURVE",
"74 470 OFFCURVE",
"74 396 CURVE SMOOTH",
"74 310 OFFCURVE",
"162 270 OFFCURVE",
"218 254 CURVE SMOOTH",
"260 242 OFFCURVE",
"350 216 OFFCURVE",
"350 134 CURVE SMOOTH",
"350 66 OFFCURVE",
"294 20 OFFCURVE",
"226 20 CURVE SMOOTH",
"160 20 OFFCURVE",
"110 64 OFFCURVE",
"90 114 CURVE",
"60 102 LINE",
"82 46 OFFCURVE",
"142 -8 OFFCURVE",
"226 -8 CURVE SMOOTH"
);
}
);
width = 440;
},
{
anchors = (
{
name = bottom;
position = "{220, 0}";
},
{
name = cedilla;
position = "{224, 0}";
},
{
name = top;
position = "{218, 518}";
}
);
associatedMasterId = "AB099EFE-E788-4EFC-8633-CF147CB782A6";
guideLines = (
{
angle = 22.5;
position = "{82, 296}";
}
);
layerId = "3776DB26-7760-492E-8786-63C554B21AA1";
name = "{68}";
paths = (
{
closed = 1;
nodes = (
"312 -8 OFFCURVE",
"392 54 OFFCURVE",
"392 140 CURVE SMOOTH",
"392 240 OFFCURVE",
"290 274 OFFCURVE",
"238 290 CURVE SMOOTH",
"194 304 OFFCURVE",
"126 328 OFFCURVE",
"126 390 CURVE SMOOTH",
"126 434 OFFCURVE",
"168 464 OFFCURVE",
"216 464 CURVE SMOOTH",
"258 464 OFFCURVE",
"298 436 OFFCURVE",
"316 392 CURVE",
"374 416 LINE",
"350 476 OFFCURVE",
"286 524 OFFCURVE",
"212 524 CURVE SMOOTH",
"134 524 OFFCURVE",
"64 468 OFFCURVE",
"64 390 CURVE SMOOTH",
"64 304 OFFCURVE",
"142 262 OFFCURVE",
"200 244 CURVE SMOOTH",
"256 226 OFFCURVE",
"330 202 OFFCURVE",
"330 142 CURVE SMOOTH",
"330 84 OFFCURVE",
"274 52 OFFCURVE",
"226 52 CURVE SMOOTH",
"168 52 OFFCURVE",
"124 96 OFFCURVE",
"110 136 CURVE",
"50 110 LINE",
"70 52 OFFCURVE",
"136 -8 OFFCURVE",
"224 -8 CURVE SMOOTH"
);
}
);
width = 442;
},
{
anchors = (
{
name = bottom;
position = "{224, 0}";
},
{
name = cedilla;
position = "{230, 0}";
},
{
name = top;
position = "{224, 520}";
}
);
associatedMasterId = "AB099EFE-E788-4EFC-8633-CF147CB782A6";
guideLines = (
{
angle = 22.5;
position = "{82, 296}";
}
);
layerId = "941C535A-6DDC-4907-84C9-FC6A182065CF";
name = "{88}";
paths = (
{
closed = 1;
nodes = (
"320 -8 OFFCURVE",
"402 56 OFFCURVE",
"402 146 CURVE SMOOTH",
"402 246 OFFCURVE",
"300 280 OFFCURVE",
"246 298 CURVE SMOOTH",
"202 312 OFFCURVE",
"142 330 OFFCURVE",
"142 384 CURVE SMOOTH",
"142 426 OFFCURVE",
"180 450 OFFCURVE",
"222 450 CURVE SMOOTH",
"268 450 OFFCURVE",
"294 420 OFFCURVE",
"310 390 CURVE",
"386 422 LINE",
"362 474 OFFCURVE",
"306 526 OFFCURVE",
"222 526 CURVE SMOOTH",
"138 526 OFFCURVE",
"60 474 OFFCURVE",
"60 384 CURVE SMOOTH",
"60 292 OFFCURVE",
"140 258 OFFCURVE",
"198 238 CURVE SMOOTH",
"244 222 OFFCURVE",
"320 202 OFFCURVE",
"320 144 CURVE SMOOTH",
"320 98 OFFCURVE",
"274 70 OFFCURVE",
"228 70 CURVE SMOOTH",
"178 70 OFFCURVE",
"136 104 OFFCURVE",
"122 144 CURVE",
"46 112 LINE",
"66 52 OFFCURVE",
"136 -8 OFFCURVE",
"228 -8 CURVE SMOOTH"
);
}
);
width = 448;
},
{
anchors = (
{
name = bottom;
position = "{234, 0}";
},
{
name = cedilla;
position = "{242, 0}";
},
{
name = top;
position = "{234, 526}";
}
);
associatedMasterId = "AB099EFE-E788-4EFC-8633-CF147CB782A6";
guideLines = (
{
angle = 22.5;
position = "{80, 296}";
}
);
layerId = "2D4EE669-74DB-46FA-B066-FDF35B907363";
name = "{140}";
paths = (
{
closed = 1;
nodes = (
"342 -8 OFFCURVE",
"429 59 OFFCURVE",
"430 154 CURVE SMOOTH",
"429 261 OFFCURVE",
"322 292 OFFCURVE",
"276 308 CURVE SMOOTH",
"228 325 OFFCURVE",
"171 335 OFFCURVE",
"172 378 CURVE SMOOTH",
"171 406 OFFCURVE",
"197 426 OFFCURVE",
"232 426 CURVE SMOOTH",
"272 426 OFFCURVE",
"297 397 OFFCURVE",
"308 378 CURVE",
"416 424 LINE",
"386 488 OFFCURVE",
"312 532 OFFCURVE",
"228 532 CURVE SMOOTH",
"125 532 OFFCURVE",
"49 469 OFFCURVE",
"48 380 CURVE SMOOTH",
"49 292 OFFCURVE",
"116 250 OFFCURVE",
"192 226 CURVE SMOOTH",
"233 213 OFFCURVE",
"308 196 OFFCURVE",
"308 154 CURVE SMOOTH",
"308 125 OFFCURVE",
"278 100 OFFCURVE",
"238 100 CURVE SMOOTH",
"195 100 OFFCURVE",
"160 134 OFFCURVE",
"144 170 CURVE",
"32 120 LINE",
"64 43 OFFCURVE",
"148 -8 OFFCURVE",
"238 -8 CURVE SMOOTH"
);
}
);
width = 462;
},
{
anchors = (
{
name = bottom;
position = "{240, 0}";
},
{
name = cedilla;
position = "{248, 0}";
},
{
name = top;
position = "{240, 528}";
}
);
associatedMasterId = "AB099EFE-E788-4EFC-8633-CF147CB782A6";
guideLines = (
{
angle = 22.5;
position = "{86, 276}";
}
);
layerId = "E7831FF5-668F-4C95-A689-CAE55089C41D";
name = "{160}";
paths = (
{
closed = 1;
nodes = (
"352 -8 OFFCURVE",
"442 60 OFFCURVE",
"442 158 CURVE SMOOTH",
"442 270 OFFCURVE",
"334 300 OFFCURVE",
"292 312 CURVE SMOOTH",
"240 326 OFFCURVE",
"186 338 OFFCURVE",
"186 376 CURVE SMOOTH",
"186 396 OFFCURVE",
"206 416 OFFCURVE",
"240 416 CURVE SMOOTH",
"278 416 OFFCURVE",
"302 388 OFFCURVE",
"314 368 CURVE",
"430 422 LINE",
"398 496 OFFCURVE",
"316 536 OFFCURVE",
"234 536 CURVE SMOOTH",
"126 536 OFFCURVE",
"46 470 OFFCURVE",
"46 376 CURVE SMOOTH",
"46 290 OFFCURVE",
"110 242 OFFCURVE",
"188 220 CURVE SMOOTH",
"232 208 OFFCURVE",
"304 192 OFFCURVE",
"304 158 CURVE SMOOTH",
"304 138 OFFCURVE",
"282 114 OFFCURVE",
"246 114 CURVE SMOOTH",
"206 114 OFFCURVE",
"168 144 OFFCURVE",
"150 178 CURVE",
"28 122 LINE",
"64 40 OFFCURVE",
"154 -8 OFFCURVE",
"244 -8 CURVE SMOOTH"
);
}
);
width = 470;
},
{
anchors = (
{
name = bottom;
position = "{242, 0}";
},
{
name = cedilla;
position = "{250, 0}";
},
{
name = top;
position = "{242, 532}";
}
);
layerId = "2D8F7115-C311-411E-929D-56333CF7FFB2";
paths = (
{
closed = 1;
nodes = (
"358 -8 OFFCURVE",
"450 62 OFFCURVE",
"450 162 CURVE SMOOTH",
"450 270 OFFCURVE",
"344 304 OFFCURVE",
"296 316 CURVE SMOOTH",
"258 326 OFFCURVE",
"196 338 OFFCURVE",
"196 370 CURVE SMOOTH",
"196 392 OFFCURVE",
"220 404 OFFCURVE",
"242 404 CURVE SMOOTH",
"274 404 OFFCURVE",
"296 384 OFFCURVE",
"310 362 CURVE",
"440 420 LINE",
"408 494 OFFCURVE",
"326 536 OFFCURVE",
"236 536 CURVE SMOOTH",
"128 536 OFFCURVE",
"44 472 OFFCURVE",
"44 372 CURVE SMOOTH",
"44 284 OFFCURVE",
"110 238 OFFCURVE",
"190 214 CURVE SMOOTH",
"236 200 OFFCURVE",
"298 190 OFFCURVE",
"298 158 CURVE SMOOTH",
"298 140 OFFCURVE",
"278 124 OFFCURVE",
"248 124 CURVE SMOOTH",
"202 124 OFFCURVE",
"172 158 OFFCURVE",
"156 184 CURVE",
"24 126 LINE",
"62 38 OFFCURVE",
"154 -8 OFFCURVE",
"246 -8 CURVE SMOOTH"
);
}
);
width = 474;
}
);
leftKerningGroup = LAT_S_LC;
rightKerningGroup = LAT_S_LC;
unicode = 0073;
userData = {
com.typemytype.robofont.layerData = {
background = {
anchors = (
);
components = (
);
contours = (
{
points = (
{
segmentType = curve;
smooth = 1;
x = 213;
y = -12;
},
{
smooth = 0;
x = 318;
y = -12;
},
{
smooth = 0;
x = 376;
y = 50;
},
{
segmentType = curve;
smooth = 1;
x = 376;
y = 120;
},
{
smooth = 0;
x = 376;
y = 214;
},
{
smooth = 0;
x = 288;
y = 237;
},
{
segmentType = curve;
smooth = 1;
x = 208;
y = 266;
},
{
smooth = 0;
x = 147;
y = 288;
},
{
smooth = 0;
x = 85;
y = 310;
},
{
segmentType = curve;
smooth = 1;
x = 85;
y = 368;
},
{
smooth = 0;
x = 85;
y = 415;
},
{
smooth = 0;
x = 124;
y = 462;
},
{
segmentType = curve;
smooth = 1;
x = 208;
y = 462;
},
{
smooth = 0;
x = 253;
y = 462;
},
{
smooth = 0;
x = 284;
y = 448;
},
{
segmentType = curve;
smooth = 1;
x = 314;
y = 429;
},
{
smooth = 0;
x = 325;
y = 422;
},
{
smooth = 0;
x = 336;
y = 423;
},
{
segmentType = curve;
smooth = 1;
x = 343;
y = 434;
},
{
segmentType = line;
smooth = 1;
x = 346;
y = 439;
},
{
smooth = 0;
x = 347;
y = 441;
},
{
smooth = 0;
x = 347;
y = 443;
},
{
segmentType = curve;
smooth = 1;
x = 345;
y = 444;
},
{
smooth = 0;
x = 311;
y = 468;
},
{
smooth = 0;
x = 257;
y = 490;
},
{
segmentType = curve;
smooth = 1;
x = 211;
y = 490;
},
{
smooth = 0;
x = 108;
y = 490;
},
{
smooth = 0;
x = 54;
y = 432;
},
{
segmentType = curve;
smooth = 1;
x = 54;
y = 366;
},
{
smooth = 0;
x = 54;
y = 284;
},
{
smooth = 0;
x = 141;
y = 256;
},
{
segmentType = curve;
smooth = 1;
x = 218;
y = 230;
},
{
smooth = 0;
x = 277;
y = 210;
},
{
smooth = 0;
x = 344;
y = 182;
},
{
segmentType = curve;
smooth = 1;
x = 344;
y = 118;
},
{
smooth = 0;
x = 344;
y = 64;
},
{
smooth = 0;
x = 300;
y = 16;
},
{
segmentType = curve;
smooth = 1;
x = 215;
y = 16;
},
{
smooth = 0;
x = 148;
y = 16;
},
{
smooth = 0;
x = 105;
y = 37;
},
{
segmentType = curve;
smooth = 1;
x = 66;
y = 65;
},
{
smooth = 0;
x = 55;
y = 73;
},
{
smooth = 0;
x = 45;
y = 74;
},
{
segmentType = curve;
smooth = 1;
x = 37;
y = 63;
},
{
segmentType = line;
smooth = 1;
x = 33;
y = 57;
},
{
smooth = 0;
x = 32;
y = 55;
},
{
smooth = 0;
x = 32;
y = 53;
},
{
segmentType = curve;
smooth = 1;
x = 34;
y = 51;
},
{
smooth = 0;
x = 73;
y = 12;
},
{
smooth = 0;
x = 139;
y = -12;
}
);
}
);
lib = {
};
name = s;
unicodes = (
);
width = 439;
};
};
};
},
{
glyphname = germandbls;
lastChange = "2020-06-28 04:52:39 +0000";
layers = (
{
layerId = "AB099EFE-E788-4EFC-8633-CF147CB782A6";
paths = (
{
closed = 1;
nodes = (
"416 -8 OFFCURVE",
"500 94 OFFCURVE",
"500 204 CURVE SMOOTH",
"500 328 OFFCURVE",
"400 422 OFFCURVE",
"266 416 CURVE",
"266 402 LINE",
"368 396 OFFCURVE",
"446 472 OFFCURVE",
"446 580 CURVE SMOOTH",
"446 688 OFFCURVE",
"368 760 OFFCURVE",
"264 760 CURVE SMOOTH",
"156 760 OFFCURVE",
"84 682 OFFCURVE",
"84 574 CURVE SMOOTH",
"84 0 LINE",
"114 0 LINE",
"114 580 LINE SMOOTH",
"114 666 OFFCURVE",
"180 732 OFFCURVE",
"266 732 CURVE SMOOTH",
"352 732 OFFCURVE",
"416 666 OFFCURVE",
"416 578 CURVE SMOOTH",
"416 490 OFFCURVE",
"350 426 OFFCURVE",
"260 426 CURVE SMOOTH",
"226 426 LINE",
"226 396 LINE",
"240 396 LINE SMOOTH",
"372 396 OFFCURVE",
"468 322 OFFCURVE",
"468 208 CURVE SMOOTH",
"468 110 OFFCURVE",
"396 20 OFFCURVE",
"286 20 CURVE SMOOTH",
"250 20 OFFCURVE",
"218 28 OFFCURVE",
"198 34 CURVE",
"198 4 LINE",
"222 -4 OFFCURVE",
"264 -8 OFFCURVE",
"290 -8 CURVE SMOOTH"
);
}
);
width = 566;
},
{
layerId = "2D8F7115-C311-411E-929D-56333CF7FFB2";
paths = (
{
closed = 1;
nodes = (
"534 -8 OFFCURVE",
"634 70 OFFCURVE",
"634 196 CURVE SMOOTH",
"634 318 OFFCURVE",
"538 392 OFFCURVE",
"394 392 CURVE",
"394 364 LINE",
"472 364 OFFCURVE",
"572 430 OFFCURVE",
"572 550 CURVE SMOOTH",
"572 662 OFFCURVE",
"482 760 OFFCURVE",
"322 760 CURVE SMOOTH",
"168 760 OFFCURVE",
"60 670 OFFCURVE",
"60 516 CURVE SMOOTH",
"60 0 LINE",
"234 0 LINE",
"234 508 LINE SMOOTH",
"234 570 OFFCURVE",
"274 616 OFFCURVE",
"332 616 CURVE SMOOTH",
"380 616 OFFCURVE",
"420 584 OFFCURVE",
"420 532 CURVE SMOOTH",
"420 486 OFFCURVE",
"382 452 OFFCURVE",
"330 452 CURVE SMOOTH",
"302 452 LINE",
"302 298 LINE",
"350 298 LINE SMOOTH",
"418 298 OFFCURVE",
"462 266 OFFCURVE",
"462 212 CURVE SMOOTH",
"462 166 OFFCURVE",
"428 136 OFFCURVE",
"374 136 CURVE SMOOTH",
"356 136 OFFCURVE",
"316 140 OFFCURVE",
"298 144 CURVE",
"298 -6 LINE",
"324 -8 OFFCURVE",
"362 -8 OFFCURVE",
"376 -8 CURVE SMOOTH"
);
}
);
width = 666;
},
{
associatedMasterId = "AB099EFE-E788-4EFC-8633-CF147CB782A6";
layerId = "AD77B9FD-F34E-4944-9054-D024815C9E26";
name = "{88}";
paths = (
{
closed = 1;
nodes = (
"452 -8 OFFCURVE",
"552 86 OFFCURVE",
"552 206 CURVE SMOOTH",
"552 330 OFFCURVE",
"444 414 OFFCURVE",
"324 408 CURVE",
"324 384 LINE",
"420 380 OFFCURVE",
"498 462 OFFCURVE",
"498 570 CURVE SMOOTH",
"498 682 OFFCURVE",
"414 760 OFFCURVE",
"286 760 CURVE SMOOTH",
"158 760 OFFCURVE",
"76 678 OFFCURVE",
"76 544 CURVE SMOOTH",
"76 0 LINE",
"160 0 LINE",
"160 536 LINE SMOOTH",
"159 616 OFFCURVE",
"204 682 OFFCURVE",
"288 682 CURVE SMOOTH",
"360 682 OFFCURVE",
"414 636 OFFCURVE",
"414 562 CURVE SMOOTH",
"414 486 OFFCURVE",
"356 432 OFFCURVE",
"290 432 CURVE SMOOTH",
"258 432 LINE",
"258 356 LINE",
"282 356 LINE SMOOTH",
"400 356 OFFCURVE",
"464 290 OFFCURVE",
"466 208 CURVE SMOOTH",
"468 122 OFFCURVE",
"404 70 OFFCURVE",
"304 70 CURVE SMOOTH",
"286 70 OFFCURVE",
"258 72 OFFCURVE",
"236 76 CURVE",
"236 -2 LINE",
"258 -6 OFFCURVE",
"284 -8 OFFCURVE",
"306 -8 CURVE SMOOTH"
);
}
);
width = 606;
}
);
leftKerningGroup = LAT_L_LC;
leftMetricsKey = h;
rightKerningGroup = LAT_GERMANDBLS_LC;
rightMetricsKey = B;
unicode = 00DF;
},
{
glyphname = t;
lastChange = "2020-06-30 05:24:01 +0000";
layers = (
{
anchors = (
{
name = bottom;
position = "{228, 0}";
},
{
name = cedilla;
position = "{238, 0}";
},
{
name = center;
position = "{146, 256}";
},
{
name = top;
position = "{146, 690}";
},
{
name = topright;
position = "{176, 772}";
}
);
guideLines = (
{
angle = 112.5;
position = "{326, -12}";
}
);
layerId = "AB099EFE-E788-4EFC-8633-CF147CB782A6";
paths = (
{
closed = 1;
nodes = (
"270 -6 OFFCURVE",
"290 -4 OFFCURVE",
"308 4 CURVE",
"296 30 LINE",
"282 24 OFFCURVE",
"264 22 OFFCURVE",
"252 22 CURVE SMOOTH",
"188 22 OFFCURVE",
"160 66 OFFCURVE",
"160 134 CURVE SMOOTH",
"160 690 LINE",
"130 690 LINE",
"130 140 LINE SMOOTH",
"130 48 OFFCURVE",
"168 -6 OFFCURVE",
"254 -6 CURVE SMOOTH"
);
},
{
closed = 1;
nodes = (
"300 484 LINE",
"300 512 LINE",
"48 512 LINE",
"48 484 LINE"
);
}
);
width = 356;
},
{
anchors = (
{
name = bottom;
position = "{246, 0}";
},
{
name = cedilla;
position = "{258, 0}";
},
{
name = center;
position = "{166, 262}";
},
{
name = top;
position = "{164, 684}";
},
{
name = topright;
position = "{228, 796}";
}
);
associatedMasterId = "AB099EFE-E788-4EFC-8633-CF147CB782A6";
guideLines = (
{
angle = 112.5;
position = "{326, -12}";
}
);
layerId = "9FA3AEC7-B983-4B75-8327-8418045250DD";
name = "{88}";
paths = (
{
closed = 1;
nodes = (
"302 -8 OFFCURVE",
"326 -2 OFFCURVE",
"346 6 CURVE",
"314 80 LINE",
"302 74 OFFCURVE",
"288 70 OFFCURVE",
"272 70 CURVE SMOOTH",
"232 70 OFFCURVE",
"206 98 OFFCURVE",
"206 152 CURVE SMOOTH",
"206 684 LINE",
"122 684 LINE",
"122 144 LINE SMOOTH",
"122 54 OFFCURVE",
"172 -8 OFFCURVE",
"270 -8 CURVE SMOOTH"
);
},
{
closed = 1;
nodes = (
"334 442 LINE",
"334 518 LINE",
"36 518 LINE",
"36 442 LINE"
);
}
);
width = 378;
},
{
anchors = (
{
name = bottom;
position = "{263, 0}";
},
{
name = cedilla;
position = "{275, 0}";
},
{
name = center;
position = "{184, 263}";
},
{
name = top;
position = "{182, 679}";
},
{
name = topright;
position = "{261, 822}";
}
);
associatedMasterId = "AB099EFE-E788-4EFC-8633-CF147CB782A6";
guideLines = (
{
angle = 112.5;
position = "{356, 8}";
}
);
layerId = "EABF1B0F-8E52-47E5-9328-BC578E3E2863";
name = "{140}";
paths = (
{
closed = 1;
nodes = (
"327 -8 OFFCURVE",
"362 -1 OFFCURVE",
"390 12 CURVE",
"346 118 LINE",
"334 112 OFFCURVE",
"323 110 OFFCURVE",
"310 110 CURVE SMOOTH",
"272 110 OFFCURVE",
"248 129 OFFCURVE",
"248 176 CURVE SMOOTH",
"248 680 LINE",
"114 680 LINE",
"114 168 LINE SMOOTH",
"114 64 OFFCURVE",
"173 -8 OFFCURVE",
"292 -8 CURVE SMOOTH"
);
},
{
closed = 1;
nodes = (
"370 416 LINE",
"370 524 LINE",
"28 524 LINE",
"28 416 LINE"
);
}
);
width = 412;
},
{
anchors = (
{
name = bottom;
position = "{278, 0}";
},
{
name = cedilla;
position = "{290, 0}";
},
{
name = center;
position = "{200, 264}";
},
{
name = top;
position = "{198, 674}";
},
{
name = topright;
position = "{284, 846}";
}
);
guideLines = (
{
angle = 112.5;
position = "{446, -12}";
}
);
layerId = "2D8F7115-C311-411E-929D-56333CF7FFB2";
paths = (
{
closed = 1;
nodes = (
"356 -8 OFFCURVE",
"404 0 OFFCURVE",
"436 14 CURVE",
"380 150 LINE",
"368 144 OFFCURVE",
"360 140 OFFCURVE",
"342 140 CURVE SMOOTH",
"306 140 OFFCURVE",
"282 158 OFFCURVE",
"282 200 CURVE SMOOTH",
"282 674 LINE",
"108 674 LINE",
"108 200 LINE SMOOTH",
"108 78 OFFCURVE",
"174 -8 OFFCURVE",
"314 -8 CURVE SMOOTH"
);
},
{
closed = 1;
nodes = (
"404 380 LINE",
"404 528 LINE",
"20 528 LINE",
"20 380 LINE"
);
}
);
width = 448;
}
);
leftKerningGroup = LAT_T_LC;
rightKerningGroup = LAT_T_LC;
unicode = 0074;
},
{
color = 4;
glyphname = t.ss01;
lastChange = "2020-06-29 10:26:37 +0000";
layers = (
{
anchors = (
{
name = bottom;
position = "{170, 0}";
},
{
name = cedilla;
position = "{164, 0}";
},
{
name = center;
position = "{170, 256}";
},
{
name = top;
position = "{170, 690}";
},
{
name = topright;
position = "{206, 752}";
}
);
layerId = "AB099EFE-E788-4EFC-8633-CF147CB782A6";
paths = (
{
closed = 1;
nodes = (
"186 0 LINE",
"186 690 LINE",
"156 690 LINE",
"156 0 LINE"
);
},
{
closed = 1;
nodes = (
"306 484 LINE",
"306 512 LINE",
"36 512 LINE",
"36 484 LINE"
);
}
);
width = 342;
},
{
anchors = (
{
name = bottom;
position = "{218, 0}";
},
{
name = cedilla;
position = "{232, 0}";
},
{
name = center;
position = "{218, 264}";
},
{
name = top;
position = "{218, 674}";
},
{
name = topright;
position = "{290, 844}";
}
);
layerId = "2D8F7115-C311-411E-929D-56333CF7FFB2";
paths = (
{
closed = 1;
nodes = (
"306 0 LINE",
"306 674 LINE",
"132 674 LINE",
"132 0 LINE"
);
},
{
closed = 1;
nodes = (
"416 380 LINE",
"416 528 LINE",
"20 528 LINE",
"20 380 LINE"
);
}
);
width = 436;
},
{
anchors = (
{
name = bottom;
position = "{188, 0}";
},
{
name = cedilla;
position = "{190, 0}";
},
{
name = center;
position = "{190, 260}";
},
{
name = top;
position = "{190, 684}";
},
{
name = topright;
position = "{238, 788}";
}
);
associatedMasterId = "AB099EFE-E788-4EFC-8633-CF147CB782A6";
layerId = "A6C5D52A-00B6-422D-A441-4CB7F8C779A2";
name = "{88}";
paths = (
{
closed = 1;
nodes = (
"232 0 LINE",
"232 684 LINE",
"148 684 LINE",
"148 0 LINE"
);
},
{
closed = 1;
nodes = (
"350 442 LINE",
"350 518 LINE",
"30 518 LINE",
"30 442 LINE"
);
}
);
width = 380;
}
);
leftKerningGroup = LAT_T_LC;
rightKerningGroup = LAT_TSS01_LC;
},
{
glyphname = u;
lastChange = "2020-06-30 05:37:09 +0000";
layers = (
{
anchors = (
{
name = bottom;
position = "{298, 0}";
},
{
name = horn;
position = "{446, 512}";
},
{
name = ogonek;
position = "{496, -8}";
},
{
name = top;
position = "{278, 512}";
}
);
guideLines = (
{
angle = 67.5;
position = "{512, 2}";
}
);
layerId = "AB099EFE-E788-4EFC-8633-CF147CB782A6";
paths = (
{
closed = 1;
nodes = (
"346 -8 OFFCURVE",
"418 49 OFFCURVE",
"442 116 CURVE",
"422 90 LINE",
"446 90 LINE",
"432 110 LINE",
"432 50 OFFCURVE",
"450 15 OFFCURVE",
"496 -8 CURVE",
"508 20 LINE",
"471 38 OFFCURVE",
"462 57 OFFCURVE",
"462 114 CURVE SMOOTH",
"462 512 LINE",
"432 512 LINE",
"432 190 LINE SMOOTH",
"432 98 OFFCURVE",
"350 20 OFFCURVE",
"252 20 CURVE SMOOTH",
"166 22 OFFCURVE",
"110 84 OFFCURVE",
"110 182 CURVE SMOOTH",
"110 512 LINE",
"80 512 LINE",
"80 182 LINE SMOOTH",
"80 66 OFFCURVE",
"148 -8 OFFCURVE",
"252 -8 CURVE SMOOTH"
);
}
);
width = 560;
},
{
anchors = (
{
name = bottom;
position = "{340, 0}";
},
{
name = horn;
position = "{474, 528}";
},
{
name = ogonek;
position = "{534, -8}";
},
{
name = top;
position = "{320, 528}";
}
);
guideLines = (
{
angle = 67.5;
position = "{538, 0}";
}
);
layerId = "2D8F7115-C311-411E-929D-56333CF7FFB2";
paths = (
{
closed = 1;
nodes = (
"340 -8 OFFCURVE",
"408 38 OFFCURVE",
"456 106 CURVE",
"376 58 LINE",
"442 58 LINE",
"412 98 LINE",
"412 41 OFFCURVE",
"447 11 OFFCURVE",
"534 -8 CURVE",
"594 136 LINE",
"560 147 OFFCURVE",
"552 159 OFFCURVE",
"552 194 CURVE SMOOTH",
"552 528 LINE",
"378 528 LINE",
"378 220 LINE SMOOTH",
"378 166 OFFCURVE",
"348 138 OFFCURVE",
"306 138 CURVE SMOOTH",
"266 138 OFFCURVE",
"236 166 OFFCURVE",
"236 220 CURVE SMOOTH",
"236 528 LINE",
"62 528 LINE",
"62 194 LINE SMOOTH",
"62 60 OFFCURVE",
"152 -8 OFFCURVE",
"258 -8 CURVE SMOOTH"
);
}
);
width = 630;
},
{
anchors = (
{
name = bottom;
position = "{294, 0}";
},
{
name = horn;
position = "{452, 518}";
},
{
name = ogonek;
position = "{510, -8}";
},
{
name = top;
position = "{288, 518}";
}
);
associatedMasterId = "AB099EFE-E788-4EFC-8633-CF147CB782A6";
guideLines = (
{
angle = 67.5;
position = "{512, 2}";
}
);
layerId = "ECA0CA2F-3FD2-4856-BAC5-A4545FB03854";
name = "{88}";
paths = (
{
closed = 1;
nodes = (
"361 -8 OFFCURVE",
"421 41 OFFCURVE",
"448 98 CURVE",
"404 68 LINE",
"470 68 LINE",
"430 86 LINE",
"429 52 OFFCURVE",
"461 13 OFFCURVE",
"510 -8 CURVE",
"542 68 LINE",
"508 82 OFFCURVE",
"500 99 OFFCURVE",
"500 146 CURVE SMOOTH",
"500 518 LINE",
"416 518 LINE",
"416 202 LINE SMOOTH",
"416 130 OFFCURVE",
"361 70 OFFCURVE",
"282 70 CURVE SMOOTH",
"213 71 OFFCURVE",
"158 114 OFFCURVE",
"158 202 CURVE SMOOTH",
"158 518 LINE",
"74 518 LINE",
"74 198 LINE SMOOTH",
"74 68 OFFCURVE",
"151 -8 OFFCURVE",
"268 -8 CURVE SMOOTH"
);
}
);
width = 588;
}
);
leftKerningGroup = LAT_U_LC;
rightKerningGroup = LAT_A_LC;
unicode = 0075;
},
{
glyphname = v;
lastChange = "2020-06-30 04:02:48 +0000";
layers = (
{
anchors = (
{
name = bottom;
position = "{250, 0}";
},
{
name = top;
position = "{250, 512}";
}
);
layerId = "AB099EFE-E788-4EFC-8633-CF147CB782A6";
paths = (
{
closed = 1;
nodes = (
"234 0 LINE",
"266 0 LINE",
"466 512 LINE",
"434 512 LINE",
"308 182 LINE",
"252 40 LINE",
"248 40 LINE",
"192 182 LINE",
"66 512 LINE",
"34 512 LINE"
);
}
);
width = 500;
},
{
anchors = (
{
name = bottom;
position = "{300, 0}";
},
{
name = top;
position = "{300, 528}";
}
);
layerId = "2D8F7115-C311-411E-929D-56333CF7FFB2";
paths = (
{
closed = 1;
nodes = (
"218 0 LINE",
"382 0 LINE",
"584 528 LINE",
"402 528 LINE",
"336 316 LINE",
"302 180 LINE",
"298 180 LINE",
"264 316 LINE",
"200 528 LINE",
"16 528 LINE"
);
}
);
width = 600;
},
{
anchors = (
{
name = bottom;
position = "{270, 0}";
},
{
name = top;
position = "{270, 518}";
}
);
associatedMasterId = "AB099EFE-E788-4EFC-8633-CF147CB782A6";
layerId = "886503F6-57E3-430C-AB89-0C5C53687507";
name = "{88}";
paths = (
{
closed = 1;
nodes = (
"230 0 LINE",
"310 0 LINE",
"514 518 LINE",
"420 518 LINE",
"316 222 LINE",
"272 100 LINE",
"268 100 LINE",
"224 222 LINE",
"120 518 LINE",
"26 518 LINE"
);
}
);
width = 540;
}
);
leftKerningGroup = LAT_V_LC;
rightKerningGroup = LAT_V_LC;
unicode = 0076;
},
{
glyphname = w;
lastChange = "2020-06-29 10:29:51 +0000";
layers = (
{
anchors = (
{
name = bottom;
position = "{376, 0}";
},
{
name = top;
position = "{376, 512}";
}
);
layerId = "AB099EFE-E788-4EFC-8633-CF147CB782A6";
paths = (
{
closed = 1;
nodes = (
"232 0 LINE",
"296 188 LINE",
"374 422 LINE",
"378 422 LINE",
"456 188 LINE",
"520 0 LINE",
"556 0 LINE",
"714 512 LINE",
"680 512 LINE",
"590 208 LINE",
"538 36 LINE",
"536 36 LINE",
"482 200 LINE",
"386 480 LINE",
"366 480 LINE",
"270 200 LINE",
"216 36 LINE",
"214 36 LINE",
"162 208 LINE",
"72 512 LINE",
"38 512 LINE",
"196 0 LINE"
);
}
);
userData = {
RMXScaler = {
adjustSpace = 8;
height = 72;
weight = 8;
width = 80;
};
};
width = 752;
},
{
anchors = (
{
name = bottom;
position = "{422, 0}";
},
{
name = top;
position = "{422, 528}";
}
);
layerId = "2D8F7115-C311-411E-929D-56333CF7FFB2";
paths = (
{
closed = 1;
nodes = (
"322 0 LINE",
"366 92 LINE",
"420 220 LINE",
"424 220 LINE",
"476 92 LINE",
"520 0 LINE",
"660 0 LINE",
"818 528 LINE",
"648 528 LINE",
"594 292 LINE",
"576 206 LINE",
"574 206 LINE",
"552 252 LINE",
"450 512 LINE",
"392 512 LINE",
"290 252 LINE",
"270 206 LINE",
"268 206 LINE",
"248 292 LINE",
"194 528 LINE",
"24 528 LINE",
"182 0 LINE"
);
}
);
userData = {
RMXScaler = {
adjustSpace = 20;
height = 73;
weight = -120;
width = 79;
};
};
width = 842;
},
{
anchors = (
{
name = bottom;
position = "{394, 0}";
},
{
name = top;
position = "{394, 520}";
}
);
associatedMasterId = "AB099EFE-E788-4EFC-8633-CF147CB782A6";
background = {
paths = (
{
closed = 1;
nodes = (
"174 0 LINE",
"272 0 LINE",
"320 134 LINE",
"392 320 LINE",
"396 320 LINE",
"466 134 LINE",
"518 0 LINE",
"614 0 LINE",
"760 520 LINE",
"660 520 LINE",
"590 250 LINE",
"558 122 LINE",
"554 122 LINE",
"518 226 LINE",
"412 498 LINE",
"376 498 LINE",
"272 226 LINE",
"234 122 LINE",
"232 122 LINE",
"200 250 LINE",
"128 520 LINE",
"26 520 LINE"
);
}
);
};
layerId = "7EFEC4AD-EE5C-46F9-94CB-CAA940C60973";
name = "{106}";
paths = (
{
closed = 1;
nodes = (
"268 0 LINE",
"320 130 LINE",
"392 308 LINE",
"396 308 LINE",
"470 130 LINE",
"522 0 LINE",
"612 0 LINE",
"760 520 LINE",
"658 520 LINE",
"588 250 LINE",
"558 134 LINE",
"554 134 LINE",
"518 230 LINE",
"422 480 LINE",
"366 480 LINE",
"272 230 LINE",
"234 134 LINE",
"232 134 LINE",
"202 250 LINE",
"132 520 LINE",
"28 520 LINE",
"176 0 LINE"
);
}
);
userData = {
RMXScaler = {
adjustSpace = 8;
height = 72;
weight = 8;
width = 80;
};
};
width = 788;
},
{
anchors = (
{
name = bottom;
position = "{390, 0}";
},
{
name = top;
position = "{390, 518}";
}
);
associatedMasterId = "AB099EFE-E788-4EFC-8633-CF147CB782A6";
layerId = "6729CAD7-EDC2-47DB-B04D-F1C487E6D77A";
name = "{88}";
paths = (
{
closed = 1;
nodes = (
"260 0 LINE",
"314 144 LINE",
"388 336 LINE",
"392 336 LINE",
"466 144 LINE",
"520 0 LINE",
"598 0 LINE",
"750 518 LINE",
"662 518 LINE",
"588 240 LINE",
"554 110 LINE",
"550 110 LINE",
"508 224 LINE",
"414 480 LINE",
"366 480 LINE",
"272 224 LINE",
"230 110 LINE",
"226 110 LINE",
"192 240 LINE",
"118 518 LINE",
"30 518 LINE",
"182 0 LINE"
);
}
);
userData = {
RMXScaler = {
adjustSpace = 8;
height = 72;
weight = 8;
width = 80;
};
};
width = 780;
}
);
leftKerningGroup = LAT_V_LC;
rightKerningGroup = LAT_V_LC;
unicode = 0077;
userData = {
RMXScaler = {
source = W;
};
};
},
{
color = 9;
glyphname = w.ss06;
lastChange = "2020-06-28 05:00:52 +0000";
layers = (
{
anchors = (
{
name = bottom;
position = "{382, 0}";
},
{
name = top;
position = "{382, 512}";
}
);
layerId = "AB099EFE-E788-4EFC-8633-CF147CB782A6";
paths = (
{
closed = 1;
nodes = (
"234 0 LINE",
"298 198 LINE",
"378 448 LINE",
"384 448 LINE",
"464 198 LINE",
"528 0 LINE",
"566 0 LINE",
"728 512 LINE",
"696 512 LINE",
"602 208 LINE",
"548 36 LINE",
"546 36 LINE",
"490 208 LINE",
"392 512 LINE",
"370 512 LINE",
"272 208 LINE",
"216 36 LINE",
"214 36 LINE",
"160 208 LINE",
"66 512 LINE",
"34 512 LINE",
"196 0 LINE"
);
}
);
width = 762;
},
{
anchors = (
{
name = bottom;
position = "{420, 0}";
},
{
name = top;
position = "{420, 528}";
}
);
background = {
components = (
{
name = w;
transform = "{1, 0, 0, 1, -2, 0}";
}
);
};
layerId = "2D8F7115-C311-411E-929D-56333CF7FFB2";
paths = (
{
closed = 1;
nodes = (
"334 0 LINE",
"386 150 LINE",
"418 254 LINE",
"422 254 LINE",
"454 150 LINE",
"506 0 LINE",
"666 0 LINE",
"824 528 LINE",
"650 528 LINE",
"602 306 LINE",
"576 182 LINE",
"572 182 LINE",
"532 310 LINE",
"466 528 LINE",
"374 528 LINE",
"308 310 LINE",
"268 182 LINE",
"264 182 LINE",
"238 306 LINE",
"190 528 LINE",
"16 528 LINE",
"174 0 LINE"
);
}
);
width = 840;
},
{
anchors = (
{
name = bottom;
position = "{400, 0}";
},
{
name = top;
position = "{400, 520}";
}
);
associatedMasterId = "AB099EFE-E788-4EFC-8633-CF147CB782A6";
background = {
components = (
{
name = w;
transform = "{1, 0, 0, 1, 4, 0}";
}
);
};
layerId = "9B1A4859-9285-499E-84F7-9A78070A500A";
name = "{106}";
paths = (
{
closed = 1;
nodes = (
"280 0 LINE",
"344 188 LINE",
"398 344 LINE",
"402 344 LINE",
"456 188 LINE",
"520 0 LINE",
"618 0 LINE",
"776 520 LINE",
"670 520 LINE",
"602 266 LINE",
"566 128 LINE",
"564 128 LINE",
"516 266 LINE",
"430 520 LINE",
"370 520 LINE",
"284 266 LINE",
"238 128 LINE",
"236 128 LINE",
"200 266 LINE",
"130 520 LINE",
"24 520 LINE",
"182 0 LINE"
);
}
);
width = 800;
},
{
anchors = (
{
name = bottom;
position = "{396, 0}";
},
{
name = top;
position = "{396, 518}";
}
);
associatedMasterId = "AB099EFE-E788-4EFC-8633-CF147CB782A6";
layerId = "C956887C-4FFE-4136-8E67-B09C8396DDC5";
name = "{88}";
paths = (
{
closed = 1;
nodes = (
"270 0 LINE",
"334 190 LINE",
"394 370 LINE",
"398 370 LINE",
"458 190 LINE",
"522 0 LINE",
"606 0 LINE",
"766 518 LINE",
"678 518 LINE",
"602 252 LINE",
"562 106 LINE",
"558 106 LINE",
"510 252 LINE",
"424 518 LINE",
"368 518 LINE",
"282 252 LINE",
"234 106 LINE",
"230 106 LINE",
"190 252 LINE",
"114 518 LINE",
"26 518 LINE",
"186 0 LINE"
);
}
);
width = 792;
}
);
leftKerningGroup = LAT_V_LC;
leftMetricsKey = v;
rightKerningGroup = LAT_V_LC;
rightMetricsKey = v;
},
